STARTFONT 2.1
COMMENT
COMMENT Converted from OpenType font "Montserrat-Medium.otf" by "otf2bdf 3.0".
COMMENT
FONT -FreeType-Montserrat Medium-Medium-R-Normal--15-140-75-75-P-82-ISO10646-1
SIZE 14 75 75
FONTBOUNDINGBOX 35 20 -12 -4
STARTPROPERTIES 19
FOUNDRY "FreeType"
FAMILY_NAME "Montserrat Medium"
WEIGHT_NAME "Medium"
SLANT "R"
SETWIDTH_NAME "Normal"
ADD_STYLE_NAME ""
PIXEL_SIZE 15
POINT_SIZE 140
RESOLUTION_X 75
RESOLUTION_Y 75
SPACING "P"
AVERAGE_WIDTH 82
CHARSET_REGISTRY "ISO10646"
CHARSET_ENCODING "1"
FONT_ASCENT 14
FONT_DESCENT 3
COPYRIGHT "Copyright 2011 The Montserrat Project Authors (https://github.com/JulietaUla/Montserrat)"
_OTF_FONTFILE "Montserrat-Medium.otf"
_OTF_PSNAME "Montserrat-Medium"
ENDPROPERTIES
CHARS 969
STARTCHAR 0000
ENCODING 0
SWIDTH 0 0
DWIDTH 0 0
BBX 0 0 0 0
BITMAP
ENDCHAR
STARTCHAR 000D
ENCODING 13
SWIDTH 274 0
DWIDTH 4 0
BBX 0 0 0 0
BITMAP
ENDCHAR
STARTCHAR 0020
ENCODING 32
SWIDTH 274 0
DWIDTH 4 0
BBX 0 0 0 0
BITMAP
ENDCHAR
STARTCHAR 0021
ENCODING 33
SWIDTH 274 0
DWIDTH 4 0
BBX 2 11 1 0
BITMAP
C0
C0
C0
C0
C0
C0
C0
C0
00
C0
C0
ENDCHAR
STARTCHAR 0022
ENCODING 34
SWIDTH 411 0
DWIDTH 6 0
BBX 4 4 1 7
BITMAP
90
90
90
90
ENDCHAR
STARTCHAR 0023
ENCODING 35
SWIDTH 685 0
DWIDTH 10 0
BBX 10 11 0 0
BITMAP
1100
1100
1100
7FC0
1100
1300
1200
FF80
2200
2200
2200
ENDCHAR
STARTCHAR 0024
ENCODING 36
SWIDTH 617 0
DWIDTH 9 0
BBX 7 15 1 -2
BITMAP
10
10
7C
D6
90
90
F0
7C
1E
12
12
D6
7C
10
10
ENDCHAR
STARTCHAR 0025
ENCODING 37
SWIDTH 822 0
DWIDTH 12 0
BBX 11 11 1 0
BITMAP
E080
9100
9300
9200
9400
65C0
0A40
1220
1220
2240
61C0
ENDCHAR
STARTCHAR 0026
ENCODING 38
SWIDTH 685 0
DWIDTH 10 0
BBX 8 11 1 0
BITMAP
38
44
44
6C
38
70
C9
85
83
C7
79
ENDCHAR
STARTCHAR 0027
ENCODING 39
SWIDTH 205 0
DWIDTH 3 0
BBX 1 4 1 7
BITMAP
80
80
80
80
ENDCHAR
STARTCHAR 0028
ENCODING 40
SWIDTH 342 0
DWIDTH 5 0
BBX 3 14 1 -3
BITMAP
20
60
40
40
40
C0
C0
C0
C0
40
40
40
60
20
ENDCHAR
STARTCHAR 0029
ENCODING 41
SWIDTH 342 0
DWIDTH 5 0
BBX 3 14 1 -3
BITMAP
80
C0
40
40
40
40
60
60
40
40
40
40
C0
80
ENDCHAR
STARTCHAR 002A
ENCODING 42
SWIDTH 411 0
DWIDTH 6 0
BBX 5 5 0 6
BITMAP
20
E8
30
78
20
ENDCHAR
STARTCHAR 002B
ENCODING 43
SWIDTH 548 0
DWIDTH 8 0
BBX 7 7 1 2
BITMAP
10
10
10
FE
10
10
10
ENDCHAR
STARTCHAR 002C
ENCODING 44
SWIDTH 205 0
DWIDTH 3 0
BBX 2 4 1 -2
BITMAP
80
C0
80
80
ENDCHAR
STARTCHAR 002D
ENCODING 45
SWIDTH 411 0
DWIDTH 6 0
BBX 4 1 1 4
BITMAP
F0
ENDCHAR
STARTCHAR 002E
ENCODING 46
SWIDTH 205 0
DWIDTH 3 0
BBX 1 2 1 0
BITMAP
80
80
ENDCHAR
STARTCHAR 002F
ENCODING 47
SWIDTH 342 0
DWIDTH 5 0
BBX 6 14 0 -2
BITMAP
0C
08
08
18
10
10
20
20
20
40
40
C0
80
80
ENDCHAR
STARTCHAR 0030
ENCODING 48
SWIDTH 685 0
DWIDTH 10 0
BBX 8 11 1 0
BITMAP
3C
66
C2
83
81
81
81
83
C2
66
3C
ENDCHAR
STARTCHAR 0031
ENCODING 49
SWIDTH 342 0
DWIDTH 5 0
BBX 4 11 0 0
BITMAP
F0
30
30
30
30
30
30
30
30
30
30
ENDCHAR
STARTCHAR 0032
ENCODING 50
SWIDTH 548 0
DWIDTH 8 0
BBX 8 11 0 0
BITMAP
3C
E6
02
02
02
06
0C
18
30
60
7F
ENDCHAR
STARTCHAR 0033
ENCODING 51
SWIDTH 548 0
DWIDTH 8 0
BBX 8 11 0 0
BITMAP
7E
06
04
0C
18
1E
02
03
03
C6
7C
ENDCHAR
STARTCHAR 0034
ENCODING 52
SWIDTH 685 0
DWIDTH 10 0
BBX 9 11 1 0
BITMAP
0C00
0800
1800
3000
2000
4600
C600
FF80
0600
0600
0600
ENDCHAR
STARTCHAR 0035
ENCODING 53
SWIDTH 548 0
DWIDTH 8 0
BBX 8 11 0 0
BITMAP
7E
60
60
60
40
7E
03
03
03
E6
7C
ENDCHAR
STARTCHAR 0036
ENCODING 54
SWIDTH 617 0
DWIDTH 9 0
BBX 8 11 1 0
BITMAP
3E
62
C0
80
BC
E6
C2
C3
C2
66
3C
ENDCHAR
STARTCHAR 0037
ENCODING 55
SWIDTH 617 0
DWIDTH 9 0
BBX 8 11 0 0
BITMAP
FF
C3
C3
02
06
04
0C
08
18
18
10
ENDCHAR
STARTCHAR 0038
ENCODING 56
SWIDTH 617 0
DWIDTH 9 0
BBX 8 11 1 0
BITMAP
7C
C6
C2
82
C6
7C
C2
83
83
C6
7C
ENDCHAR
STARTCHAR 0039
ENCODING 57
SWIDTH 617 0
DWIDTH 9 0
BBX 8 11 0 0
BITMAP
3C
66
43
C3
C3
67
3D
01
03
46
7C
ENDCHAR
STARTCHAR 003A
ENCODING 58
SWIDTH 205 0
DWIDTH 3 0
BBX 1 8 1 0
BITMAP
80
80
00
00
00
00
80
80
ENDCHAR
STARTCHAR 003B
ENCODING 59
SWIDTH 205 0
DWIDTH 3 0
BBX 2 10 1 -2
BITMAP
80
80
00
00
00
00
C0
C0
80
80
ENDCHAR
STARTCHAR 003C
ENCODING 60
SWIDTH 548 0
DWIDTH 8 0
BBX 7 6 1 3
BITMAP
06
1C
E0
C0
38
0E
ENDCHAR
STARTCHAR 003D
ENCODING 61
SWIDTH 548 0
DWIDTH 8 0
BBX 7 4 1 3
BITMAP
FE
00
00
FE
ENDCHAR
STARTCHAR 003E
ENCODING 62
SWIDTH 548 0
DWIDTH 8 0
BBX 7 6 1 3
BITMAP
80
70
1C
0E
38
C0
ENDCHAR
STARTCHAR 003F
ENCODING 63
SWIDTH 548 0
DWIDTH 8 0
BBX 7 11 0 0
BITMAP
3C
C6
02
02
06
0C
08
18
00
18
18
ENDCHAR
STARTCHAR 0040
ENCODING 64
SWIDTH 1028 0
DWIDTH 15 0
BBX 13 14 1 -3
BITMAP
0F80
3060
4010
CF48
98C8
9048
9048
9048
9048
98C8
CF70
4000
3000
0F80
ENDCHAR
STARTCHAR 0041
ENCODING 65
SWIDTH 754 0
DWIDTH 11 0
BBX 10 11 0 0
BITMAP
0C00
0E00
0A00
1B00
1100
3100
2180
7F80
40C0
4040
C040
ENDCHAR
STARTCHAR 0042
ENCODING 66
SWIDTH 754 0
DWIDTH 11 0
BBX 8 11 2 0
BITMAP
FC
86
83
83
86
FE
83
81
81
83
FE
ENDCHAR
STARTCHAR 0043
ENCODING 67
SWIDTH 754 0
DWIDTH 11 0
BBX 9 11 1 0
BITMAP
1E00
7380
C000
C000
8000
8000
8000
C000
C000
7380
1E00
ENDCHAR
STARTCHAR 0044
ENCODING 68
SWIDTH 822 0
DWIDTH 12 0
BBX 9 11 2 0
BITMAP
FC00
8700
8180
8180
8080
8080
8080
8180
8180
8700
FC00
ENDCHAR
STARTCHAR 0045
ENCODING 69
SWIDTH 685 0
DWIDTH 10 0
BBX 7 11 2 0
BITMAP
FE
80
80
80
80
FC
80
80
80
80
FE
ENDCHAR
STARTCHAR 0046
ENCODING 70
SWIDTH 617 0
DWIDTH 9 0
BBX 7 11 2 0
BITMAP
FE
80
80
80
80
FC
80
80
80
80
80
ENDCHAR
STARTCHAR 0047
ENCODING 71
SWIDTH 754 0
DWIDTH 11 0
BBX 9 11 1 0
BITMAP
1E00
7180
C000
C000
8000
8080
8080
C080
C080
7180
1F00
ENDCHAR
STARTCHAR 0048
ENCODING 72
SWIDTH 822 0
DWIDTH 12 0
BBX 8 11 2 0
BITMAP
81
81
81
81
81
FF
81
81
81
81
81
ENDCHAR
STARTCHAR 0049
ENCODING 73
SWIDTH 342 0
DWIDTH 5 0
BBX 1 11 2 0
BITMAP
80
80
80
80
80
80
80
80
80
80
80
ENDCHAR
STARTCHAR 004A
ENCODING 74
SWIDTH 480 0
DWIDTH 7 0
BBX 6 11 0 0
BITMAP
7C
04
04
04
04
04
04
04
0C
CC
78
ENDCHAR
STARTCHAR 004B
ENCODING 75
SWIDTH 685 0
DWIDTH 10 0
BBX 8 11 2 0
BITMAP
83
86
8C
98
B0
B0
F8
CC
86
82
83
ENDCHAR
STARTCHAR 004C
ENCODING 76
SWIDTH 617 0
DWIDTH 9 0
BBX 7 11 2 0
BITMAP
80
80
80
80
80
80
80
80
80
80
FE
ENDCHAR
STARTCHAR 004D
ENCODING 77
SWIDTH 960 0
DWIDTH 14 0
BBX 10 11 2 0
BITMAP
8040
C0C0
C0C0
E1C0
A140
B340
9240
9C40
8C40
8040
8040
ENDCHAR
STARTCHAR 004E
ENCODING 78
SWIDTH 822 0
DWIDTH 12 0
BBX 8 11 2 0
BITMAP
81
C1
E1
A1
B1
99
8D
8D
87
83
81
ENDCHAR
STARTCHAR 004F
ENCODING 79
SWIDTH 822 0
DWIDTH 12 0
BBX 11 11 1 0
BITMAP
1E00
7380
C0C0
C040
8040
8060
8040
C040
C0C0
7380
1E00
ENDCHAR
STARTCHAR 0050
ENCODING 80
SWIDTH 754 0
DWIDTH 11 0
BBX 8 11 2 0
BITMAP
FC
86
83
83
83
86
FC
80
80
80
80
ENDCHAR
STARTCHAR 0051
ENCODING 81
SWIDTH 822 0
DWIDTH 12 0
BBX 11 13 1 -2
BITMAP
1E00
7380
C0C0
C040
8040
8060
8040
C040
C0C0
7380
1F00
0620
03C0
ENDCHAR
STARTCHAR 0052
ENCODING 82
SWIDTH 754 0
DWIDTH 11 0
BBX 8 11 2 0
BITMAP
FC
86
83
83
83
86
FC
8C
84
86
83
ENDCHAR
STARTCHAR 0053
ENCODING 83
SWIDTH 617 0
DWIDTH 9 0
BBX 7 11 1 0
BITMAP
7C
C6
80
80
C0
7C
0E
02
02
C6
7C
ENDCHAR
STARTCHAR 0054
ENCODING 84
SWIDTH 617 0
DWIDTH 9 0
BBX 8 11 0 0
BITMAP
FF
08
08
08
08
08
08
08
08
08
08
ENDCHAR
STARTCHAR 0055
ENCODING 85
SWIDTH 822 0
DWIDTH 12 0
BBX 9 11 1 0
BITMAP
C080
C080
C080
C080
C080
C080
C080
4080
4180
7300
3E00
ENDCHAR
STARTCHAR 0056
ENCODING 86
SWIDTH 685 0
DWIDTH 10 0
BBX 10 11 0 0
BITMAP
C040
40C0
6080
6180
2180
3100
1300
1A00
1E00
0E00
0C00
ENDCHAR
STARTCHAR 0057
ENCODING 87
SWIDTH 1097 0
DWIDTH 16 0
BBX 15 11 1 0
BITMAP
8306
8304
C384
468C
448C
64C8
6448
2C58
3870
3830
1830
ENDCHAR
STARTCHAR 0058
ENCODING 88
SWIDTH 685 0
DWIDTH 10 0
BBX 8 11 1 0
BITMAP
83
C2
66
2C
38
18
3C
24
66
C3
81
ENDCHAR
STARTCHAR 0059
ENCODING 89
SWIDTH 617 0
DWIDTH 9 0
BBX 9 11 0 0
BITMAP
C080
4180
6100
2300
3600
1C00
0C00
0800
0800
0800
0800
ENDCHAR
STARTCHAR 005A
ENCODING 90
SWIDTH 685 0
DWIDTH 10 0
BBX 8 11 1 0
BITMAP
FF
03
06
0C
08
18
30
60
40
C0
FF
ENDCHAR
STARTCHAR 005B
ENCODING 91
SWIDTH 342 0
DWIDTH 5 0
BBX 3 14 2 -3
BITMAP
E0
80
80
80
80
80
80
80
80
80
80
80
80
E0
ENDCHAR
STARTCHAR 005C
ENCODING 92
SWIDTH 342 0
DWIDTH 5 0
BBX 5 14 0 -2
BITMAP
80
80
80
40
40
60
20
20
30
10
10
18
08
08
ENDCHAR
STARTCHAR 005D
ENCODING 93
SWIDTH 342 0
DWIDTH 5 0
BBX 3 14 0 -3
BITMAP
E0
20
20
20
20
20
20
20
20
20
20
20
20
E0
ENDCHAR
STARTCHAR 005E
ENCODING 94
SWIDTH 617 0
DWIDTH 9 0
BBX 6 6 1 2
BITMAP
30
30
28
48
44
84
ENDCHAR
STARTCHAR 005F
ENCODING 95
SWIDTH 480 0
DWIDTH 7 0
BBX 7 1 0 -1
BITMAP
FE
ENDCHAR
STARTCHAR 0060
ENCODING 96
SWIDTH 617 0
DWIDTH 9 0
BBX 3 2 2 9
BITMAP
C0
60
ENDCHAR
STARTCHAR 0061
ENCODING 97
SWIDTH 617 0
DWIDTH 9 0
BBX 6 8 1 0
BITMAP
78
8C
04
7C
84
84
CC
74
ENDCHAR
STARTCHAR 0062
ENCODING 98
SWIDTH 685 0
DWIDTH 10 0
BBX 8 11 1 0
BITMAP
C0
C0
C0
DC
E7
C1
C1
C1
C1
E3
DC
ENDCHAR
STARTCHAR 0063
ENCODING 99
SWIDTH 548 0
DWIDTH 8 0
BBX 7 8 1 0
BITMAP
3C
C6
80
80
80
80
C6
3C
ENDCHAR
STARTCHAR 0064
ENCODING 100
SWIDTH 685 0
DWIDTH 10 0
BBX 8 11 1 0
BITMAP
03
03
03
7B
C7
83
83
83
83
C7
3B
ENDCHAR
STARTCHAR 0065
ENCODING 101
SWIDTH 617 0
DWIDTH 9 0
BBX 7 8 1 0
BITMAP
7C
C6
82
FE
80
80
66
3C
ENDCHAR
STARTCHAR 0066
ENCODING 102
SWIDTH 342 0
DWIDTH 5 0
BBX 6 11 0 0
BITMAP
3C
20
20
F8
20
20
20
20
20
20
20
ENDCHAR
STARTCHAR 0067
ENCODING 103
SWIDTH 685 0
DWIDTH 10 0
BBX 8 11 1 -3
BITMAP
3B
C7
83
83
83
83
C7
3B
03
C6
7C
ENDCHAR
STARTCHAR 0068
ENCODING 104
SWIDTH 685 0
DWIDTH 10 0
BBX 8 11 1 0
BITMAP
C0
C0
C0
FC
E6
C3
C3
C3
C3
C3
C3
ENDCHAR
STARTCHAR 0069
ENCODING 105
SWIDTH 274 0
DWIDTH 4 0
BBX 2 11 1 0
BITMAP
C0
C0
00
C0
C0
C0
C0
C0
C0
C0
C0
ENDCHAR
STARTCHAR 006A
ENCODING 106
SWIDTH 274 0
DWIDTH 4 0
BBX 4 14 -1 -3
BITMAP
30
30
00
30
30
30
30
30
30
30
30
30
30
E0
ENDCHAR
STARTCHAR 006B
ENCODING 107
SWIDTH 617 0
DWIDTH 9 0
BBX 8 11 1 0
BITMAP
C0
C0
C0
C6
CC
D8
F8
F8
CC
C6
C3
ENDCHAR
STARTCHAR 006C
ENCODING 108
SWIDTH 274 0
DWIDTH 4 0
BBX 2 11 1 0
BITMAP
C0
C0
C0
C0
C0
C0
C0
C0
C0
C0
C0
ENDCHAR
STARTCHAR 006D
ENCODING 109
SWIDTH 1028 0
DWIDTH 15 0
BBX 13 8 1 0
BITMAP
FCF0
E798
C308
C208
C208
C208
C208
C208
ENDCHAR
STARTCHAR 006E
ENCODING 110
SWIDTH 685 0
DWIDTH 10 0
BBX 8 8 1 0
BITMAP
FC
E6
C3
C3
C3
C3
C3
C3
ENDCHAR
STARTCHAR 006F
ENCODING 111
SWIDTH 617 0
DWIDTH 9 0
BBX 8 8 1 0
BITMAP
3C
C6
82
83
83
82
C6
3C
ENDCHAR
STARTCHAR 0070
ENCODING 112
SWIDTH 685 0
DWIDTH 10 0
BBX 8 11 1 -3
BITMAP
DC
E7
C1
C1
C1
C1
E3
DC
C0
C0
C0
ENDCHAR
STARTCHAR 0071
ENCODING 113
SWIDTH 685 0
DWIDTH 10 0
BBX 8 11 1 -3
BITMAP
7B
C7
83
83
83
83
C7
7B
03
03
03
ENDCHAR
STARTCHAR 0072
ENCODING 114
SWIDTH 411 0
DWIDTH 6 0
BBX 4 8 1 0
BITMAP
F0
E0
C0
C0
C0
C0
C0
C0
ENDCHAR
STARTCHAR 0073
ENCODING 115
SWIDTH 480 0
DWIDTH 7 0
BBX 6 8 1 0
BITMAP
78
C8
80
C0
78
0C
8C
F8
ENDCHAR
STARTCHAR 0074
ENCODING 116
SWIDTH 411 0
DWIDTH 6 0
BBX 6 10 0 0
BITMAP
20
20
F8
20
20
20
20
20
20
3C
ENDCHAR
STARTCHAR 0075
ENCODING 117
SWIDTH 685 0
DWIDTH 10 0
BBX 8 8 1 0
BITMAP
C3
C3
C3
C3
C3
C3
67
3B
ENDCHAR
STARTCHAR 0076
ENCODING 118
SWIDTH 548 0
DWIDTH 8 0
BBX 8 8 0 0
BITMAP
C1
43
42
66
24
3C
18
18
ENDCHAR
STARTCHAR 0077
ENCODING 119
SWIDTH 891 0
DWIDTH 13 0
BBX 13 8 0 0
BITMAP
C208
4710
4510
6510
2DA0
28A0
38E0
1040
ENDCHAR
STARTCHAR 0078
ENCODING 120
SWIDTH 548 0
DWIDTH 8 0
BBX 6 8 1 0
BITMAP
84
CC
78
30
30
78
CC
84
ENDCHAR
STARTCHAR 0079
ENCODING 121
SWIDTH 548 0
DWIDTH 8 0
BBX 8 11 0 -3
BITMAP
C1
43
42
66
24
3C
18
18
18
90
E0
ENDCHAR
STARTCHAR 007A
ENCODING 122
SWIDTH 548 0
DWIDTH 8 0
BBX 6 8 1 0
BITMAP
FC
08
18
30
20
40
C0
FC
ENDCHAR
STARTCHAR 007B
ENCODING 123
SWIDTH 342 0
DWIDTH 5 0
BBX 4 14 1 -3
BITMAP
30
60
40
40
40
40
40
C0
40
40
40
40
60
30
ENDCHAR
STARTCHAR 007C
ENCODING 124
SWIDTH 274 0
DWIDTH 4 0
BBX 1 14 2 -3
BITMAP
80
80
80
80
80
80
80
80
80
80
80
80
80
80
ENDCHAR
STARTCHAR 007D
ENCODING 125
SWIDTH 342 0
DWIDTH 5 0
BBX 4 14 0 -3
BITMAP
C0
60
20
20
20
20
20
30
20
20
20
20
20
E0
ENDCHAR
STARTCHAR 007E
ENCODING 126
SWIDTH 548 0
DWIDTH 8 0
BBX 7 3 1 4
BITMAP
40
B2
9C
ENDCHAR
STARTCHAR 00A0
ENCODING 160
SWIDTH 274 0
DWIDTH 4 0
BBX 0 0 0 0
BITMAP
ENDCHAR
STARTCHAR 00A1
ENCODING 161
SWIDTH 274 0
DWIDTH 4 0
BBX 2 10 1 -2
BITMAP
C0
C0
00
C0
C0
C0
C0
C0
C0
C0
ENDCHAR
STARTCHAR 00A2
ENCODING 162
SWIDTH 548 0
DWIDTH 8 0
BBX 7 11 1 -2
BITMAP
10
38
7E
D0
90
90
90
D6
7C
10
10
ENDCHAR
STARTCHAR 00A3
ENCODING 163
SWIDTH 617 0
DWIDTH 9 0
BBX 9 11 0 0
BITMAP
0F80
1880
3000
2000
2000
FE00
2000
2000
2000
2000
FF80
ENDCHAR
STARTCHAR 00A4
ENCODING 164
SWIDTH 685 0
DWIDTH 10 0
BBX 8 10 1 0
BITMAP
80
BD
67
43
81
81
C1
42
FF
81
ENDCHAR
STARTCHAR 00A5
ENCODING 165
SWIDTH 685 0
DWIDTH 10 0
BBX 10 11 0 0
BITMAP
C040
4080
2180
3100
1200
0E00
7F80
0C00
7F80
0C00
0C00
ENDCHAR
STARTCHAR 00A6
ENCODING 166
SWIDTH 274 0
DWIDTH 4 0
BBX 1 14 2 -3
BITMAP
80
80
80
80
80
00
00
00
00
80
80
80
80
80
ENDCHAR
STARTCHAR 00A7
ENCODING 167
SWIDTH 480 0
DWIDTH 7 0
BBX 6 13 1 -2
BITMAP
78
C4
80
C0
F8
8C
84
CC
78
08
08
88
F0
ENDCHAR
STARTCHAR 00A8
ENCODING 168
SWIDTH 617 0
DWIDTH 9 0
BBX 4 1 2 10
BITMAP
D0
ENDCHAR
STARTCHAR 00A9
ENCODING 169
SWIDTH 822 0
DWIDTH 12 0
BBX 10 11 1 0
BITMAP
1E00
6180
9E80
B240
A040
A040
A040
B240
9E80
4080
3F00
ENDCHAR
STARTCHAR 00AA
ENCODING 170
SWIDTH 411 0
DWIDTH 6 0
BBX 4 5 1 6
BITMAP
E0
10
F0
90
F0
ENDCHAR
STARTCHAR 00AB
ENCODING 171
SWIDTH 480 0
DWIDTH 7 0
BBX 6 6 1 1
BITMAP
24
48
D0
90
58
68
ENDCHAR
STARTCHAR 00AC
ENCODING 172
SWIDTH 548 0
DWIDTH 8 0
BBX 7 4 1 2
BITMAP
FE
06
06
06
ENDCHAR
STARTCHAR 00AD
ENCODING 173
SWIDTH 411 0
DWIDTH 6 0
BBX 4 1 1 4
BITMAP
F0
ENDCHAR
STARTCHAR 00AE
ENCODING 174
SWIDTH 822 0
DWIDTH 12 0
BBX 10 11 1 0
BITMAP
1E00
6100
9C80
9240
9240
9240
9E40
9240
9280
4100
3E00
ENDCHAR
STARTCHAR 00AF
ENCODING 175
SWIDTH 617 0
DWIDTH 9 0
BBX 5 1 2 10
BITMAP
F8
ENDCHAR
STARTCHAR 00B0
ENCODING 176
SWIDTH 411 0
DWIDTH 6 0
BBX 4 5 1 6
BITMAP
60
90
90
90
70
ENDCHAR
STARTCHAR 00B1
ENCODING 177
SWIDTH 548 0
DWIDTH 8 0
BBX 7 9 1 0
BITMAP
10
10
10
FE
10
10
00
00
FE
ENDCHAR
STARTCHAR 00B2
ENCODING 178
SWIDTH 411 0
DWIDTH 6 0
BBX 5 6 1 5
BITMAP
F0
10
10
20
40
F8
ENDCHAR
STARTCHAR 00B3
ENCODING 179
SWIDTH 411 0
DWIDTH 6 0
BBX 5 6 1 5
BITMAP
F0
20
70
18
10
F0
ENDCHAR
STARTCHAR 00B4
ENCODING 180
SWIDTH 617 0
DWIDTH 9 0
BBX 3 2 4 9
BITMAP
60
80
ENDCHAR
STARTCHAR 00B5
ENCODING 181
SWIDTH 685 0
DWIDTH 10 0
BBX 8 11 1 -3
BITMAP
C3
C3
C3
C3
C3
C3
E7
FF
C0
C0
C0
ENDCHAR
STARTCHAR 00B6
ENCODING 182
SWIDTH 617 0
DWIDTH 9 0
BBX 8 13 0 -2
BITMAP
7F
71
F1
F1
71
11
11
11
11
11
11
11
11
ENDCHAR
STARTCHAR 00B7
ENCODING 183
SWIDTH 274 0
DWIDTH 4 0
BBX 2 2 1 3
BITMAP
C0
C0
ENDCHAR
STARTCHAR 00B8
ENCODING 184
SWIDTH 617 0
DWIDTH 9 0
BBX 3 3 3 -3
BITMAP
40
20
E0
ENDCHAR
STARTCHAR 00B9
ENCODING 185
SWIDTH 411 0
DWIDTH 6 0
BBX 4 6 1 5
BITMAP
E0
20
20
20
20
F0
ENDCHAR
STARTCHAR 00BA
ENCODING 186
SWIDTH 411 0
DWIDTH 6 0
BBX 6 5 0 6
BITMAP
78
48
84
48
30
ENDCHAR
STARTCHAR 00BB
ENCODING 187
SWIDTH 480 0
DWIDTH 7 0
BBX 5 6 1 1
BITMAP
B0
D0
48
68
58
90
ENDCHAR
STARTCHAR 00BC
ENCODING 188
SWIDTH 1028 0
DWIDTH 15 0
BBX 14 11 1 0
BITMAP
E040
2040
2080
2100
2100
2210
F420
0440
0850
18FC
1010
ENDCHAR
STARTCHAR 00BD
ENCODING 189
SWIDTH 1028 0
DWIDTH 15 0
BBX 13 11 1 0
BITMAP
E040
2040
2080
2100
2170
22C8
F408
0408
0810
1860
10F8
ENDCHAR
STARTCHAR 00BE
ENCODING 190
SWIDTH 1028 0
DWIDTH 15 0
BBX 14 11 1 0
BITMAP
F040
3040
2080
7100
1900
1210
F420
0440
0850
18FC
1010
ENDCHAR
STARTCHAR 00BF
ENCODING 191
SWIDTH 548 0
DWIDTH 8 0
BBX 7 10 1 -2
BITMAP
30
10
00
10
30
60
C0
80
C6
7C
ENDCHAR
STARTCHAR 00C0
ENCODING 192
SWIDTH 754 0
DWIDTH 11 0
BBX 10 14 0 0
BITMAP
1800
0C00
0000
0C00
0E00
0A00
1B00
1100
3100
2180
7F80
40C0
4040
C040
ENDCHAR
STARTCHAR 00C1
ENCODING 193
SWIDTH 754 0
DWIDTH 11 0
BBX 10 14 0 0
BITMAP
0200
0400
0000
0C00
0E00
0A00
1B00
1100
3100
2180
7F80
40C0
4040
C040
ENDCHAR
STARTCHAR 00C2
ENCODING 194
SWIDTH 754 0
DWIDTH 11 0
BBX 10 14 0 0
BITMAP
0C00
1A00
0000
0C00
0E00
0A00
1B00
1100
3100
2180
7F80
40C0
4040
C040
ENDCHAR
STARTCHAR 00C3
ENCODING 195
SWIDTH 754 0
DWIDTH 11 0
BBX 10 14 0 0
BITMAP
1900
1600
0000
0C00
0E00
0A00
1B00
1100
3100
2180
7F80
40C0
4040
C040
ENDCHAR
STARTCHAR 00C4
ENCODING 196
SWIDTH 754 0
DWIDTH 11 0
BBX 10 13 0 1
BITMAP
1A00
0000
0C00
0E00
0A00
1B00
1100
3100
2180
7F80
40C0
4040
C040
ENDCHAR
STARTCHAR 00C5
ENCODING 197
SWIDTH 754 0
DWIDTH 11 0
BBX 10 15 0 0
BITMAP
0C00
1200
0E00
0000
0C00
0E00
0A00
1B00
1100
3100
2180
7F80
40C0
4040
C040
ENDCHAR
STARTCHAR 00C6
ENCODING 198
SWIDTH 1028 0
DWIDTH 15 0
BBX 14 11 0 0
BITMAP
03FC
0700
0500
0D00
0900
11FC
3100
3F00
6100
4100
C1FC
ENDCHAR
STARTCHAR 00C7
ENCODING 199
SWIDTH 754 0
DWIDTH 11 0
BBX 9 14 1 -3
BITMAP
1E00
7380
C000
C000
8000
8000
8000
C000
C000
7380
1E00
0800
0C00
1C00
ENDCHAR
STARTCHAR 00C8
ENCODING 200
SWIDTH 685 0
DWIDTH 10 0
BBX 7 14 2 0
BITMAP
60
30
00
FE
80
80
80
80
FC
80
80
80
80
FE
ENDCHAR
STARTCHAR 00C9
ENCODING 201
SWIDTH 685 0
DWIDTH 10 0
BBX 7 14 2 0
BITMAP
08
10
00
FE
80
80
80
80
FC
80
80
80
80
FE
ENDCHAR
STARTCHAR 00CA
ENCODING 202
SWIDTH 685 0
DWIDTH 10 0
BBX 7 14 2 0
BITMAP
30
48
00
FE
80
80
80
80
FC
80
80
80
80
FE
ENDCHAR
STARTCHAR 00CB
ENCODING 203
SWIDTH 685 0
DWIDTH 10 0
BBX 7 13 2 1
BITMAP
48
00
FE
80
80
80
80
FC
80
80
80
80
FE
ENDCHAR
STARTCHAR 00CC
ENCODING 204
SWIDTH 342 0
DWIDTH 5 0
BBX 3 14 0 0
BITMAP
C0
60
00
20
20
20
20
20
20
20
20
20
20
20
ENDCHAR
STARTCHAR 00CD
ENCODING 205
SWIDTH 342 0
DWIDTH 5 0
BBX 2 14 2 0
BITMAP
40
80
00
80
80
80
80
80
80
80
80
80
80
80
ENDCHAR
STARTCHAR 00CE
ENCODING 206
SWIDTH 342 0
DWIDTH 5 0
BBX 4 14 0 0
BITMAP
60
D0
00
20
20
20
20
20
20
20
20
20
20
20
ENDCHAR
STARTCHAR 00CF
ENCODING 207
SWIDTH 342 0
DWIDTH 5 0
BBX 4 13 0 1
BITMAP
D0
00
20
20
20
20
20
20
20
20
20
20
20
ENDCHAR
STARTCHAR 00D0
ENCODING 208
SWIDTH 822 0
DWIDTH 12 0
BBX 11 11 0 0
BITMAP
3F00
21C0
2060
2020
2020
FC20
2020
2020
2060
21C0
3F00
ENDCHAR
STARTCHAR 00D1
ENCODING 209
SWIDTH 822 0
DWIDTH 12 0
BBX 8 14 2 0
BITMAP
30
4C
00
81
C1
E1
A1
B1
99
8D
8D
87
83
81
ENDCHAR
STARTCHAR 00D2
ENCODING 210
SWIDTH 822 0
DWIDTH 12 0
BBX 11 14 1 0
BITMAP
1800
0C00
0000
1E00
7380
C0C0
C040
8040
8060
8040
C040
C0C0
7380
1E00
ENDCHAR
STARTCHAR 00D3
ENCODING 211
SWIDTH 822 0
DWIDTH 12 0
BBX 11 14 1 0
BITMAP
0200
0400
0000
1E00
7380
C0C0
C040
8040
8060
8040
C040
C0C0
7380
1E00
ENDCHAR
STARTCHAR 00D4
ENCODING 212
SWIDTH 822 0
DWIDTH 12 0
BBX 11 14 1 0
BITMAP
0C00
1200
0000
1E00
7380
C0C0
C040
8040
8060
8040
C040
C0C0
7380
1E00
ENDCHAR
STARTCHAR 00D5
ENCODING 213
SWIDTH 822 0
DWIDTH 12 0
BBX 11 14 1 0
BITMAP
1900
1600
0000
1E00
7380
C0C0
C040
8040
8060
8040
C040
C0C0
7380
1E00
ENDCHAR
STARTCHAR 00D6
ENCODING 214
SWIDTH 822 0
DWIDTH 12 0
BBX 11 13 1 1
BITMAP
1200
0000
1E00
7380
C0C0
C040
8040
8060
8040
C040
C0C0
7380
1E00
ENDCHAR
STARTCHAR 00D7
ENCODING 215
SWIDTH 548 0
DWIDTH 8 0
BBX 5 5 2 3
BITMAP
88
D0
60
70
98
ENDCHAR
STARTCHAR 00D8
ENCODING 216
SWIDTH 822 0
DWIDTH 12 0
BBX 11 13 1 -1
BITMAP
0040
1F80
7380
C1C0
C240
8440
8460
8840
D040
D0C0
7380
5E00
C000
ENDCHAR
STARTCHAR 00D9
ENCODING 217
SWIDTH 822 0
DWIDTH 12 0
BBX 9 14 1 0
BITMAP
1000
0800
0000
C080
C080
C080
C080
C080
C080
C080
4080
4180
7300
3E00
ENDCHAR
STARTCHAR 00DA
ENCODING 218
SWIDTH 822 0
DWIDTH 12 0
BBX 9 14 1 0
BITMAP
0600
0C00
0000
C080
C080
C080
C080
C080
C080
C080
4080
4180
7300
3E00
ENDCHAR
STARTCHAR 00DB
ENCODING 219
SWIDTH 822 0
DWIDTH 12 0
BBX 9 14 1 0
BITMAP
0C00
1200
0000
C080
C080
C080
C080
C080
C080
C080
4080
4180
7300
3E00
ENDCHAR
STARTCHAR 00DC
ENCODING 220
SWIDTH 822 0
DWIDTH 12 0
BBX 9 13 1 1
BITMAP
1600
0000
C080
C080
C080
C080
C080
C080
C080
4080
4180
7300
3E00
ENDCHAR
STARTCHAR 00DD
ENCODING 221
SWIDTH 617 0
DWIDTH 9 0
BBX 9 14 0 0
BITMAP
0600
0C00
0000
C080
4180
6100
2300
3600
1C00
0C00
0800
0800
0800
0800
ENDCHAR
STARTCHAR 00DE
ENCODING 222
SWIDTH 754 0
DWIDTH 11 0
BBX 8 11 2 0
BITMAP
80
80
FC
86
83
83
83
86
FC
80
80
ENDCHAR
STARTCHAR 00DF
ENCODING 223
SWIDTH 685 0
DWIDTH 10 0
BBX 8 11 1 0
BITMAP
3C
66
C2
C2
C6
CE
C3
C1
C1
C3
DE
ENDCHAR
STARTCHAR 00E0
ENCODING 224
SWIDTH 617 0
DWIDTH 9 0
BBX 6 11 1 0
BITMAP
60
30
00
78
8C
04
7C
84
84
CC
74
ENDCHAR
STARTCHAR 00E1
ENCODING 225
SWIDTH 617 0
DWIDTH 9 0
BBX 6 11 1 0
BITMAP
08
10
00
78
8C
04
7C
84
84
CC
74
ENDCHAR
STARTCHAR 00E2
ENCODING 226
SWIDTH 617 0
DWIDTH 9 0
BBX 6 11 1 0
BITMAP
30
48
00
78
8C
04
7C
84
84
CC
74
ENDCHAR
STARTCHAR 00E3
ENCODING 227
SWIDTH 617 0
DWIDTH 9 0
BBX 6 11 1 0
BITMAP
64
58
00
78
8C
04
7C
84
84
CC
74
ENDCHAR
STARTCHAR 00E4
ENCODING 228
SWIDTH 617 0
DWIDTH 9 0
BBX 6 11 1 0
BITMAP
68
00
00
78
8C
04
7C
84
84
CC
74
ENDCHAR
STARTCHAR 00E5
ENCODING 229
SWIDTH 617 0
DWIDTH 9 0
BBX 6 12 1 0
BITMAP
30
48
30
00
78
8C
04
7C
84
84
CC
74
ENDCHAR
STARTCHAR 00E6
ENCODING 230
SWIDTH 960 0
DWIDTH 14 0
BBX 13 8 1 0
BITMAP
79E0
8F30
0618
7FF8
8600
8600
CF30
79E0
ENDCHAR
STARTCHAR 00E7
ENCODING 231
SWIDTH 548 0
DWIDTH 8 0
BBX 7 11 1 -3
BITMAP
3C
C6
80
80
80
80
C6
3C
10
18
38
ENDCHAR
STARTCHAR 00E8
ENCODING 232
SWIDTH 617 0
DWIDTH 9 0
BBX 7 11 1 0
BITMAP
60
10
00
7C
C6
82
FE
80
80
66
3C
ENDCHAR
STARTCHAR 00E9
ENCODING 233
SWIDTH 617 0
DWIDTH 9 0
BBX 7 11 1 0
BITMAP
0C
10
00
7C
C6
82
FE
80
80
66
3C
ENDCHAR
STARTCHAR 00EA
ENCODING 234
SWIDTH 617 0
DWIDTH 9 0
BBX 7 11 1 0
BITMAP
38
6C
00
7C
C6
82
FE
80
80
66
3C
ENDCHAR
STARTCHAR 00EB
ENCODING 235
SWIDTH 617 0
DWIDTH 9 0
BBX 7 11 1 0
BITMAP
6C
00
00
7C
C6
82
FE
80
80
66
3C
ENDCHAR
STARTCHAR 00EC
ENCODING 236
SWIDTH 274 0
DWIDTH 4 0
BBX 3 11 0 0
BITMAP
C0
60
00
60
60
60
60
60
60
60
60
ENDCHAR
STARTCHAR 00ED
ENCODING 237
SWIDTH 274 0
DWIDTH 4 0
BBX 3 11 1 0
BITMAP
60
C0
00
C0
C0
C0
C0
C0
C0
C0
C0
ENDCHAR
STARTCHAR 00EE
ENCODING 238
SWIDTH 274 0
DWIDTH 4 0
BBX 4 11 0 0
BITMAP
60
90
00
60
60
60
60
60
60
60
60
ENDCHAR
STARTCHAR 00EF
ENCODING 239
SWIDTH 274 0
DWIDTH 4 0
BBX 4 11 0 0
BITMAP
F0
00
00
60
60
60
60
60
60
60
60
ENDCHAR
STARTCHAR 00F0
ENCODING 240
SWIDTH 617 0
DWIDTH 9 0
BBX 8 11 1 0
BITMAP
FA
1E
72
02
7B
C7
83
82
82
C6
78
ENDCHAR
STARTCHAR 00F1
ENCODING 241
SWIDTH 685 0
DWIDTH 10 0
BBX 8 11 1 0
BITMAP
30
0C
00
FC
E6
C3
C3
C3
C3
C3
C3
ENDCHAR
STARTCHAR 00F2
ENCODING 242
SWIDTH 617 0
DWIDTH 9 0
BBX 8 11 1 0
BITMAP
60
10
00
3C
C6
82
83
83
82
C6
3C
ENDCHAR
STARTCHAR 00F3
ENCODING 243
SWIDTH 617 0
DWIDTH 9 0
BBX 8 11 1 0
BITMAP
0C
10
00
3C
C6
82
83
83
82
C6
3C
ENDCHAR
STARTCHAR 00F4
ENCODING 244
SWIDTH 617 0
DWIDTH 9 0
BBX 8 11 1 0
BITMAP
18
2C
00
3C
C6
82
83
83
82
C6
3C
ENDCHAR
STARTCHAR 00F5
ENCODING 245
SWIDTH 617 0
DWIDTH 9 0
BBX 8 11 1 0
BITMAP
34
4C
00
3C
C6
82
83
83
82
C6
3C
ENDCHAR
STARTCHAR 00F6
ENCODING 246
SWIDTH 617 0
DWIDTH 9 0
BBX 8 11 1 0
BITMAP
2C
00
00
3C
C6
82
83
83
82
C6
3C
ENDCHAR
STARTCHAR 00F7
ENCODING 247
SWIDTH 548 0
DWIDTH 8 0
BBX 7 8 1 1
BITMAP
30
10
00
FE
00
00
30
10
ENDCHAR
STARTCHAR 00F8
ENCODING 248
SWIDTH 617 0
DWIDTH 9 0
BBX 8 10 1 -1
BITMAP
02
3C
C6
8A
93
93
A2
C6
7C
80
ENDCHAR
STARTCHAR 00F9
ENCODING 249
SWIDTH 685 0
DWIDTH 10 0
BBX 8 11 1 0
BITMAP
30
18
00
C3
C3
C3
C3
C3
C3
67
3B
ENDCHAR
STARTCHAR 00FA
ENCODING 250
SWIDTH 685 0
DWIDTH 10 0
BBX 8 11 1 0
BITMAP
0C
18
00
C3
C3
C3
C3
C3
C3
67
3B
ENDCHAR
STARTCHAR 00FB
ENCODING 251
SWIDTH 685 0
DWIDTH 10 0
BBX 8 11 1 0
BITMAP
18
24
00
C3
C3
C3
C3
C3
C3
67
3B
ENDCHAR
STARTCHAR 00FC
ENCODING 252
SWIDTH 685 0
DWIDTH 10 0
BBX 8 11 1 0
BITMAP
24
20
00
C3
C3
C3
C3
C3
C3
67
3B
ENDCHAR
STARTCHAR 00FD
ENCODING 253
SWIDTH 548 0
DWIDTH 8 0
BBX 8 14 0 -3
BITMAP
0C
18
00
C1
43
42
66
24
3C
18
18
18
90
E0
ENDCHAR
STARTCHAR 00FE
ENCODING 254
SWIDTH 685 0
DWIDTH 10 0
BBX 8 14 1 -3
BITMAP
C0
C0
C0
DC
E7
C1
C1
C1
C1
E3
DC
C0
C0
C0
ENDCHAR
STARTCHAR 00FF
ENCODING 255
SWIDTH 548 0
DWIDTH 8 0
BBX 8 14 0 -3
BITMAP
24
20
00
C1
43
42
66
24
3C
18
18
18
90
E0
ENDCHAR
STARTCHAR 0100
ENCODING 256
SWIDTH 754 0
DWIDTH 11 0
BBX 10 13 0 0
BITMAP
1F00
0000
0C00
0E00
0A00
1B00
1100
3100
2180
7F80
40C0
4040
C040
ENDCHAR
STARTCHAR 0101
ENCODING 257
SWIDTH 617 0
DWIDTH 9 0
BBX 6 11 1 0
BITMAP
7C
00
00
78
8C
04
7C
84
84
CC
74
ENDCHAR
STARTCHAR 0102
ENCODING 258
SWIDTH 754 0
DWIDTH 11 0
BBX 10 14 0 0
BITMAP
1100
0E00
0000
0C00
0E00
0A00
1B00
1100
3100
2180
7F80
40C0
4040
C040
ENDCHAR
STARTCHAR 0103
ENCODING 259
SWIDTH 617 0
DWIDTH 9 0
BBX 6 11 1 0
BITMAP
44
38
00
78
8C
04
7C
84
84
CC
74
ENDCHAR
STARTCHAR 0104
ENCODING 260
SWIDTH 754 0
DWIDTH 11 0
BBX 11 14 0 -3
BITMAP
0C00
0E00
0A00
1B00
1100
3100
2180
7F80
40C0
4040
C040
00C0
0080
00E0
ENDCHAR
STARTCHAR 0105
ENCODING 261
SWIDTH 617 0
DWIDTH 9 0
BBX 7 11 1 -3
BITMAP
78
8C
04
7C
84
84
CC
74
0C
08
0E
ENDCHAR
STARTCHAR 0106
ENCODING 262
SWIDTH 754 0
DWIDTH 11 0
BBX 9 14 1 0
BITMAP
0600
0C00
0000
1E00
7380
C000
C000
8000
8000
8000
C000
C000
7380
1E00
ENDCHAR
STARTCHAR 0107
ENCODING 263
SWIDTH 548 0
DWIDTH 8 0
BBX 7 11 1 0
BITMAP
0C
10
00
3C
C6
80
80
80
80
C6
3C
ENDCHAR
STARTCHAR 0108
ENCODING 264
SWIDTH 754 0
DWIDTH 11 0
BBX 9 14 1 0
BITMAP
0C00
1200
0000
1E00
7380
C000
C000
8000
8000
8000
C000
C000
7380
1E00
ENDCHAR
STARTCHAR 0109
ENCODING 265
SWIDTH 548 0
DWIDTH 8 0
BBX 7 11 1 0
BITMAP
30
6C
00
3C
C6
80
80
80
80
C6
3C
ENDCHAR
STARTCHAR 010A
ENCODING 266
SWIDTH 754 0
DWIDTH 11 0
BBX 9 14 1 0
BITMAP
0C00
0C00
0000
1E00
7380
C000
C000
8000
8000
8000
C000
C000
7380
1E00
ENDCHAR
STARTCHAR 010B
ENCODING 267
SWIDTH 548 0
DWIDTH 8 0
BBX 7 11 1 0
BITMAP
10
10
00
3C
C6
80
80
80
80
C6
3C
ENDCHAR
STARTCHAR 010C
ENCODING 268
SWIDTH 754 0
DWIDTH 11 0
BBX 9 14 1 0
BITMAP
1200
0C00
0000
1E00
7380
C000
C000
8000
8000
8000
C000
C000
7380
1E00
ENDCHAR
STARTCHAR 010D
ENCODING 269
SWIDTH 548 0
DWIDTH 8 0
BBX 7 11 1 0
BITMAP
6C
38
00
3C
C6
80
80
80
80
C6
3C
ENDCHAR
STARTCHAR 010E
ENCODING 270
SWIDTH 822 0
DWIDTH 12 0
BBX 9 14 2 0
BITMAP
6C00
3800
0000
FC00
8700
8180
8180
8080
8080
8080
8180
8180
8700
FC00
ENDCHAR
STARTCHAR 010F
ENCODING 271
SWIDTH 685 0
DWIDTH 10 0
BBX 10 12 1 0
BITMAP
0040
0340
0340
0300
7B00
C700
8300
8300
8300
8300
C700
3B00
ENDCHAR
STARTCHAR 0110
ENCODING 272
SWIDTH 822 0
DWIDTH 12 0
BBX 11 11 0 0
BITMAP
3F00
21C0
2060
2020
2020
FC20
2020
2020
2060
21C0
3F00
ENDCHAR
STARTCHAR 0111
ENCODING 273
SWIDTH 685 0
DWIDTH 10 0
BBX 9 11 1 0
BITMAP
0300
1F80
0300
7B00
C700
8300
8300
8300
8300
C700
3B00
ENDCHAR
STARTCHAR 0112
ENCODING 274
SWIDTH 685 0
DWIDTH 10 0
BBX 7 13 2 0
BITMAP
7C
00
FE
80
80
80
80
FC
80
80
80
80
FE
ENDCHAR
STARTCHAR 0113
ENCODING 275
SWIDTH 617 0
DWIDTH 9 0
BBX 7 11 1 0
BITMAP
7C
00
00
7C
C6
82
FE
80
80
66
3C
ENDCHAR
STARTCHAR 0114
ENCODING 276
SWIDTH 685 0
DWIDTH 10 0
BBX 7 14 2 0
BITMAP
48
38
00
FE
80
80
80
80
FC
80
80
80
80
FE
ENDCHAR
STARTCHAR 0115
ENCODING 277
SWIDTH 617 0
DWIDTH 9 0
BBX 7 11 1 0
BITMAP
44
38
00
7C
C6
82
FE
80
80
66
3C
ENDCHAR
STARTCHAR 0116
ENCODING 278
SWIDTH 685 0
DWIDTH 10 0
BBX 7 14 2 0
BITMAP
10
30
00
FE
80
80
80
80
FC
80
80
80
80
FE
ENDCHAR
STARTCHAR 0117
ENCODING 279
SWIDTH 617 0
DWIDTH 9 0
BBX 7 11 1 0
BITMAP
10
10
00
7C
C6
82
FE
80
80
66
3C
ENDCHAR
STARTCHAR 0118
ENCODING 280
SWIDTH 685 0
DWIDTH 10 0
BBX 7 14 2 -3
BITMAP
FE
80
80
80
80
FC
80
80
80
80
FE
04
08
06
ENDCHAR
STARTCHAR 0119
ENCODING 281
SWIDTH 617 0
DWIDTH 9 0
BBX 7 11 1 -3
BITMAP
7C
C6
82
FE
80
80
66
3C
08
08
0E
ENDCHAR
STARTCHAR 011A
ENCODING 282
SWIDTH 685 0
DWIDTH 10 0
BBX 7 14 2 0
BITMAP
48
30
00
FE
80
80
80
80
FC
80
80
80
80
FE
ENDCHAR
STARTCHAR 011B
ENCODING 283
SWIDTH 617 0
DWIDTH 9 0
BBX 7 11 1 0
BITMAP
6C
38
00
7C
C6
82
FE
80
80
66
3C
ENDCHAR
STARTCHAR 011C
ENCODING 284
SWIDTH 754 0
DWIDTH 11 0
BBX 9 14 1 0
BITMAP
0C00
1200
0000
1E00
7180
C000
C000
8000
8080
8080
C080
C080
7180
1F00
ENDCHAR
STARTCHAR 011D
ENCODING 285
SWIDTH 685 0
DWIDTH 10 0
BBX 8 14 1 -3
BITMAP
18
24
00
3B
C7
83
83
83
83
C7
3B
03
C6
7C
ENDCHAR
STARTCHAR 011E
ENCODING 286
SWIDTH 754 0
DWIDTH 11 0
BBX 9 14 1 0
BITMAP
1200
1E00
0000
1E00
7180
C000
C000
8000
8080
8080
C080
C080
7180
1F00
ENDCHAR
STARTCHAR 011F
ENCODING 287
SWIDTH 685 0
DWIDTH 10 0
BBX 8 14 1 -3
BITMAP
44
38
00
3B
C7
83
83
83
83
C7
3B
03
C6
7C
ENDCHAR
STARTCHAR 0120
ENCODING 288
SWIDTH 754 0
DWIDTH 11 0
BBX 9 14 1 0
BITMAP
0C00
0C00
0000
1E00
7180
C000
C000
8000
8080
8080
C080
C080
7180
1F00
ENDCHAR
STARTCHAR 0121
ENCODING 289
SWIDTH 685 0
DWIDTH 10 0
BBX 8 14 1 -3
BITMAP
18
10
00
3B
C7
83
83
83
83
C7
3B
03
C6
7C
ENDCHAR
STARTCHAR 0122
ENCODING 290
SWIDTH 754 0
DWIDTH 11 0
BBX 9 14 1 -3
BITMAP
1E00
7180
C000
C000
8000
8080
8080
C080
C080
7180
1F00
0000
0C00
0800
ENDCHAR
STARTCHAR 0123
ENCODING 291
SWIDTH 685 0
DWIDTH 10 0
BBX 8 14 1 -2
BITMAP
10
18
00
3B
C7
83
83
83
83
C7
3B
03
C6
7C
ENDCHAR
STARTCHAR 0124
ENCODING 292
SWIDTH 822 0
DWIDTH 12 0
BBX 8 14 2 0
BITMAP
18
24
00
81
81
81
81
81
FF
81
81
81
81
81
ENDCHAR
STARTCHAR 0125
ENCODING 293
SWIDTH 685 0
DWIDTH 10 0
BBX 9 14 0 0
BITMAP
6000
9000
0000
6000
6000
6000
7E00
7300
6180
6180
6180
6180
6180
6180
ENDCHAR
STARTCHAR 0126
ENCODING 294
SWIDTH 822 0
DWIDTH 12 0
BBX 12 11 0 0
BITMAP
2040
2040
FFF0
2040
2040
3FC0
2040
2040
2040
2040
2040
ENDCHAR
STARTCHAR 0127
ENCODING 295
SWIDTH 685 0
DWIDTH 10 0
BBX 9 11 0 0
BITMAP
6000
FC00
6000
7E00
7300
6180
6180
6180
6180
6180
6180
ENDCHAR
STARTCHAR 0128
ENCODING 296
SWIDTH 342 0
DWIDTH 5 0
BBX 5 14 0 0
BITMAP
C8
B0
00
20
20
20
20
20
20
20
20
20
20
20
ENDCHAR
STARTCHAR 0129
ENCODING 297
SWIDTH 274 0
DWIDTH 4 0
BBX 4 11 0 0
BITMAP
D0
B0
00
60
60
60
60
60
60
60
60
ENDCHAR
STARTCHAR 012A
ENCODING 298
SWIDTH 342 0
DWIDTH 5 0
BBX 4 13 0 0
BITMAP
F0
00
20
20
20
20
20
20
20
20
20
20
20
ENDCHAR
STARTCHAR 012B
ENCODING 299
SWIDTH 274 0
DWIDTH 4 0
BBX 4 11 0 0
BITMAP
F0
00
00
60
60
60
60
60
60
60
60
ENDCHAR
STARTCHAR 012C
ENCODING 300
SWIDTH 342 0
DWIDTH 5 0
BBX 5 14 0 0
BITMAP
88
70
00
20
20
20
20
20
20
20
20
20
20
20
ENDCHAR
STARTCHAR 012D
ENCODING 301
SWIDTH 274 0
DWIDTH 4 0
BBX 4 11 0 0
BITMAP
90
60
00
60
60
60
60
60
60
60
60
ENDCHAR
STARTCHAR 012E
ENCODING 302
SWIDTH 342 0
DWIDTH 5 0
BBX 2 14 1 -3
BITMAP
40
40
40
40
40
40
40
40
40
40
40
40
80
C0
ENDCHAR
STARTCHAR 012F
ENCODING 303
SWIDTH 274 0
DWIDTH 4 0
BBX 2 14 1 -3
BITMAP
C0
C0
00
C0
C0
C0
C0
C0
C0
C0
C0
80
80
C0
ENDCHAR
STARTCHAR 0130
ENCODING 304
SWIDTH 342 0
DWIDTH 5 0
BBX 2 14 1 0
BITMAP
40
C0
00
40
40
40
40
40
40
40
40
40
40
40
ENDCHAR
STARTCHAR 0131
ENCODING 305
SWIDTH 274 0
DWIDTH 4 0
BBX 2 8 1 0
BITMAP
C0
C0
C0
C0
C0
C0
C0
C0
ENDCHAR
STARTCHAR 0132
ENCODING 306
SWIDTH 754 0
DWIDTH 11 0
BBX 8 11 1 0
BITMAP
C1
C1
C1
C1
C1
C1
01
03
03
C6
7C
ENDCHAR
STARTCHAR 0133
ENCODING 307
SWIDTH 548 0
DWIDTH 8 0
BBX 6 14 1 -3
BITMAP
CC
CC
00
CC
CC
CC
CC
CC
CC
CC
CC
0C
0C
38
ENDCHAR
STARTCHAR 0134
ENCODING 308
SWIDTH 480 0
DWIDTH 7 0
BBX 6 14 0 0
BITMAP
38
6C
00
7C
04
04
04
04
04
04
04
0C
CC
78
ENDCHAR
STARTCHAR 0135
ENCODING 309
SWIDTH 274 0
DWIDTH 4 0
BBX 5 14 -1 -3
BITMAP
30
48
00
30
30
30
30
30
30
30
30
30
30
E0
ENDCHAR
STARTCHAR 0136
ENCODING 310
SWIDTH 685 0
DWIDTH 10 0
BBX 8 15 2 -4
BITMAP
83
86
8C
98
B0
B0
F8
CC
86
82
83
00
00
10
10
ENDCHAR
STARTCHAR 0137
ENCODING 311
SWIDTH 617 0
DWIDTH 9 0
BBX 8 15 1 -4
BITMAP
C0
C0
C0
C6
CC
D8
F8
F8
CC
C6
C3
00
00
10
10
ENDCHAR
STARTCHAR 0138
ENCODING 312
SWIDTH 617 0
DWIDTH 9 0
BBX 8 8 1 0
BITMAP
C6
CC
D8
F8
F8
CC
C6
C3
ENDCHAR
STARTCHAR 0139
ENCODING 313
SWIDTH 617 0
DWIDTH 9 0
BBX 7 14 2 0
BITMAP
40
80
00
80
80
80
80
80
80
80
80
80
80
FE
ENDCHAR
STARTCHAR 013A
ENCODING 314
SWIDTH 274 0
DWIDTH 4 0
BBX 3 14 1 0
BITMAP
60
C0
00
C0
C0
C0
C0
C0
C0
C0
C0
C0
C0
C0
ENDCHAR
STARTCHAR 013B
ENCODING 315
SWIDTH 617 0
DWIDTH 9 0
BBX 7 15 2 -4
BITMAP
80
80
80
80
80
80
80
80
80
80
FE
00
00
30
10
ENDCHAR
STARTCHAR 013C
ENCODING 316
SWIDTH 274 0
DWIDTH 4 0
BBX 2 15 1 -4
BITMAP
C0
C0
C0
C0
C0
C0
C0
C0
C0
C0
C0
00
00
C0
80
ENDCHAR
STARTCHAR 013D
ENCODING 317
SWIDTH 617 0
DWIDTH 9 0
BBX 7 11 2 0
BITMAP
88
88
88
80
80
80
80
80
80
80
FE
ENDCHAR
STARTCHAR 013E
ENCODING 318
SWIDTH 274 0
DWIDTH 4 0
BBX 4 12 1 0
BITMAP
10
D0
D0
C0
C0
C0
C0
C0
C0
C0
C0
C0
ENDCHAR
STARTCHAR 013F
ENCODING 319
SWIDTH 617 0
DWIDTH 9 0
BBX 7 11 2 0
BITMAP
80
80
80
80
88
88
80
80
80
80
FE
ENDCHAR
STARTCHAR 0140
ENCODING 320
SWIDTH 342 0
DWIDTH 5 0
BBX 4 11 1 0
BITMAP
C0
C0
C0
C0
C0
D0
D0
C0
C0
C0
C0
ENDCHAR
STARTCHAR 0141
ENCODING 321
SWIDTH 617 0
DWIDTH 9 0
BBX 9 11 0 0
BITMAP
2000
2000
2000
2800
3000
6000
E000
2000
2000
2000
3F80
ENDCHAR
STARTCHAR 0142
ENCODING 322
SWIDTH 274 0
DWIDTH 4 0
BBX 4 11 0 0
BITMAP
60
60
60
60
70
60
E0
E0
60
60
60
ENDCHAR
STARTCHAR 0143
ENCODING 323
SWIDTH 822 0
DWIDTH 12 0
BBX 8 14 2 0
BITMAP
0C
18
00
81
C1
E1
A1
B1
99
8D
8D
87
83
81
ENDCHAR
STARTCHAR 0144
ENCODING 324
SWIDTH 685 0
DWIDTH 10 0
BBX 8 11 1 0
BITMAP
0C
18
00
FC
E6
C3
C3
C3
C3
C3
C3
ENDCHAR
STARTCHAR 0145
ENCODING 325
SWIDTH 822 0
DWIDTH 12 0
BBX 8 15 2 -4
BITMAP
81
C1
E1
A1
B1
99
8D
8D
87
83
81
00
00
18
10
ENDCHAR
STARTCHAR 0146
ENCODING 326
SWIDTH 685 0
DWIDTH 10 0
BBX 8 12 1 -4
BITMAP
FC
E6
C3
C3
C3
C3
C3
C3
00
00
18
10
ENDCHAR
STARTCHAR 0147
ENCODING 327
SWIDTH 822 0
DWIDTH 12 0
BBX 8 14 2 0
BITMAP
24
18
00
81
C1
E1
A1
B1
99
8D
8D
87
83
81
ENDCHAR
STARTCHAR 0148
ENCODING 328
SWIDTH 685 0
DWIDTH 10 0
BBX 8 11 1 0
BITMAP
24
18
00
FC
E6
C3
C3
C3
C3
C3
C3
ENDCHAR
STARTCHAR 0149
ENCODING 329
SWIDTH 754 0
DWIDTH 11 0
BBX 9 11 1 0
BITMAP
8000
8000
8000
AF00
3180
2180
2080
2080
2080
2080
2080
ENDCHAR
STARTCHAR 014A
ENCODING 330
SWIDTH 822 0
DWIDTH 12 0
BBX 8 14 2 -3
BITMAP
81
C1
E1
A1
B1
99
8D
8D
87
83
81
01
13
1E
ENDCHAR
STARTCHAR 014B
ENCODING 331
SWIDTH 685 0
DWIDTH 10 0
BBX 8 11 1 -3
BITMAP
FC
E6
C3
C3
C3
C3
C3
C3
03
02
0E
ENDCHAR
STARTCHAR 014C
ENCODING 332
SWIDTH 822 0
DWIDTH 12 0
BBX 11 13 1 0
BITMAP
1F00
0000
1E00
7380
C0C0
C040
8040
8060
8040
C040
C0C0
7380
1E00
ENDCHAR
STARTCHAR 014D
ENCODING 333
SWIDTH 617 0
DWIDTH 9 0
BBX 8 11 1 0
BITMAP
7C
00
00
3C
C6
82
83
83
82
C6
3C
ENDCHAR
STARTCHAR 014E
ENCODING 334
SWIDTH 822 0
DWIDTH 12 0
BBX 11 14 1 0
BITMAP
1200
0E00
0000
1E00
7380
C0C0
C040
8040
8060
8040
C040
C0C0
7380
1E00
ENDCHAR
STARTCHAR 014F
ENCODING 335
SWIDTH 617 0
DWIDTH 9 0
BBX 8 11 1 0
BITMAP
44
38
00
3C
C6
82
83
83
82
C6
3C
ENDCHAR
STARTCHAR 0150
ENCODING 336
SWIDTH 822 0
DWIDTH 12 0
BBX 11 14 1 0
BITMAP
0D00
0A00
0000
1E00
7380
C0C0
C040
8040
8060
8040
C040
C0C0
7380
1E00
ENDCHAR
STARTCHAR 0151
ENCODING 337
SWIDTH 617 0
DWIDTH 9 0
BBX 8 11 1 0
BITMAP
16
24
00
3C
C6
82
83
83
82
C6
3C
ENDCHAR
STARTCHAR 0152
ENCODING 338
SWIDTH 1097 0
DWIDTH 16 0
BBX 15 11 1 0
BITMAP
1FFC
7180
C180
C180
8180
81FC
8180
C180
C180
7180
1FFE
ENDCHAR
STARTCHAR 0153
ENCODING 339
SWIDTH 1097 0
DWIDTH 16 0
BBX 14 8 1 0
BITMAP
3CF0
C798
830C
83FC
8300
8300
6788
3CF8
ENDCHAR
STARTCHAR 0154
ENCODING 340
SWIDTH 754 0
DWIDTH 11 0
BBX 8 14 2 0
BITMAP
0C
10
00
FC
86
83
83
83
86
FC
8C
84
86
83
ENDCHAR
STARTCHAR 0155
ENCODING 341
SWIDTH 411 0
DWIDTH 6 0
BBX 5 11 1 0
BITMAP
18
20
00
F0
E0
C0
C0
C0
C0
C0
C0
ENDCHAR
STARTCHAR 0156
ENCODING 342
SWIDTH 754 0
DWIDTH 11 0
BBX 8 15 2 -4
BITMAP
FC
86
83
83
83
86
FC
8C
84
86
83
00
00
10
10
ENDCHAR
STARTCHAR 0157
ENCODING 343
SWIDTH 411 0
DWIDTH 6 0
BBX 4 12 1 -4
BITMAP
F0
E0
C0
C0
C0
C0
C0
C0
00
00
C0
80
ENDCHAR
STARTCHAR 0158
ENCODING 344
SWIDTH 754 0
DWIDTH 11 0
BBX 8 14 2 0
BITMAP
6C
38
00
FC
86
83
83
83
86
FC
8C
84
86
83
ENDCHAR
STARTCHAR 0159
ENCODING 345
SWIDTH 411 0
DWIDTH 6 0
BBX 5 11 1 0
BITMAP
D8
70
00
F0
E0
C0
C0
C0
C0
C0
C0
ENDCHAR
STARTCHAR 015A
ENCODING 346
SWIDTH 617 0
DWIDTH 9 0
BBX 7 14 1 0
BITMAP
0C
18
00
7C
C6
80
80
C0
7C
0E
02
02
C6
7C
ENDCHAR
STARTCHAR 015B
ENCODING 347
SWIDTH 480 0
DWIDTH 7 0
BBX 6 11 1 0
BITMAP
18
20
00
78
C8
80
C0
78
0C
8C
F8
ENDCHAR
STARTCHAR 015C
ENCODING 348
SWIDTH 617 0
DWIDTH 9 0
BBX 7 14 1 0
BITMAP
18
2C
00
7C
C6
80
80
C0
7C
0E
02
02
C6
7C
ENDCHAR
STARTCHAR 015D
ENCODING 349
SWIDTH 480 0
DWIDTH 7 0
BBX 6 11 1 0
BITMAP
30
58
00
78
C8
80
C0
78
0C
8C
F8
ENDCHAR
STARTCHAR 015E
ENCODING 350
SWIDTH 617 0
DWIDTH 9 0
BBX 7 14 1 -3
BITMAP
7C
C6
80
80
C0
7C
0E
02
02
C6
7C
10
18
38
ENDCHAR
STARTCHAR 015F
ENCODING 351
SWIDTH 480 0
DWIDTH 7 0
BBX 6 11 1 -3
BITMAP
78
C8
80
C0
78
0C
8C
F8
20
30
70
ENDCHAR
STARTCHAR 0160
ENCODING 352
SWIDTH 617 0
DWIDTH 9 0
BBX 7 14 1 0
BITMAP
64
18
00
7C
C6
80
80
C0
7C
0E
02
02
C6
7C
ENDCHAR
STARTCHAR 0161
ENCODING 353
SWIDTH 480 0
DWIDTH 7 0
BBX 6 11 1 0
BITMAP
D8
70
00
78
C8
80
C0
78
0C
8C
F8
ENDCHAR
STARTCHAR 0162
ENCODING 354
SWIDTH 617 0
DWIDTH 9 0
BBX 8 14 0 -3
BITMAP
FF
08
08
08
08
08
08
08
08
08
08
08
0C
18
ENDCHAR
STARTCHAR 0163
ENCODING 355
SWIDTH 411 0
DWIDTH 6 0
BBX 6 13 0 -3
BITMAP
20
20
F8
20
20
20
20
20
20
3C
10
18
38
ENDCHAR
STARTCHAR 0164
ENCODING 356
SWIDTH 617 0
DWIDTH 9 0
BBX 8 14 0 0
BITMAP
24
18
00
FF
08
08
08
08
08
08
08
08
08
08
ENDCHAR
STARTCHAR 0165
ENCODING 357
SWIDTH 411 0
DWIDTH 6 0
BBX 6 11 0 0
BITMAP
08
28
20
F8
20
20
20
20
20
20
3C
ENDCHAR
STARTCHAR 0166
ENCODING 358
SWIDTH 617 0
DWIDTH 9 0
BBX 8 11 0 0
BITMAP
FF
08
08
08
08
7E
08
08
08
08
08
ENDCHAR
STARTCHAR 0167
ENCODING 359
SWIDTH 411 0
DWIDTH 6 0
BBX 6 10 0 0
BITMAP
20
20
F8
20
20
F8
20
20
20
3C
ENDCHAR
STARTCHAR 0168
ENCODING 360
SWIDTH 822 0
DWIDTH 12 0
BBX 9 14 1 0
BITMAP
1A00
2600
0000
C080
C080
C080
C080
C080
C080
C080
4080
4180
7300
3E00
ENDCHAR
STARTCHAR 0169
ENCODING 361
SWIDTH 685 0
DWIDTH 10 0
BBX 8 11 1 1
BITMAP
34
4C
00
C3
C3
C3
C3
C3
C3
67
3B
ENDCHAR
STARTCHAR 016A
ENCODING 362
SWIDTH 822 0
DWIDTH 12 0
BBX 9 13 1 0
BITMAP
3E00
0000
C080
C080
C080
C080
C080
C080
C080
4080
4180
7300
3E00
ENDCHAR
STARTCHAR 016B
ENCODING 363
SWIDTH 685 0
DWIDTH 10 0
BBX 8 11 1 0
BITMAP
3C
00
00
C3
C3
C3
C3
C3
C3
67
3B
ENDCHAR
STARTCHAR 016C
ENCODING 364
SWIDTH 822 0
DWIDTH 12 0
BBX 9 14 1 0
BITMAP
2200
1C00
0000
C080
C080
C080
C080
C080
C080
C080
4080
4180
7300
3E00
ENDCHAR
STARTCHAR 016D
ENCODING 365
SWIDTH 685 0
DWIDTH 10 0
BBX 8 11 1 0
BITMAP
24
3C
00
C3
C3
C3
C3
C3
C3
67
3B
ENDCHAR
STARTCHAR 016E
ENCODING 366
SWIDTH 822 0
DWIDTH 12 0
BBX 9 15 1 0
BITMAP
0C00
1400
0C00
0000
C080
C080
C080
C080
C080
C080
C080
4080
4180
7300
3E00
ENDCHAR
STARTCHAR 016F
ENCODING 367
SWIDTH 685 0
DWIDTH 10 0
BBX 8 12 1 0
BITMAP
18
28
18
00
C3
C3
C3
C3
C3
C3
67
3B
ENDCHAR
STARTCHAR 0170
ENCODING 368
SWIDTH 822 0
DWIDTH 12 0
BBX 9 14 1 0
BITMAP
0B00
1A00
0000
C080
C080
C080
C080
C080
C080
C080
4080
4180
7300
3E00
ENDCHAR
STARTCHAR 0171
ENCODING 369
SWIDTH 685 0
DWIDTH 10 0
BBX 8 11 1 0
BITMAP
12
34
00
C3
C3
C3
C3
C3
C3
67
3B
ENDCHAR
STARTCHAR 0172
ENCODING 370
SWIDTH 822 0
DWIDTH 12 0
BBX 9 14 1 -3
BITMAP
C080
C080
C080
C080
C080
C080
C080
4080
4180
7300
3E00
0800
1000
0C00
ENDCHAR
STARTCHAR 0173
ENCODING 371
SWIDTH 685 0
DWIDTH 10 0
BBX 8 11 1 -3
BITMAP
C3
C3
C3
C3
C3
C3
67
3B
06
04
07
ENDCHAR
STARTCHAR 0174
ENCODING 372
SWIDTH 1097 0
DWIDTH 16 0
BBX 15 14 1 0
BITMAP
0300
0480
0000
8306
8304
C384
468C
448C
64C8
6448
2C58
3870
3830
1830
ENDCHAR
STARTCHAR 0175
ENCODING 373
SWIDTH 891 0
DWIDTH 13 0
BBX 13 11 0 0
BITMAP
0700
0D80
0000
C208
4710
4510
6510
2DA0
28A0
38E0
1040
ENDCHAR
STARTCHAR 0176
ENCODING 374
SWIDTH 617 0
DWIDTH 9 0
BBX 9 14 0 0
BITMAP
0C00
1600
0000
C080
4180
6100
2300
3600
1C00
0C00
0800
0800
0800
0800
ENDCHAR
STARTCHAR 0177
ENCODING 375
SWIDTH 548 0
DWIDTH 8 0
BBX 8 14 0 -3
BITMAP
18
24
00
C1
43
42
66
24
3C
18
18
18
90
E0
ENDCHAR
STARTCHAR 0178
ENCODING 376
SWIDTH 617 0
DWIDTH 9 0
BBX 9 13 0 1
BITMAP
1600
0000
C080
4180
6100
2300
3600
1C00
0C00
0800
0800
0800
0800
ENDCHAR
STARTCHAR 0179
ENCODING 377
SWIDTH 685 0
DWIDTH 10 0
BBX 8 14 1 0
BITMAP
0C
18
00
FF
03
06
0C
08
18
30
60
40
C0
FF
ENDCHAR
STARTCHAR 017A
ENCODING 378
SWIDTH 548 0
DWIDTH 8 0
BBX 6 11 1 0
BITMAP
18
30
00
FC
08
18
30
20
40
C0
FC
ENDCHAR
STARTCHAR 017B
ENCODING 379
SWIDTH 685 0
DWIDTH 10 0
BBX 8 14 1 0
BITMAP
10
18
00
FF
03
06
0C
08
18
30
60
40
C0
FF
ENDCHAR
STARTCHAR 017C
ENCODING 380
SWIDTH 548 0
DWIDTH 8 0
BBX 6 11 1 0
BITMAP
30
20
00
FC
08
18
30
20
40
C0
FC
ENDCHAR
STARTCHAR 017D
ENCODING 381
SWIDTH 685 0
DWIDTH 10 0
BBX 8 14 1 0
BITMAP
24
18
00
FF
03
06
0C
08
18
30
60
40
C0
FF
ENDCHAR
STARTCHAR 017E
ENCODING 382
SWIDTH 548 0
DWIDTH 8 0
BBX 6 11 1 0
BITMAP
48
30
00
FC
08
18
30
20
40
C0
FC
ENDCHAR
STARTCHAR 017F
ENCODING 383
SWIDTH 274 0
DWIDTH 4 0
BBX 6 11 0 0
BITMAP
1C
20
20
E0
20
20
20
20
20
20
20
ENDCHAR
STARTCHAR 018F
ENCODING 399
SWIDTH 822 0
DWIDTH 12 0
BBX 10 11 1 0
BITMAP
3E00
6380
0080
00C0
0040
FFC0
8040
C0C0
C080
7380
1E00
ENDCHAR
STARTCHAR 0192
ENCODING 402
SWIDTH 480 0
DWIDTH 7 0
BBX 8 14 -1 -3
BITMAP
07
08
08
3E
18
18
18
10
10
10
10
10
30
E0
ENDCHAR
STARTCHAR 01A0
ENCODING 416
SWIDTH 822 0
DWIDTH 12 0
BBX 11 13 1 0
BITMAP
0040
0040
1FC0
7380
C0C0
C040
8040
8060
8040
C040
C0C0
7380
1E00
ENDCHAR
STARTCHAR 01A1
ENCODING 417
SWIDTH 617 0
DWIDTH 9 0
BBX 8 10 1 0
BITMAP
02
02
3E
C6
82
83
83
82
C6
3C
ENDCHAR
STARTCHAR 01AF
ENCODING 431
SWIDTH 822 0
DWIDTH 12 0
BBX 11 13 1 0
BITMAP
0040
0060
C0C0
C080
C080
C080
C080
C080
C080
4080
4180
7300
3E00
ENDCHAR
STARTCHAR 01B0
ENCODING 432
SWIDTH 685 0
DWIDTH 10 0
BBX 9 10 1 0
BITMAP
0080
0080
C300
C300
C300
C300
C300
C300
6700
3B00
ENDCHAR
STARTCHAR 01B7
ENCODING 439
SWIDTH 617 0
DWIDTH 9 0
BBX 7 11 1 0
BITMAP
FE
06
0C
18
10
3C
06
02
02
C6
7C
ENDCHAR
STARTCHAR 01C4
ENCODING 452
SWIDTH 1440 0
DWIDTH 21 0
BBX 19 14 2 0
BITMAP
000D80
000700
000000
FC3FE0
8700C0
818080
818180
808300
808600
808400
818C00
819800
871000
FC3FE0
ENDCHAR
STARTCHAR 01C5
ENCODING 453
SWIDTH 1371 0
DWIDTH 20 0
BBX 17 12 2 0
BITMAP
000900
FC0600
870000
810000
819F80
808180
808300
808600
808400
818800
871800
FC1F80
ENDCHAR
STARTCHAR 01C6
ENCODING 454
SWIDTH 1234 0
DWIDTH 18 0
BBX 16 11 1 0
BITMAP
0316
030C
0300
7B3F
C702
8306
830C
8318
8310
C730
3B7F
ENDCHAR
STARTCHAR 01C7
ENCODING 455
SWIDTH 1097 0
DWIDTH 16 0
BBX 13 11 2 0
BITMAP
80F8
8018
8018
8018
8018
8018
8018
8018
8018
8130
FEE0
ENDCHAR
STARTCHAR 01C8
ENCODING 456
SWIDTH 891 0
DWIDTH 13 0
BBX 10 15 2 -3
BITMAP
0080
80C0
8000
8000
8080
8080
8080
8080
8080
8080
8080
FE80
0080
0080
0780
ENDCHAR
STARTCHAR 01C9
ENCODING 457
SWIDTH 548 0
DWIDTH 8 0
BBX 6 14 1 -3
BITMAP
CC
CC
C0
CC
CC
CC
CC
CC
CC
CC
CC
0C
0C
38
ENDCHAR
STARTCHAR 01CA
ENCODING 458
SWIDTH 1302 0
DWIDTH 19 0
BBX 16 11 2 0
BITMAP
811F
C103
E103
A103
B103
9903
8D03
8503
8723
8332
811E
ENDCHAR
STARTCHAR 01CB
ENCODING 459
SWIDTH 1097 0
DWIDTH 16 0
BBX 13 15 2 -3
BITMAP
0018
8118
C100
E100
E118
B118
9918
8918
8D18
8718
8318
8118
0018
0010
0070
ENDCHAR
STARTCHAR 01CC
ENCODING 460
SWIDTH 960 0
DWIDTH 14 0
BBX 12 14 1 -3
BITMAP
0030
0030
0000
FC30
E630
C330
C330
C330
C330
C330
C330
0030
0030
00E0
ENDCHAR
STARTCHAR 01CD
ENCODING 461
SWIDTH 754 0
DWIDTH 11 0
BBX 10 14 0 0
BITMAP
1300
0E00
0000
0C00
0E00
0A00
1B00
1100
3100
2180
7F80
40C0
4040
C040
ENDCHAR
STARTCHAR 01CE
ENCODING 462
SWIDTH 617 0
DWIDTH 9 0
BBX 6 11 1 0
BITMAP
48
30
00
78
8C
04
7C
84
84
CC
74
ENDCHAR
STARTCHAR 01D3
ENCODING 467
SWIDTH 822 0
DWIDTH 12 0
BBX 9 14 1 0
BITMAP
1200
0C00
0000
C080
C080
C080
C080
C080
C080
C080
4080
4180
7300
3E00
ENDCHAR
STARTCHAR 01D4
ENCODING 468
SWIDTH 685 0
DWIDTH 10 0
BBX 8 11 1 0
BITMAP
24
18
00
C3
C3
C3
C3
C3
C3
67
3B
ENDCHAR
STARTCHAR 01E4
ENCODING 484
SWIDTH 822 0
DWIDTH 12 0
BBX 10 11 1 0
BITMAP
1E00
7380
4000
C000
8000
8000
8080
C7C0
C080
7180
1F00
ENDCHAR
STARTCHAR 01E5
ENCODING 485
SWIDTH 685 0
DWIDTH 10 0
BBX 9 11 1 -3
BITMAP
7F00
C700
8300
8300
8300
C700
7F00
0300
1F80
C600
7C00
ENDCHAR
STARTCHAR 01E6
ENCODING 486
SWIDTH 754 0
DWIDTH 11 0
BBX 9 14 1 0
BITMAP
1200
0C00
0000
1E00
7180
C000
C000
8000
8080
8080
C080
C080
7180
1F00
ENDCHAR
STARTCHAR 01E7
ENCODING 487
SWIDTH 685 0
DWIDTH 10 0
BBX 8 14 1 -3
BITMAP
24
18
00
3B
C7
83
83
83
83
C7
3B
03
C6
7C
ENDCHAR
STARTCHAR 01E8
ENCODING 488
SWIDTH 685 0
DWIDTH 10 0
BBX 8 14 2 0
BITMAP
6C
38
00
83
86
8C
98
B0
B0
F8
CC
86
82
83
ENDCHAR
STARTCHAR 01E9
ENCODING 489
SWIDTH 617 0
DWIDTH 9 0
BBX 9 14 0 0
BITMAP
9000
6000
0000
6000
6000
6000
6300
6600
6C00
7C00
7C00
6600
6300
6180
ENDCHAR
STARTCHAR 01EA
ENCODING 490
SWIDTH 822 0
DWIDTH 12 0
BBX 11 14 1 -3
BITMAP
1E00
7380
C0C0
C040
8040
8060
8040
C040
C0C0
7380
1F00
0800
1000
0C00
ENDCHAR
STARTCHAR 01EB
ENCODING 491
SWIDTH 617 0
DWIDTH 9 0
BBX 8 11 1 -3
BITMAP
3C
C6
82
83
83
82
C6
3C
10
20
18
ENDCHAR
STARTCHAR 01EE
ENCODING 494
SWIDTH 617 0
DWIDTH 9 0
BBX 7 14 1 0
BITMAP
6C
38
00
FE
06
0C
18
10
3C
06
02
02
C6
7C
ENDCHAR
STARTCHAR 01EF
ENCODING 495
SWIDTH 548 0
DWIDTH 8 0
BBX 7 14 0 -3
BITMAP
68
30
00
FE
04
0C
18
10
3C
06
02
02
C6
7C
ENDCHAR
STARTCHAR 01FA
ENCODING 506
SWIDTH 754 0
DWIDTH 11 0
BBX 10 16 0 0
BITMAP
0100
0E00
1200
0E00
0000
0C00
0E00
0A00
1B00
1100
3100
2180
7F80
40C0
4040
C040
ENDCHAR
STARTCHAR 01FB
ENCODING 507
SWIDTH 617 0
DWIDTH 9 0
BBX 6 13 1 0
BITMAP
04
38
48
30
00
78
8C
04
7C
84
84
CC
74
ENDCHAR
STARTCHAR 01FC
ENCODING 508
SWIDTH 1028 0
DWIDTH 15 0
BBX 14 14 0 0
BITMAP
00C0
0180
0000
03FC
0700
0500
0D00
0900
11FC
3100
3F00
6100
4100
C1FC
ENDCHAR
STARTCHAR 01FD
ENCODING 509
SWIDTH 960 0
DWIDTH 14 0
BBX 13 11 1 0
BITMAP
0300
0600
0000
79E0
8F30
0618
7FF8
8600
8600
CF30
79E0
ENDCHAR
STARTCHAR 01FE
ENCODING 510
SWIDTH 822 0
DWIDTH 12 0
BBX 11 15 1 -1
BITMAP
0200
0400
0040
1F80
7380
C1C0
C240
8440
8460
8840
D040
D0C0
7380
5E00
C000
ENDCHAR
STARTCHAR 01FF
ENCODING 511
SWIDTH 617 0
DWIDTH 9 0
BBX 8 12 1 -1
BITMAP
0C
10
02
3C
C6
8A
93
93
A2
C6
7C
80
ENDCHAR
STARTCHAR 0200
ENCODING 512
SWIDTH 754 0
DWIDTH 11 0
BBX 10 14 0 0
BITMAP
3400
1200
0000
0C00
0E00
0A00
1B00
1100
3100
2180
7F80
40C0
4040
C040
ENDCHAR
STARTCHAR 0201
ENCODING 513
SWIDTH 617 0
DWIDTH 9 0
BBX 6 11 1 0
BITMAP
D0
58
00
78
8C
04
7C
84
84
CC
74
ENDCHAR
STARTCHAR 0202
ENCODING 514
SWIDTH 754 0
DWIDTH 11 0
BBX 10 14 0 0
BITMAP
0E00
1300
0000
0C00
0E00
0A00
1B00
1100
3100
2180
7F80
40C0
4040
C040
ENDCHAR
STARTCHAR 0203
ENCODING 515
SWIDTH 617 0
DWIDTH 9 0
BBX 6 11 1 0
BITMAP
38
44
00
78
8C
04
7C
84
84
CC
74
ENDCHAR
STARTCHAR 0204
ENCODING 516
SWIDTH 685 0
DWIDTH 10 0
BBX 7 14 2 0
BITMAP
90
58
00
FE
80
80
80
80
FC
80
80
80
80
FE
ENDCHAR
STARTCHAR 0205
ENCODING 517
SWIDTH 617 0
DWIDTH 9 0
BBX 7 11 1 0
BITMAP
D0
48
00
7C
C6
82
FE
80
80
66
3C
ENDCHAR
STARTCHAR 0206
ENCODING 518
SWIDTH 685 0
DWIDTH 10 0
BBX 7 14 2 0
BITMAP
30
48
00
FE
80
80
80
80
FC
80
80
80
80
FE
ENDCHAR
STARTCHAR 0207
ENCODING 519
SWIDTH 617 0
DWIDTH 9 0
BBX 7 11 1 0
BITMAP
38
44
00
7C
C6
82
FE
80
80
66
3C
ENDCHAR
STARTCHAR 0208
ENCODING 520
SWIDTH 342 0
DWIDTH 5 0
BBX 5 14 -1 0
BITMAP
D0
48
00
10
10
10
10
10
10
10
10
10
10
10
ENDCHAR
STARTCHAR 0209
ENCODING 521
SWIDTH 274 0
DWIDTH 4 0
BBX 5 11 -1 0
BITMAP
90
58
00
30
30
30
30
30
30
30
30
ENDCHAR
STARTCHAR 020A
ENCODING 522
SWIDTH 342 0
DWIDTH 5 0
BBX 4 14 0 0
BITMAP
70
90
00
20
20
20
20
20
20
20
20
20
20
20
ENDCHAR
STARTCHAR 020B
ENCODING 523
SWIDTH 274 0
DWIDTH 4 0
BBX 4 11 0 0
BITMAP
60
90
00
60
60
60
60
60
60
60
60
ENDCHAR
STARTCHAR 020C
ENCODING 524
SWIDTH 822 0
DWIDTH 12 0
BBX 11 14 1 0
BITMAP
2400
1600
0000
1E00
7380
C0C0
C040
8040
8060
8040
C040
C0C0
7380
1E00
ENDCHAR
STARTCHAR 020D
ENCODING 525
SWIDTH 617 0
DWIDTH 9 0
BBX 8 11 1 0
BITMAP
D0
68
00
3C
C6
82
83
83
82
C6
3C
ENDCHAR
STARTCHAR 020E
ENCODING 526
SWIDTH 822 0
DWIDTH 12 0
BBX 11 14 1 0
BITMAP
0C00
1200
0000
1E00
7380
C0C0
C040
8040
8060
8040
C040
C0C0
7380
1E00
ENDCHAR
STARTCHAR 020F
ENCODING 527
SWIDTH 617 0
DWIDTH 9 0
BBX 8 11 1 0
BITMAP
38
44
00
3C
C6
82
83
83
82
C6
3C
ENDCHAR
STARTCHAR 0210
ENCODING 528
SWIDTH 754 0
DWIDTH 11 0
BBX 8 14 2 0
BITMAP
D0
48
00
FC
86
83
83
83
86
FC
8C
84
86
83
ENDCHAR
STARTCHAR 0211
ENCODING 529
SWIDTH 411 0
DWIDTH 6 0
BBX 5 11 0 0
BITMAP
D0
48
00
78
70
60
60
60
60
60
60
ENDCHAR
STARTCHAR 0212
ENCODING 530
SWIDTH 754 0
DWIDTH 11 0
BBX 8 14 2 0
BITMAP
38
44
00
FC
86
83
83
83
86
FC
8C
84
86
83
ENDCHAR
STARTCHAR 0213
ENCODING 531
SWIDTH 411 0
DWIDTH 6 0
BBX 5 11 1 0
BITMAP
70
88
00
F0
E0
C0
C0
C0
C0
C0
C0
ENDCHAR
STARTCHAR 0214
ENCODING 532
SWIDTH 822 0
DWIDTH 12 0
BBX 9 14 1 0
BITMAP
2C00
3400
0000
C080
C080
C080
C080
C080
C080
C080
4080
4180
7300
3E00
ENDCHAR
STARTCHAR 0215
ENCODING 533
SWIDTH 685 0
DWIDTH 10 0
BBX 8 11 1 0
BITMAP
58
28
00
C3
C3
C3
C3
C3
C3
67
3B
ENDCHAR
STARTCHAR 0216
ENCODING 534
SWIDTH 822 0
DWIDTH 12 0
BBX 9 14 1 0
BITMAP
1C00
1200
0000
C080
C080
C080
C080
C080
C080
C080
4080
4180
7300
3E00
ENDCHAR
STARTCHAR 0217
ENCODING 535
SWIDTH 685 0
DWIDTH 10 0
BBX 8 11 1 0
BITMAP
3C
24
00
C3
C3
C3
C3
C3
C3
67
3B
ENDCHAR
STARTCHAR 0218
ENCODING 536
SWIDTH 617 0
DWIDTH 9 0
BBX 7 14 1 -3
BITMAP
7C
C6
80
80
C0
7C
0E
02
02
C6
7C
00
10
10
ENDCHAR
STARTCHAR 0219
ENCODING 537
SWIDTH 480 0
DWIDTH 7 0
BBX 6 12 1 -4
BITMAP
78
C8
80
C0
78
0C
8C
F8
00
00
20
20
ENDCHAR
STARTCHAR 021A
ENCODING 538
SWIDTH 617 0
DWIDTH 9 0
BBX 8 15 0 -4
BITMAP
FF
08
08
08
08
08
08
08
08
08
08
00
00
08
08
ENDCHAR
STARTCHAR 021B
ENCODING 539
SWIDTH 411 0
DWIDTH 6 0
BBX 6 14 0 -4
BITMAP
20
20
F8
20
20
20
20
20
20
3C
00
00
10
10
ENDCHAR
STARTCHAR 021E
ENCODING 542
SWIDTH 822 0
DWIDTH 12 0
BBX 8 14 2 0
BITMAP
24
18
00
81
81
81
81
81
FF
81
81
81
81
81
ENDCHAR
STARTCHAR 021F
ENCODING 543
SWIDTH 685 0
DWIDTH 10 0
BBX 9 14 0 0
BITMAP
9000
6000
0000
6000
6000
6000
7E00
7300
6180
6180
6180
6180
6180
6180
ENDCHAR
STARTCHAR 022A
ENCODING 554
SWIDTH 822 0
DWIDTH 12 0
BBX 11 15 1 0
BITMAP
1F00
0000
1200
0000
1E00
7380
C0C0
C040
8040
8060
8040
C040
C0C0
7380
1E00
ENDCHAR
STARTCHAR 022B
ENCODING 555
SWIDTH 617 0
DWIDTH 9 0
BBX 8 12 1 0
BITMAP
7C
00
2C
00
3C
C6
82
83
83
82
C6
3C
ENDCHAR
STARTCHAR 022C
ENCODING 556
SWIDTH 822 0
DWIDTH 12 0
BBX 11 15 1 0
BITMAP
1F00
0000
1E00
0000
1E00
7380
C0C0
C040
8040
8060
8040
C040
C0C0
7380
1E00
ENDCHAR
STARTCHAR 022D
ENCODING 557
SWIDTH 617 0
DWIDTH 9 0
BBX 8 13 1 0
BITMAP
7C
00
34
48
00
3C
C6
82
83
83
82
C6
3C
ENDCHAR
STARTCHAR 0230
ENCODING 560
SWIDTH 822 0
DWIDTH 12 0
BBX 11 15 1 0
BITMAP
1F00
0000
0C00
0000
1E00
7380
C0C0
C040
8040
8060
8040
C040
C0C0
7380
1E00
ENDCHAR
STARTCHAR 0231
ENCODING 561
SWIDTH 617 0
DWIDTH 9 0
BBX 8 12 1 0
BITMAP
7C
00
10
00
3C
C6
82
83
83
82
C6
3C
ENDCHAR
STARTCHAR 0232
ENCODING 562
SWIDTH 617 0
DWIDTH 9 0
BBX 9 13 0 0
BITMAP
3E00
0000
C080
4180
6100
2300
3600
1C00
0C00
0800
0800
0800
0800
ENDCHAR
STARTCHAR 0233
ENCODING 563
SWIDTH 548 0
DWIDTH 8 0
BBX 8 14 0 -3
BITMAP
7C
00
00
C1
43
42
66
24
3C
18
18
18
90
E0
ENDCHAR
STARTCHAR 0237
ENCODING 567
SWIDTH 274 0
DWIDTH 4 0
BBX 4 11 -1 -3
BITMAP
30
30
30
30
30
30
30
30
30
30
E0
ENDCHAR
STARTCHAR 0259
ENCODING 601
SWIDTH 617 0
DWIDTH 9 0
BBX 7 8 1 0
BITMAP
78
CC
06
02
FE
82
C6
78
ENDCHAR
STARTCHAR 0292
ENCODING 658
SWIDTH 548 0
DWIDTH 8 0
BBX 7 11 0 -3
BITMAP
FE
04
0C
18
10
3C
06
02
02
C6
7C
ENDCHAR
STARTCHAR 02B9
ENCODING 697
SWIDTH 205 0
DWIDTH 3 0
BBX 1 4 1 7
BITMAP
80
80
80
80
ENDCHAR
STARTCHAR 02BA
ENCODING 698
SWIDTH 411 0
DWIDTH 6 0
BBX 4 4 1 7
BITMAP
90
90
90
90
ENDCHAR
STARTCHAR 02BB
ENCODING 699
SWIDTH 274 0
DWIDTH 4 0
BBX 2 4 1 9
BITMAP
40
80
C0
C0
ENDCHAR
STARTCHAR 02BC
ENCODING 700
SWIDTH 205 0
DWIDTH 3 0
BBX 1 4 1 7
BITMAP
80
80
80
80
ENDCHAR
STARTCHAR 02BE
ENCODING 702
SWIDTH 617 0
DWIDTH 9 0
BBX 2 4 4 8
BITMAP
C0
40
40
80
ENDCHAR
STARTCHAR 02BF
ENCODING 703
SWIDTH 617 0
DWIDTH 9 0
BBX 1 3 3 8
BITMAP
80
80
80
ENDCHAR
STARTCHAR 02C6
ENCODING 710
SWIDTH 617 0
DWIDTH 9 0
BBX 4 2 2 9
BITMAP
60
D0
ENDCHAR
STARTCHAR 02C7
ENCODING 711
SWIDTH 617 0
DWIDTH 9 0
BBX 5 2 2 9
BITMAP
98
70
ENDCHAR
STARTCHAR 02C8
ENCODING 712
SWIDTH 205 0
DWIDTH 3 0
BBX 1 3 1 8
BITMAP
80
80
80
ENDCHAR
STARTCHAR 02C9
ENCODING 713
SWIDTH 617 0
DWIDTH 9 0
BBX 5 1 2 10
BITMAP
F8
ENDCHAR
STARTCHAR 02CA
ENCODING 714
SWIDTH 617 0
DWIDTH 9 0
BBX 3 2 4 9
BITMAP
60
80
ENDCHAR
STARTCHAR 02CB
ENCODING 715
SWIDTH 617 0
DWIDTH 9 0
BBX 3 2 2 9
BITMAP
C0
60
ENDCHAR
STARTCHAR 02CC
ENCODING 716
SWIDTH 205 0
DWIDTH 3 0
BBX 1 3 1 -3
BITMAP
80
80
80
ENDCHAR
STARTCHAR 02D8
ENCODING 728
SWIDTH 617 0
DWIDTH 9 0
BBX 5 2 2 9
BITMAP
88
70
ENDCHAR
STARTCHAR 02D9
ENCODING 729
SWIDTH 617 0
DWIDTH 9 0
BBX 1 2 4 9
BITMAP
80
80
ENDCHAR
STARTCHAR 02DA
ENCODING 730
SWIDTH 617 0
DWIDTH 9 0
BBX 3 4 3 8
BITMAP
C0
A0
A0
40
ENDCHAR
STARTCHAR 02DB
ENCODING 731
SWIDTH 617 0
DWIDTH 9 0
BBX 3 3 2 -3
BITMAP
C0
80
E0
ENDCHAR
STARTCHAR 02DC
ENCODING 732
SWIDTH 617 0
DWIDTH 9 0
BBX 5 2 2 9
BITMAP
C8
B0
ENDCHAR
STARTCHAR 02DD
ENCODING 733
SWIDTH 617 0
DWIDTH 9 0
BBX 4 2 3 9
BITMAP
50
B0
ENDCHAR
STARTCHAR 0300
ENCODING 768
SWIDTH 0 0
DWIDTH 0 0
BBX 3 2 -7 9
BITMAP
C0
20
ENDCHAR
STARTCHAR 0301
ENCODING 769
SWIDTH 0 0
DWIDTH 0 0
BBX 3 2 -5 9
BITMAP
60
80
ENDCHAR
STARTCHAR 0302
ENCODING 770
SWIDTH 0 0
DWIDTH 0 0
BBX 4 2 -6 9
BITMAP
60
B0
ENDCHAR
STARTCHAR 0303
ENCODING 771
SWIDTH 0 0
DWIDTH 0 0
BBX 5 2 -7 9
BITMAP
68
98
ENDCHAR
STARTCHAR 0304
ENCODING 772
SWIDTH 0 0
DWIDTH 0 0
BBX 5 1 -7 10
BITMAP
F8
ENDCHAR
STARTCHAR 0306
ENCODING 774
SWIDTH 0 0
DWIDTH 0 0
BBX 5 2 -7 9
BITMAP
88
70
ENDCHAR
STARTCHAR 0307
ENCODING 775
SWIDTH 0 0
DWIDTH 0 0
BBX 1 2 -5 9
BITMAP
80
80
ENDCHAR
STARTCHAR 0308
ENCODING 776
SWIDTH 0 0
DWIDTH 0 0
BBX 4 1 -6 10
BITMAP
B0
ENDCHAR
STARTCHAR 0309
ENCODING 777
SWIDTH 0 0
DWIDTH 0 0
BBX 3 3 -6 9
BITMAP
E0
20
20
ENDCHAR
STARTCHAR 030A
ENCODING 778
SWIDTH 0 0
DWIDTH 0 0
BBX 3 4 -6 8
BITMAP
E0
A0
A0
40
ENDCHAR
STARTCHAR 030B
ENCODING 779
SWIDTH 0 0
DWIDTH 0 0
BBX 5 2 -6 9
BITMAP
58
90
ENDCHAR
STARTCHAR 030C
ENCODING 780
SWIDTH 0 0
DWIDTH 0 0
BBX 5 2 -7 9
BITMAP
D8
70
ENDCHAR
STARTCHAR 030F
ENCODING 783
SWIDTH 0 0
DWIDTH 0 0
BBX 5 2 -8 9
BITMAP
D0
68
ENDCHAR
STARTCHAR 0311
ENCODING 785
SWIDTH 0 0
DWIDTH 0 0
BBX 5 2 -7 9
BITMAP
70
88
ENDCHAR
STARTCHAR 0312
ENCODING 786
SWIDTH 0 0
DWIDTH 0 0
BBX 1 3 -5 9
BITMAP
80
80
80
ENDCHAR
STARTCHAR 031B
ENCODING 795
SWIDTH 0 0
DWIDTH 0 0
BBX 3 3 -5 7
BITMAP
40
60
C0
ENDCHAR
STARTCHAR 0323
ENCODING 803
SWIDTH 0 0
DWIDTH 0 0
BBX 1 1 -5 -3
BITMAP
80
ENDCHAR
STARTCHAR 0324
ENCODING 804
SWIDTH 0 0
DWIDTH 0 0
BBX 4 1 -6 -3
BITMAP
B0
ENDCHAR
STARTCHAR 0326
ENCODING 806
SWIDTH 0 0
DWIDTH 0 0
BBX 1 2 -5 -4
BITMAP
80
80
ENDCHAR
STARTCHAR 0327
ENCODING 807
SWIDTH 0 0
DWIDTH 0 0
BBX 3 3 -6 -3
BITMAP
40
20
E0
ENDCHAR
STARTCHAR 0328
ENCODING 808
SWIDTH 0 0
DWIDTH 0 0
BBX 3 3 -7 -3
BITMAP
C0
80
E0
ENDCHAR
STARTCHAR 032E
ENCODING 814
SWIDTH 0 0
DWIDTH 0 0
BBX 5 2 -7 -3
BITMAP
88
70
ENDCHAR
STARTCHAR 0331
ENCODING 817
SWIDTH 0 0
DWIDTH 0 0
BBX 5 1 -7 -3
BITMAP
F8
ENDCHAR
STARTCHAR 0335
ENCODING 821
SWIDTH 0 0
DWIDTH 0 0
BBX 6 1 -7 6
BITMAP
FC
ENDCHAR
STARTCHAR 0336
ENCODING 822
SWIDTH 0 0
DWIDTH 0 0
BBX 12 1 -12 6
BITMAP
FFF0
ENDCHAR
STARTCHAR 0337
ENCODING 823
SWIDTH 0 0
DWIDTH 0 0
BBX 4 4 -5 4
BITMAP
10
30
C0
80
ENDCHAR
STARTCHAR 0338
ENCODING 824
SWIDTH 0 0
DWIDTH 0 0
BBX 7 10 -8 -1
BITMAP
02
04
04
08
10
10
20
40
40
80
ENDCHAR
STARTCHAR 0394
ENCODING 916
SWIDTH 754 0
DWIDTH 11 0
BBX 10 11 0 0
BITMAP
0C00
0E00
0A00
1B00
1100
3100
2180
6080
60C0
40C0
FFC0
ENDCHAR
STARTCHAR 03A9
ENCODING 937
SWIDTH 891 0
DWIDTH 13 0
BBX 13 11 0 0
BITMAP
0F80
18C0
3060
6030
6030
6030
6030
6030
3060
18C0
F8F8
ENDCHAR
STARTCHAR 03BC
ENCODING 956
SWIDTH 685 0
DWIDTH 10 0
BBX 8 11 1 -3
BITMAP
C3
C3
C3
C3
C3
C3
E7
FF
C0
C0
C0
ENDCHAR
STARTCHAR 03C0
ENCODING 960
SWIDTH 754 0
DWIDTH 11 0
BBX 10 8 0 0
BITMAP
7FC0
9900
9900
9100
1100
1100
1100
1100
ENDCHAR
STARTCHAR 0400
ENCODING 1024
SWIDTH 685 0
DWIDTH 10 0
BBX 7 14 2 0
BITMAP
60
30
00
FE
80
80
80
80
FC
80
80
80
80
FE
ENDCHAR
STARTCHAR 0401
ENCODING 1025
SWIDTH 685 0
DWIDTH 10 0
BBX 7 13 2 1
BITMAP
68
00
FE
80
80
80
80
FC
80
80
80
80
FE
ENDCHAR
STARTCHAR 0402
ENCODING 1026
SWIDTH 822 0
DWIDTH 12 0
BBX 12 11 0 0
BITMAP
FF80
0800
0800
0800
0FC0
0C60
0820
0830
0820
0860
09C0
ENDCHAR
STARTCHAR 0403
ENCODING 1027
SWIDTH 548 0
DWIDTH 8 0
BBX 6 14 2 0
BITMAP
18
30
00
FC
80
80
80
80
80
80
80
80
80
80
ENDCHAR
STARTCHAR 0404
ENCODING 1028
SWIDTH 685 0
DWIDTH 10 0
BBX 9 11 1 0
BITMAP
1E00
7380
4000
C000
8000
FC00
8000
C000
4000
7380
1E00
ENDCHAR
STARTCHAR 0405
ENCODING 1029
SWIDTH 617 0
DWIDTH 9 0
BBX 8 11 1 0
BITMAP
7C
C6
80
80
C0
7C
0E
03
03
C6
7C
ENDCHAR
STARTCHAR 0406
ENCODING 1030
SWIDTH 342 0
DWIDTH 5 0
BBX 1 11 2 0
BITMAP
80
80
80
80
80
80
80
80
80
80
80
ENDCHAR
STARTCHAR 0407
ENCODING 1031
SWIDTH 342 0
DWIDTH 5 0
BBX 4 13 0 1
BITMAP
D0
00
20
20
20
20
20
20
20
20
20
20
20
ENDCHAR
STARTCHAR 0408
ENCODING 1032
SWIDTH 548 0
DWIDTH 8 0
BBX 6 11 0 0
BITMAP
7C
04
04
04
04
04
04
04
04
CC
78
ENDCHAR
STARTCHAR 0409
ENCODING 1033
SWIDTH 1165 0
DWIDTH 17 0
BBX 17 11 0 0
BITMAP
1FC000
10C000
10C000
10C000
10FE00
10C100
30C180
30C180
20C180
60C300
C0FE00
ENDCHAR
STARTCHAR 040A
ENCODING 1034
SWIDTH 1165 0
DWIDTH 17 0
BBX 15 11 2 0
BITMAP
8100
8100
8100
8100
8100
FFFC
8104
8106
8106
810C
81F8
ENDCHAR
STARTCHAR 040B
ENCODING 1035
SWIDTH 822 0
DWIDTH 12 0
BBX 12 11 0 0
BITMAP
FF80
0800
0800
0800
0800
0FE0
0860
0830
0830
0830
0830
ENDCHAR
STARTCHAR 040C
ENCODING 1036
SWIDTH 685 0
DWIDTH 10 0
BBX 8 14 2 0
BITMAP
08
10
00
83
86
84
88
98
F0
98
8C
84
86
83
ENDCHAR
STARTCHAR 040D
ENCODING 1037
SWIDTH 822 0
DWIDTH 12 0
BBX 8 14 2 0
BITMAP
20
18
00
81
83
87
85
8D
99
B1
A1
E1
C1
81
ENDCHAR
STARTCHAR 040E
ENCODING 1038
SWIDTH 685 0
DWIDTH 10 0
BBX 10 14 0 0
BITMAP
3200
1E00
0000
C0C0
6080
6180
2100
3300
1200
1E00
0C00
0C00
1800
7000
ENDCHAR
STARTCHAR 040F
ENCODING 1039
SWIDTH 822 0
DWIDTH 12 0
BBX 8 13 2 -2
BITMAP
81
81
81
81
81
81
81
81
81
81
FF
18
18
ENDCHAR
STARTCHAR 0410
ENCODING 1040
SWIDTH 754 0
DWIDTH 11 0
BBX 11 11 0 0
BITMAP
0400
0E00
0A00
1B00
1100
3180
2080
3F80
60C0
4040
C060
ENDCHAR
STARTCHAR 0411
ENCODING 1041
SWIDTH 754 0
DWIDTH 11 0
BBX 8 11 2 0
BITMAP
FE
80
80
80
80
FE
83
83
83
83
FC
ENDCHAR
STARTCHAR 0412
ENCODING 1042
SWIDTH 754 0
DWIDTH 11 0
BBX 8 11 2 0
BITMAP
FC
86
83
82
86
FC
83
81
83
83
FE
ENDCHAR
STARTCHAR 0413
ENCODING 1043
SWIDTH 548 0
DWIDTH 8 0
BBX 6 11 2 0
BITMAP
FC
80
80
80
80
80
80
80
80
80
80
ENDCHAR
STARTCHAR 0414
ENCODING 1044
SWIDTH 822 0
DWIDTH 12 0
BBX 11 13 0 -2
BITMAP
1FC0
10C0
10C0
10C0
30C0
30C0
30C0
20C0
20C0
60C0
FFE0
C020
C020
ENDCHAR
STARTCHAR 0415
ENCODING 1045
SWIDTH 685 0
DWIDTH 10 0
BBX 7 11 2 0
BITMAP
FE
80
80
80
80
FC
80
80
80
80
FE
ENDCHAR
STARTCHAR 0416
ENCODING 1046
SWIDTH 1028 0
DWIDTH 15 0
BBX 13 11 1 0
BITMAP
8208
C218
6230
2220
3260
3FE0
3260
6230
4210
C218
8208
ENDCHAR
STARTCHAR 0417
ENCODING 1047
SWIDTH 617 0
DWIDTH 9 0
BBX 7 11 1 0
BITMAP
78
CE
06
02
06
7C
06
02
02
C6
7C
ENDCHAR
STARTCHAR 0418
ENCODING 1048
SWIDTH 822 0
DWIDTH 12 0
BBX 8 11 2 0
BITMAP
81
83
87
85
8D
99
B1
A1
E1
C1
81
ENDCHAR
STARTCHAR 0419
ENCODING 1049
SWIDTH 822 0
DWIDTH 12 0
BBX 8 14 2 0
BITMAP
24
3C
00
81
83
87
85
8D
99
B1
A1
E1
C1
81
ENDCHAR
STARTCHAR 041A
ENCODING 1050
SWIDTH 685 0
DWIDTH 10 0
BBX 8 11 2 0
BITMAP
83
86
84
88
98
F0
98
8C
84
86
83
ENDCHAR
STARTCHAR 041B
ENCODING 1051
SWIDTH 822 0
DWIDTH 12 0
BBX 10 11 0 0
BITMAP
1FC0
10C0
10C0
10C0
10C0
10C0
30C0
30C0
20C0
60C0
C0C0
ENDCHAR
STARTCHAR 041C
ENCODING 1052
SWIDTH 960 0
DWIDTH 14 0
BBX 10 11 2 0
BITMAP
8040
C0C0
C0C0
E1C0
A140
B340
9240
9E40
8C40
8040
8040
ENDCHAR
STARTCHAR 041D
ENCODING 1053
SWIDTH 822 0
DWIDTH 12 0
BBX 8 11 2 0
BITMAP
81
81
81
81
81
FF
81
81
81
81
81
ENDCHAR
STARTCHAR 041E
ENCODING 1054
SWIDTH 822 0
DWIDTH 12 0
BBX 11 11 1 0
BITMAP
1F00
7380
40C0
C040
8060
8060
8060
C040
40C0
7380
1F00
ENDCHAR
STARTCHAR 041F
ENCODING 1055
SWIDTH 822 0
DWIDTH 12 0
BBX 8 11 2 0
BITMAP
FF
81
81
81
81
81
81
81
81
81
81
ENDCHAR
STARTCHAR 0420
ENCODING 1056
SWIDTH 685 0
DWIDTH 10 0
BBX 8 11 2 0
BITMAP
FC
86
83
83
83
86
FC
80
80
80
80
ENDCHAR
STARTCHAR 0421
ENCODING 1057
SWIDTH 685 0
DWIDTH 10 0
BBX 9 11 1 0
BITMAP
1F00
7380
4000
C000
8000
8000
8000
C000
4000
7380
1F00
ENDCHAR
STARTCHAR 0422
ENCODING 1058
SWIDTH 617 0
DWIDTH 9 0
BBX 9 11 0 0
BITMAP
FF80
0800
0800
0800
0800
0800
0800
0800
0800
0800
0800
ENDCHAR
STARTCHAR 0423
ENCODING 1059
SWIDTH 685 0
DWIDTH 10 0
BBX 10 11 0 0
BITMAP
C0C0
6080
6180
2100
3300
1200
1E00
0C00
0C00
1800
7000
ENDCHAR
STARTCHAR 0424
ENCODING 1060
SWIDTH 960 0
DWIDTH 14 0
BBX 12 10 1 0
BITMAP
0400
3F80
6460
8430
8430
8430
8430
6460
3FC0
0400
ENDCHAR
STARTCHAR 0425
ENCODING 1061
SWIDTH 685 0
DWIDTH 10 0
BBX 8 11 1 0
BITMAP
83
C2
66
2C
38
18
3C
2C
66
C3
83
ENDCHAR
STARTCHAR 0426
ENCODING 1062
SWIDTH 822 0
DWIDTH 12 0
BBX 10 13 2 -2
BITMAP
8100
8100
8100
8100
8100
8100
8100
8100
8100
8100
FFC0
00C0
00C0
ENDCHAR
STARTCHAR 0427
ENCODING 1063
SWIDTH 754 0
DWIDTH 11 0
BBX 8 11 1 0
BITMAP
81
81
81
81
81
C3
7F
01
01
01
01
ENDCHAR
STARTCHAR 0428
ENCODING 1064
SWIDTH 1097 0
DWIDTH 16 0
BBX 12 11 2 0
BITMAP
8610
8610
8610
8610
8610
8610
8610
8610
8610
8610
FFF0
ENDCHAR
STARTCHAR 0429
ENCODING 1065
SWIDTH 1097 0
DWIDTH 16 0
BBX 14 13 2 -2
BITMAP
8610
8610
8610
8610
8610
8610
8610
8610
8610
8610
FFFC
0004
0004
ENDCHAR
STARTCHAR 042A
ENCODING 1066
SWIDTH 822 0
DWIDTH 12 0
BBX 11 11 0 0
BITMAP
F800
1800
1800
1800
1FC0
1860
1820
1820
1820
1860
1FC0
ENDCHAR
STARTCHAR 042B
ENCODING 1067
SWIDTH 960 0
DWIDTH 14 0
BBX 11 11 2 0
BITMAP
8060
8060
8060
8060
FE60
8260
8360
8360
8360
8660
FC60
ENDCHAR
STARTCHAR 042C
ENCODING 1068
SWIDTH 685 0
DWIDTH 10 0
BBX 8 11 2 0
BITMAP
80
80
80
80
FE
82
83
83
83
86
FC
ENDCHAR
STARTCHAR 042D
ENCODING 1069
SWIDTH 685 0
DWIDTH 10 0
BBX 9 11 1 0
BITMAP
7C00
CE00
0300
0100
0100
3F80
0100
0100
0300
C600
7C00
ENDCHAR
STARTCHAR 042E
ENCODING 1070
SWIDTH 1097 0
DWIDTH 16 0
BBX 13 11 2 0
BITMAP
83C0
8E70
8810
9818
9008
F008
9008
9818
8810
8E70
83C0
ENDCHAR
STARTCHAR 042F
ENCODING 1071
SWIDTH 754 0
DWIDTH 11 0
BBX 8 11 1 0
BITMAP
3F
61
C1
81
81
C1
E1
3F
21
41
C1
ENDCHAR
STARTCHAR 0430
ENCODING 1072
SWIDTH 617 0
DWIDTH 9 0
BBX 6 8 1 0
BITMAP
78
8C
04
7C
84
84
CC
74
ENDCHAR
STARTCHAR 0431
ENCODING 1073
SWIDTH 685 0
DWIDTH 10 0
BBX 8 11 1 0
BITMAP
06
3C
60
C0
BE
C3
C3
81
C3
66
3C
ENDCHAR
STARTCHAR 0432
ENCODING 1074
SWIDTH 617 0
DWIDTH 9 0
BBX 7 8 1 0
BITMAP
FC
C6
C6
FC
C6
C2
C6
FC
ENDCHAR
STARTCHAR 0433
ENCODING 1075
SWIDTH 480 0
DWIDTH 7 0
BBX 6 8 1 0
BITMAP
FC
C0
C0
C0
C0
C0
C0
C0
ENDCHAR
STARTCHAR 0434
ENCODING 1076
SWIDTH 685 0
DWIDTH 10 0
BBX 9 10 0 -2
BITMAP
3F00
2100
2100
2100
2100
2100
6100
FF80
8080
8080
ENDCHAR
STARTCHAR 0435
ENCODING 1077
SWIDTH 617 0
DWIDTH 9 0
BBX 7 8 1 0
BITMAP
7C
C6
82
FE
80
C0
66
3C
ENDCHAR
STARTCHAR 0436
ENCODING 1078
SWIDTH 822 0
DWIDTH 12 0
BBX 11 8 1 0
BITMAP
8C60
CC40
4CC0
6C80
3F80
6C80
CCC0
8C60
ENDCHAR
STARTCHAR 0437
ENCODING 1079
SWIDTH 548 0
DWIDTH 8 0
BBX 6 8 1 0
BITMAP
F8
8C
0C
78
0C
04
8C
F8
ENDCHAR
STARTCHAR 0438
ENCODING 1080
SWIDTH 685 0
DWIDTH 10 0
BBX 8 8 1 0
BITMAP
C3
C7
CF
CB
D3
F3
E3
C3
ENDCHAR
STARTCHAR 0439
ENCODING 1081
SWIDTH 685 0
DWIDTH 10 0
BBX 8 11 1 0
BITMAP
24
3C
00
C3
C7
CF
CB
D3
F3
E3
C3
ENDCHAR
STARTCHAR 043A
ENCODING 1082
SWIDTH 617 0
DWIDTH 9 0
BBX 7 8 1 0
BITMAP
C2
C4
CC
C8
F8
C8
C4
C2
ENDCHAR
STARTCHAR 043B
ENCODING 1083
SWIDTH 617 0
DWIDTH 9 0
BBX 8 8 0 0
BITMAP
3F
21
21
21
21
21
61
C1
ENDCHAR
STARTCHAR 043C
ENCODING 1084
SWIDTH 822 0
DWIDTH 12 0
BBX 9 8 1 0
BITMAP
C080
E180
E380
F280
D680
CC80
C880
C080
ENDCHAR
STARTCHAR 043D
ENCODING 1085
SWIDTH 685 0
DWIDTH 10 0
BBX 8 8 1 0
BITMAP
C3
C3
C3
C3
FF
C3
C3
C3
ENDCHAR
STARTCHAR 043E
ENCODING 1086
SWIDTH 617 0
DWIDTH 9 0
BBX 8 8 1 0
BITMAP
3C
C6
82
83
83
82
C6
3C
ENDCHAR
STARTCHAR 043F
ENCODING 1087
SWIDTH 685 0
DWIDTH 10 0
BBX 8 8 1 0
BITMAP
FF
C3
C3
C3
C3
C3
C3
C3
ENDCHAR
STARTCHAR 0440
ENCODING 1088
SWIDTH 685 0
DWIDTH 10 0
BBX 8 11 1 -3
BITMAP
DC
E3
C1
C1
C1
C1
E3
DC
C0
C0
C0
ENDCHAR
STARTCHAR 0441
ENCODING 1089
SWIDTH 548 0
DWIDTH 8 0
BBX 7 8 1 0
BITMAP
3C
C6
80
80
80
80
C6
3C
ENDCHAR
STARTCHAR 0442
ENCODING 1090
SWIDTH 480 0
DWIDTH 7 0
BBX 7 8 0 0
BITMAP
FE
10
10
10
10
10
10
10
ENDCHAR
STARTCHAR 0443
ENCODING 1091
SWIDTH 548 0
DWIDTH 8 0
BBX 8 11 0 -3
BITMAP
C1
43
62
26
24
34
18
18
18
90
E0
ENDCHAR
STARTCHAR 0444
ENCODING 1092
SWIDTH 822 0
DWIDTH 12 0
BBX 10 14 1 -3
BITMAP
0C00
0C00
0C00
3F00
ED80
8CC0
8C40
8C40
8CC0
ED80
3F00
0C00
0C00
0C00
ENDCHAR
STARTCHAR 0445
ENCODING 1093
SWIDTH 548 0
DWIDTH 8 0
BBX 7 8 0 0
BITMAP
42
64
3C
18
18
3C
66
C2
ENDCHAR
STARTCHAR 0446
ENCODING 1094
SWIDTH 685 0
DWIDTH 10 0
BBX 9 10 1 -2
BITMAP
C200
C200
C200
C200
C200
C200
C200
FF80
0180
0180
ENDCHAR
STARTCHAR 0447
ENCODING 1095
SWIDTH 617 0
DWIDTH 9 0
BBX 7 8 1 0
BITMAP
86
86
86
86
FE
06
06
06
ENDCHAR
STARTCHAR 0448
ENCODING 1096
SWIDTH 960 0
DWIDTH 14 0
BBX 11 8 1 0
BITMAP
C620
C620
C620
C620
C620
C620
C620
FFE0
ENDCHAR
STARTCHAR 0449
ENCODING 1097
SWIDTH 960 0
DWIDTH 14 0
BBX 13 10 1 -2
BITMAP
C620
C620
C620
C620
C620
C620
C620
FFF8
0018
0018
ENDCHAR
STARTCHAR 044A
ENCODING 1098
SWIDTH 617 0
DWIDTH 9 0
BBX 9 8 0 0
BITMAP
F000
3000
3000
3F00
3180
3180
3180
3F00
ENDCHAR
STARTCHAR 044B
ENCODING 1099
SWIDTH 822 0
DWIDTH 12 0
BBX 9 8 1 0
BITMAP
C080
C080
C080
FC80
C680
C680
C680
FC80
ENDCHAR
STARTCHAR 044C
ENCODING 1100
SWIDTH 548 0
DWIDTH 8 0
BBX 7 8 1 0
BITMAP
C0
C0
C0
FC
C6
C6
C6
FC
ENDCHAR
STARTCHAR 044D
ENCODING 1101
SWIDTH 548 0
DWIDTH 8 0
BBX 7 8 1 0
BITMAP
F8
8C
06
3E
06
04
8C
F8
ENDCHAR
STARTCHAR 044E
ENCODING 1102
SWIDTH 891 0
DWIDTH 13 0
BBX 11 8 1 0
BITMAP
C780
CCC0
D860
F820
D820
C860
CCC0
C780
ENDCHAR
STARTCHAR 044F
ENCODING 1103
SWIDTH 617 0
DWIDTH 9 0
BBX 7 8 1 0
BITMAP
7E
C6
86
86
7E
66
46
86
ENDCHAR
STARTCHAR 0450
ENCODING 1104
SWIDTH 617 0
DWIDTH 9 0
BBX 7 11 1 0
BITMAP
60
10
00
7C
C6
82
FE
80
C0
66
3C
ENDCHAR
STARTCHAR 0451
ENCODING 1105
SWIDTH 617 0
DWIDTH 9 0
BBX 7 11 1 0
BITMAP
6C
00
00
7C
C6
82
FE
80
C0
66
3C
ENDCHAR
STARTCHAR 0452
ENCODING 1106
SWIDTH 685 0
DWIDTH 10 0
BBX 9 14 0 -3
BITMAP
6000
FC00
6000
6E00
7300
6180
6180
6180
6180
6180
6180
0180
0180
0700
ENDCHAR
STARTCHAR 0453
ENCODING 1107
SWIDTH 480 0
DWIDTH 7 0
BBX 6 11 1 0
BITMAP
08
10
00
FC
C0
C0
C0
C0
C0
C0
C0
ENDCHAR
STARTCHAR 0454
ENCODING 1108
SWIDTH 548 0
DWIDTH 8 0
BBX 7 8 1 0
BITMAP
3C
66
80
80
F8
80
C2
3C
ENDCHAR
STARTCHAR 0455
ENCODING 1109
SWIDTH 548 0
DWIDTH 8 0
BBX 6 8 1 0
BITMAP
7C
C4
80
C0
7C
04
8C
F8
ENDCHAR
STARTCHAR 0456
ENCODING 1110
SWIDTH 274 0
DWIDTH 4 0
BBX 2 11 1 0
BITMAP
C0
C0
00
C0
C0
C0
C0
C0
C0
C0
C0
ENDCHAR
STARTCHAR 0457
ENCODING 1111
SWIDTH 274 0
DWIDTH 4 0
BBX 4 11 0 0
BITMAP
F0
00
00
60
60
60
60
60
60
60
60
ENDCHAR
STARTCHAR 0458
ENCODING 1112
SWIDTH 274 0
DWIDTH 4 0
BBX 4 14 -1 -3
BITMAP
30
30
00
30
30
30
30
30
30
30
30
30
30
E0
ENDCHAR
STARTCHAR 0459
ENCODING 1113
SWIDTH 960 0
DWIDTH 14 0
BBX 13 8 0 0
BITMAP
3F00
2100
2100
21F0
2118
2108
6118
C1F0
ENDCHAR
STARTCHAR 045A
ENCODING 1114
SWIDTH 960 0
DWIDTH 14 0
BBX 12 8 1 0
BITMAP
C200
C200
C200
FFF0
C210
C210
C210
C3E0
ENDCHAR
STARTCHAR 045B
ENCODING 1115
SWIDTH 685 0
DWIDTH 10 0
BBX 10 11 -1 0
BITMAP
3000
FE00
3000
3700
3980
30C0
30C0
30C0
30C0
30C0
30C0
ENDCHAR
STARTCHAR 045C
ENCODING 1116
SWIDTH 617 0
DWIDTH 9 0
BBX 7 11 1 0
BITMAP
0C
10
00
C2
C4
CC
C8
F8
C8
C4
C2
ENDCHAR
STARTCHAR 045D
ENCODING 1117
SWIDTH 685 0
DWIDTH 10 0
BBX 8 11 1 0
BITMAP
30
18
00
C3
C7
CF
CB
D3
F3
E3
C3
ENDCHAR
STARTCHAR 045E
ENCODING 1118
SWIDTH 548 0
DWIDTH 8 0
BBX 8 14 0 -3
BITMAP
24
3C
00
C1
43
62
26
24
34
18
18
18
90
E0
ENDCHAR
STARTCHAR 045F
ENCODING 1119
SWIDTH 617 0
DWIDTH 9 0
BBX 7 10 1 -2
BITMAP
C2
C2
C2
C2
C2
C2
C2
FE
10
10
ENDCHAR
STARTCHAR 0462
ENCODING 1122
SWIDTH 822 0
DWIDTH 12 0
BBX 11 11 0 0
BITMAP
1000
1000
FF00
1000
1FC0
1060
1020
1020
1020
1060
1FC0
ENDCHAR
STARTCHAR 0463
ENCODING 1123
SWIDTH 617 0
DWIDTH 9 0
BBX 8 11 0 0
BITMAP
20
20
20
FC
20
20
3F
21
21
21
3E
ENDCHAR
STARTCHAR 046A
ENCODING 1130
SWIDTH 891 0
DWIDTH 13 0
BBX 13 11 0 0
BITMAP
7FF0
2020
1040
0880
0580
1FC0
3260
2220
6230
4210
C218
ENDCHAR
STARTCHAR 046B
ENCODING 1131
SWIDTH 685 0
DWIDTH 10 0
BBX 10 8 0 0
BITMAP
7F80
2180
3300
1A00
3F00
6D80
4C80
CCC0
ENDCHAR
STARTCHAR 0472
ENCODING 1138
SWIDTH 822 0
DWIDTH 12 0
BBX 11 11 1 0
BITMAP
1F00
7380
40C0
C040
8060
FFE0
8040
C040
40C0
7380
1F00
ENDCHAR
STARTCHAR 0473
ENCODING 1139
SWIDTH 617 0
DWIDTH 9 0
BBX 8 8 1 0
BITMAP
3C
C6
83
FF
83
82
46
3C
ENDCHAR
STARTCHAR 0474
ENCODING 1140
SWIDTH 754 0
DWIDTH 11 0
BBX 11 11 0 0
BITMAP
C0E0
40E0
6180
2100
3100
3300
1200
1A00
1E00
0C00
0C00
ENDCHAR
STARTCHAR 0475
ENCODING 1141
SWIDTH 617 0
DWIDTH 9 0
BBX 9 8 0 0
BITMAP
C380
4300
6600
2600
2400
3C00
1800
1800
ENDCHAR
STARTCHAR 048A
ENCODING 1162
SWIDTH 822 0
DWIDTH 12 0
BBX 10 16 2 -2
BITMAP
2400
3C00
0000
8100
8300
8700
8500
8D00
9900
B100
A100
E100
C100
81C0
0080
0080
ENDCHAR
STARTCHAR 048B
ENCODING 1163
SWIDTH 685 0
DWIDTH 10 0
BBX 9 13 1 -2
BITMAP
2400
3C00
0000
C300
C700
CF00
CB00
D300
F300
E300
C380
0180
0100
ENDCHAR
STARTCHAR 048C
ENCODING 1164
SWIDTH 754 0
DWIDTH 11 0
BBX 10 11 0 0
BITMAP
2000
2000
FE00
2000
3F80
20C0
2040
2040
2040
20C0
3F80
ENDCHAR
STARTCHAR 048D
ENCODING 1165
SWIDTH 617 0
DWIDTH 9 0
BBX 8 8 0 0
BITMAP
20
FC
20
3E
21
21
21
3E
ENDCHAR
STARTCHAR 048E
ENCODING 1166
SWIDTH 754 0
DWIDTH 11 0
BBX 8 11 2 0
BITMAP
FC
86
83
83
93
8B
8E
FC
82
80
80
ENDCHAR
STARTCHAR 048F
ENCODING 1167
SWIDTH 685 0
DWIDTH 10 0
BBX 8 11 1 -3
BITMAP
DE
E3
C1
C1
C1
C5
E3
DF
C1
C0
C0
ENDCHAR
STARTCHAR 0490
ENCODING 1168
SWIDTH 548 0
DWIDTH 8 0
BBX 6 13 2 0
BITMAP
04
04
FC
80
80
80
80
80
80
80
80
80
80
ENDCHAR
STARTCHAR 0491
ENCODING 1169
SWIDTH 480 0
DWIDTH 7 0
BBX 6 10 1 0
BITMAP
0C
0C
FC
C0
C0
C0
C0
C0
C0
C0
ENDCHAR
STARTCHAR 0492
ENCODING 1170
SWIDTH 617 0
DWIDTH 9 0
BBX 9 11 0 0
BITMAP
3F80
2000
2000
2000
2000
FF00
2000
2000
2000
2000
2000
ENDCHAR
STARTCHAR 0493
ENCODING 1171
SWIDTH 548 0
DWIDTH 8 0
BBX 6 8 1 0
BITMAP
7C
40
40
40
F8
40
40
40
ENDCHAR
STARTCHAR 0494
ENCODING 1172
SWIDTH 685 0
DWIDTH 10 0
BBX 8 13 2 -2
BITMAP
FE
80
80
80
80
FC
C6
82
83
83
82
06
1C
ENDCHAR
STARTCHAR 0495
ENCODING 1173
SWIDTH 617 0
DWIDTH 9 0
BBX 7 11 1 -3
BITMAP
FC
C0
C0
C0
FC
C6
C2
C2
02
06
1C
ENDCHAR
STARTCHAR 0496
ENCODING 1174
SWIDTH 1097 0
DWIDTH 16 0
BBX 14 13 1 -2
BITMAP
8208
C218
4210
2220
3260
1FC0
3260
6230
4230
C218
820C
0004
0004
ENDCHAR
STARTCHAR 0497
ENCODING 1175
SWIDTH 891 0
DWIDTH 13 0
BBX 12 10 1 -2
BITMAP
8C60
CC40
4CC0
6C80
3F80
6C80
CCC0
8C70
0030
0030
ENDCHAR
STARTCHAR 0498
ENCODING 1176
SWIDTH 617 0
DWIDTH 9 0
BBX 7 13 1 -2
BITMAP
78
CE
06
02
06
7C
06
02
02
86
7C
10
10
ENDCHAR
STARTCHAR 0499
ENCODING 1177
SWIDTH 548 0
DWIDTH 8 0
BBX 6 10 1 -2
BITMAP
F8
8C
0C
0C
78
0C
04
F8
20
20
ENDCHAR
STARTCHAR 049A
ENCODING 1178
SWIDTH 754 0
DWIDTH 11 0
BBX 9 13 2 -2
BITMAP
8300
8600
8400
8C00
9800
F000
9800
8C00
8400
8600
8380
0180
0180
ENDCHAR
STARTCHAR 049B
ENCODING 1179
SWIDTH 617 0
DWIDTH 9 0
BBX 8 10 1 -2
BITMAP
C2
C4
CC
C8
F8
CC
C4
C3
01
01
ENDCHAR
STARTCHAR 049C
ENCODING 1180
SWIDTH 754 0
DWIDTH 11 0
BBX 8 11 2 0
BITMAP
83
82
86
A4
AC
F8
AC
A4
86
83
83
ENDCHAR
STARTCHAR 049D
ENCODING 1181
SWIDTH 617 0
DWIDTH 9 0
BBX 7 8 1 0
BITMAP
C2
C6
E4
E8
F8
EC
C6
C2
ENDCHAR
STARTCHAR 049E
ENCODING 1182
SWIDTH 754 0
DWIDTH 11 0
BBX 10 11 0 0
BITMAP
20C0
2080
FD80
2300
2200
3E00
2200
2300
2180
2080
20C0
ENDCHAR
STARTCHAR 049F
ENCODING 1183
SWIDTH 617 0
DWIDTH 9 0
BBX 8 11 0 0
BITMAP
60
F8
60
61
62
66
64
7C
64
62
63
ENDCHAR
STARTCHAR 04A0
ENCODING 1184
SWIDTH 822 0
DWIDTH 12 0
BBX 11 11 0 0
BITMAP
F820
1860
18C0
1880
1900
1F00
1980
1880
18C0
1860
1820
ENDCHAR
STARTCHAR 04A1
ENCODING 1185
SWIDTH 685 0
DWIDTH 10 0
BBX 9 8 0 0
BITMAP
F080
3100
3200
3E00
3200
3300
3180
3080
ENDCHAR
STARTCHAR 04A2
ENCODING 1186
SWIDTH 822 0
DWIDTH 12 0
BBX 10 13 2 -2
BITMAP
8100
8100
8100
8100
8100
FF00
8100
8100
8100
8100
81C0
0040
0040
ENDCHAR
STARTCHAR 04A3
ENCODING 1187
SWIDTH 685 0
DWIDTH 10 0
BBX 9 10 1 -2
BITMAP
C300
C300
C300
C300
FF00
C300
C300
C380
0180
0180
ENDCHAR
STARTCHAR 04A4
ENCODING 1188
SWIDTH 1097 0
DWIDTH 16 0
BBX 14 11 2 0
BITMAP
81FC
8100
8100
8100
8100
FF00
8100
8100
8100
8100
8100
ENDCHAR
STARTCHAR 04A5
ENCODING 1189
SWIDTH 891 0
DWIDTH 13 0
BBX 12 8 1 0
BITMAP
C3F0
C300
C300
FF00
C300
C300
C300
C300
ENDCHAR
STARTCHAR 04A6
ENCODING 1190
SWIDTH 1165 0
DWIDTH 17 0
BBX 15 13 2 -2
BITMAP
FF00
8100
8100
8100
8100
81F8
818C
8106
8106
8106
8106
000C
0038
ENDCHAR
STARTCHAR 04A7
ENCODING 1191
SWIDTH 960 0
DWIDTH 14 0
BBX 13 11 1 -3
BITMAP
FE00
C200
C200
C200
C3F0
C218
C218
C218
0018
0030
00E0
ENDCHAR
STARTCHAR 04A8
ENCODING 1192
SWIDTH 960 0
DWIDTH 14 0
BBX 12 11 1 0
BITMAP
23C0
6660
C430
CC30
8C10
8C10
8C30
C420
4660
33C0
1FF0
ENDCHAR
STARTCHAR 04A9
ENCODING 1193
SWIDTH 822 0
DWIDTH 12 0
BBX 10 8 1 0
BITMAP
6700
C880
98C0
98C0
98C0
C880
6F00
3FC0
ENDCHAR
STARTCHAR 04AA
ENCODING 1194
SWIDTH 685 0
DWIDTH 10 0
BBX 9 13 1 -2
BITMAP
1F00
7380
4000
C000
8000
8000
8000
C000
4000
7180
1F00
0C00
0C00
ENDCHAR
STARTCHAR 04AB
ENCODING 1195
SWIDTH 548 0
DWIDTH 8 0
BBX 7 10 1 -2
BITMAP
3C
E6
80
80
80
80
C6
3C
10
10
ENDCHAR
STARTCHAR 04AC
ENCODING 1196
SWIDTH 617 0
DWIDTH 9 0
BBX 9 13 0 -2
BITMAP
FF80
0800
0800
0800
0800
0800
0800
0800
0800
0800
0E00
0600
0600
ENDCHAR
STARTCHAR 04AD
ENCODING 1197
SWIDTH 480 0
DWIDTH 7 0
BBX 7 10 0 -2
BITMAP
FE
10
10
10
10
10
10
18
08
08
ENDCHAR
STARTCHAR 04AE
ENCODING 1198
SWIDTH 685 0
DWIDTH 10 0
BBX 9 11 0 0
BITMAP
C080
4180
6100
3300
1200
1E00
0C00
0C00
0C00
0C00
0C00
ENDCHAR
STARTCHAR 04AF
ENCODING 1199
SWIDTH 548 0
DWIDTH 8 0
BBX 8 11 0 -3
BITMAP
C1
43
62
26
24
34
1C
18
18
18
18
ENDCHAR
STARTCHAR 04B0
ENCODING 1200
SWIDTH 685 0
DWIDTH 10 0
BBX 9 11 0 0
BITMAP
C080
4180
6100
2300
3200
1E00
0C00
3F00
0C00
0C00
0C00
ENDCHAR
STARTCHAR 04B1
ENCODING 1201
SWIDTH 548 0
DWIDTH 8 0
BBX 8 11 0 -3
BITMAP
C1
43
62
26
34
1C
18
7E
18
18
18
ENDCHAR
STARTCHAR 04B2
ENCODING 1202
SWIDTH 685 0
DWIDTH 10 0
BBX 9 13 1 -2
BITMAP
8300
C200
6600
2C00
3800
1800
3800
2C00
6600
C200
8380
0080
0080
ENDCHAR
STARTCHAR 04B3
ENCODING 1203
SWIDTH 548 0
DWIDTH 8 0
BBX 8 10 0 -2
BITMAP
42
64
3C
18
18
3C
66
C3
01
01
ENDCHAR
STARTCHAR 04B4
ENCODING 1204
SWIDTH 960 0
DWIDTH 14 0
BBX 14 13 0 -2
BITMAP
FF10
0810
0810
0810
0810
0810
0810
0810
0810
0810
0FFC
000C
000C
ENDCHAR
STARTCHAR 04B5
ENCODING 1205
SWIDTH 754 0
DWIDTH 11 0
BBX 11 10 0 -2
BITMAP
FEC0
10C0
10C0
10C0
10C0
10C0
10C0
1FE0
0060
0060
ENDCHAR
STARTCHAR 04B6
ENCODING 1206
SWIDTH 754 0
DWIDTH 11 0
BBX 10 13 1 -2
BITMAP
8100
8100
8100
8100
8100
C300
7F00
0100
0100
0100
01C0
00C0
00C0
ENDCHAR
STARTCHAR 04B7
ENCODING 1207
SWIDTH 617 0
DWIDTH 9 0
BBX 8 10 1 -2
BITMAP
86
86
86
86
C6
7E
06
07
03
03
ENDCHAR
STARTCHAR 04B8
ENCODING 1208
SWIDTH 754 0
DWIDTH 11 0
BBX 8 11 1 0
BITMAP
81
81
81
81
91
D3
7F
11
11
11
01
ENDCHAR
STARTCHAR 04B9
ENCODING 1209
SWIDTH 617 0
DWIDTH 9 0
BBX 7 8 1 0
BITMAP
86
86
B6
B6
FE
36
36
06
ENDCHAR
STARTCHAR 04BA
ENCODING 1210
SWIDTH 754 0
DWIDTH 11 0
BBX 8 11 2 0
BITMAP
80
80
80
80
FE
83
83
83
83
83
83
ENDCHAR
STARTCHAR 04BB
ENCODING 1211
SWIDTH 685 0
DWIDTH 10 0
BBX 8 11 1 0
BITMAP
C0
C0
C0
DC
E6
C3
C3
C3
C3
C3
C3
ENDCHAR
STARTCHAR 04BC
ENCODING 1212
SWIDTH 960 0
DWIDTH 14 0
BBX 14 11 0 0
BITMAP
03E0
0630
4C18
C80C
580C
7FFC
1800
0800
0C00
0638
03E0
ENDCHAR
STARTCHAR 04BD
ENCODING 1213
SWIDTH 754 0
DWIDTH 11 0
BBX 11 8 0 0
BITMAP
0780
18C0
D040
7FE0
1000
1800
0CC0
0780
ENDCHAR
STARTCHAR 04BE
ENCODING 1214
SWIDTH 960 0
DWIDTH 14 0
BBX 14 13 0 -2
BITMAP
03E0
0630
4C18
C80C
580C
7FFC
1800
0800
0C00
0638
03E0
0080
0080
ENDCHAR
STARTCHAR 04BF
ENCODING 1215
SWIDTH 754 0
DWIDTH 11 0
BBX 11 10 0 -2
BITMAP
0780
0CC0
D840
D060
7FE0
1000
1840
0F80
0200
0200
ENDCHAR
STARTCHAR 04C0
ENCODING 1216
SWIDTH 342 0
DWIDTH 5 0
BBX 1 11 2 0
BITMAP
80
80
80
80
80
80
80
80
80
80
80
ENDCHAR
STARTCHAR 04C1
ENCODING 1217
SWIDTH 1028 0
DWIDTH 15 0
BBX 13 14 1 0
BITMAP
0880
0700
0000
8208
C218
6230
2220
3260
3FE0
3260
6230
4210
C218
8208
ENDCHAR
STARTCHAR 04C2
ENCODING 1218
SWIDTH 822 0
DWIDTH 12 0
BBX 11 11 1 0
BITMAP
1200
0E00
0000
8C60
CC40
4CC0
6C80
3F80
6C80
CCC0
8C60
ENDCHAR
STARTCHAR 04C3
ENCODING 1219
SWIDTH 685 0
DWIDTH 10 0
BBX 8 14 2 -3
BITMAP
83
86
84
88
98
F8
88
8C
86
83
83
03
03
0E
ENDCHAR
STARTCHAR 04C4
ENCODING 1220
SWIDTH 617 0
DWIDTH 9 0
BBX 7 11 1 -3
BITMAP
C6
C4
C8
F8
CC
C4
C6
C2
02
02
1E
ENDCHAR
STARTCHAR 04C6
ENCODING 1222
SWIDTH 685 0
DWIDTH 10 0
BBX 9 10 0 -2
BITMAP
3F00
2100
2100
2100
2100
2100
6100
C180
0080
0100
ENDCHAR
STARTCHAR 04C7
ENCODING 1223
SWIDTH 822 0
DWIDTH 12 0
BBX 8 14 2 -3
BITMAP
81
81
81
81
81
FF
81
81
81
81
81
01
03
0E
ENDCHAR
STARTCHAR 04C8
ENCODING 1224
SWIDTH 685 0
DWIDTH 10 0
BBX 8 11 1 -3
BITMAP
C3
C3
C3
C3
FF
C3
C3
C3
03
02
0E
ENDCHAR
STARTCHAR 04C9
ENCODING 1225
SWIDTH 822 0
DWIDTH 12 0
BBX 10 13 2 -2
BITMAP
8100
8100
8100
8100
8100
FF00
8100
8100
8100
8100
81C0
0080
0080
ENDCHAR
STARTCHAR 04CA
ENCODING 1226
SWIDTH 685 0
DWIDTH 10 0
BBX 9 10 1 -2
BITMAP
C300
C300
C300
C300
FF00
C300
C300
C380
0100
0100
ENDCHAR
STARTCHAR 04CB
ENCODING 1227
SWIDTH 754 0
DWIDTH 11 0
BBX 8 13 1 -2
BITMAP
81
81
81
81
81
E7
7D
01
01
01
07
04
04
ENDCHAR
STARTCHAR 04CC
ENCODING 1228
SWIDTH 617 0
DWIDTH 9 0
BBX 6 10 1 -2
BITMAP
84
84
84
84
FC
04
04
0C
08
08
ENDCHAR
STARTCHAR 04CD
ENCODING 1229
SWIDTH 1028 0
DWIDTH 15 0
BBX 12 13 2 -2
BITMAP
8040
C0C0
C0C0
E1C0
A140
B340
9240
9E40
8C40
8040
8070
0030
0020
ENDCHAR
STARTCHAR 04CE
ENCODING 1230
SWIDTH 822 0
DWIDTH 12 0
BBX 10 10 1 -2
BITMAP
C080
E180
E180
F280
D680
CC80
C880
C0C0
0040
0040
ENDCHAR
STARTCHAR 04CF
ENCODING 1231
SWIDTH 274 0
DWIDTH 4 0
BBX 2 11 1 0
BITMAP
C0
C0
C0
C0
C0
C0
C0
C0
C0
C0
C0
ENDCHAR
STARTCHAR 04D0
ENCODING 1232
SWIDTH 754 0
DWIDTH 11 0
BBX 11 14 0 0
BITMAP
1100
0E00
0000
0400
0E00
0A00
1B00
1100
3180
2080
3F80
60C0
4040
C060
ENDCHAR
STARTCHAR 04D1
ENCODING 1233
SWIDTH 617 0
DWIDTH 9 0
BBX 6 11 1 0
BITMAP
48
38
00
78
8C
04
7C
84
84
CC
74
ENDCHAR
STARTCHAR 04D2
ENCODING 1234
SWIDTH 754 0
DWIDTH 11 0
BBX 11 13 0 1
BITMAP
1B00
0000
0400
0E00
0A00
1B00
1100
3180
2080
3F80
60C0
4040
C060
ENDCHAR
STARTCHAR 04D3
ENCODING 1235
SWIDTH 617 0
DWIDTH 9 0
BBX 6 11 1 0
BITMAP
68
08
00
78
8C
04
7C
84
84
CC
74
ENDCHAR
STARTCHAR 04D4
ENCODING 1236
SWIDTH 1028 0
DWIDTH 15 0
BBX 15 11 0 0
BITMAP
03FC
0780
0580
0D80
0980
19FC
1180
3F80
6180
4180
C1FE
ENDCHAR
STARTCHAR 04D5
ENCODING 1237
SWIDTH 1028 0
DWIDTH 15 0
BBX 13 8 1 0
BITMAP
79E0
8F30
0618
7FF8
8400
8600
CF30
79E0
ENDCHAR
STARTCHAR 04D6
ENCODING 1238
SWIDTH 685 0
DWIDTH 10 0
BBX 7 14 2 0
BITMAP
44
78
00
FE
80
80
80
80
FC
80
80
80
80
FE
ENDCHAR
STARTCHAR 04D7
ENCODING 1239
SWIDTH 617 0
DWIDTH 9 0
BBX 7 11 1 0
BITMAP
44
38
00
7C
C6
82
FE
80
C0
66
3C
ENDCHAR
STARTCHAR 04D8
ENCODING 1240
SWIDTH 822 0
DWIDTH 12 0
BBX 10 11 1 0
BITMAP
3E00
7380
4080
00C0
0040
FFC0
8040
80C0
C080
7380
1E00
ENDCHAR
STARTCHAR 04D9
ENCODING 1241
SWIDTH 617 0
DWIDTH 9 0
BBX 7 8 1 0
BITMAP
78
C6
02
02
FE
82
C6
3C
ENDCHAR
STARTCHAR 04DA
ENCODING 1242
SWIDTH 822 0
DWIDTH 12 0
BBX 10 13 1 1
BITMAP
1200
0000
3E00
7380
4080
00C0
0040
FFC0
8040
80C0
C080
7380
1E00
ENDCHAR
STARTCHAR 04DB
ENCODING 1243
SWIDTH 617 0
DWIDTH 9 0
BBX 7 11 1 0
BITMAP
2C
00
00
78
C6
02
02
FE
82
C6
3C
ENDCHAR
STARTCHAR 04DC
ENCODING 1244
SWIDTH 1028 0
DWIDTH 15 0
BBX 13 13 1 1
BITMAP
0D80
0000
8208
C218
6230
2220
3260
3FE0
3260
6230
4210
C218
8208
ENDCHAR
STARTCHAR 04DD
ENCODING 1245
SWIDTH 822 0
DWIDTH 12 0
BBX 11 11 1 0
BITMAP
1A00
0200
0000
8C60
CC40
4CC0
6C80
3F80
6C80
CCC0
8C60
ENDCHAR
STARTCHAR 04DE
ENCODING 1246
SWIDTH 617 0
DWIDTH 9 0
BBX 7 13 1 1
BITMAP
2C
00
78
CE
06
02
06
7C
06
02
02
C6
7C
ENDCHAR
STARTCHAR 04DF
ENCODING 1247
SWIDTH 548 0
DWIDTH 8 0
BBX 6 11 1 0
BITMAP
58
40
00
F8
8C
0C
78
0C
04
8C
F8
ENDCHAR
STARTCHAR 04E0
ENCODING 1248
SWIDTH 617 0
DWIDTH 9 0
BBX 7 11 1 0
BITMAP
FE
06
0C
18
10
3C
06
02
02
C6
7C
ENDCHAR
STARTCHAR 04E1
ENCODING 1249
SWIDTH 548 0
DWIDTH 8 0
BBX 7 11 0 -3
BITMAP
FE
04
0C
18
10
3C
06
02
02
C6
7C
ENDCHAR
STARTCHAR 04E2
ENCODING 1250
SWIDTH 822 0
DWIDTH 12 0
BBX 8 13 2 0
BITMAP
3C
00
81
83
87
85
8D
99
B1
A1
E1
C1
81
ENDCHAR
STARTCHAR 04E3
ENCODING 1251
SWIDTH 685 0
DWIDTH 10 0
BBX 8 11 1 0
BITMAP
3C
00
00
C3
C7
CF
CB
D3
F3
E3
C3
ENDCHAR
STARTCHAR 04E4
ENCODING 1252
SWIDTH 822 0
DWIDTH 12 0
BBX 8 13 2 1
BITMAP
24
00
81
83
87
85
8D
99
B1
A1
E1
C1
81
ENDCHAR
STARTCHAR 04E5
ENCODING 1253
SWIDTH 685 0
DWIDTH 10 0
BBX 8 11 1 0
BITMAP
24
00
00
C3
C7
CF
CB
D3
F3
E3
C3
ENDCHAR
STARTCHAR 04E6
ENCODING 1254
SWIDTH 822 0
DWIDTH 12 0
BBX 11 13 1 1
BITMAP
1A00
0000
1F00
7380
40C0
C040
8060
8060
8060
C040
40C0
7380
1F00
ENDCHAR
STARTCHAR 04E7
ENCODING 1255
SWIDTH 617 0
DWIDTH 9 0
BBX 8 11 1 0
BITMAP
2C
00
00
3C
C6
82
83
83
82
C6
3C
ENDCHAR
STARTCHAR 04E8
ENCODING 1256
SWIDTH 822 0
DWIDTH 12 0
BBX 11 11 1 0
BITMAP
1F00
7380
40C0
C040
8060
FFE0
8040
C040
40C0
7380
1F00
ENDCHAR
STARTCHAR 04E9
ENCODING 1257
SWIDTH 617 0
DWIDTH 9 0
BBX 8 8 1 0
BITMAP
3C
C6
83
FF
83
82
46
3C
ENDCHAR
STARTCHAR 04EA
ENCODING 1258
SWIDTH 822 0
DWIDTH 12 0
BBX 11 13 1 1
BITMAP
1A00
0000
1F00
7380
40C0
C040
8060
FFE0
8040
C040
40C0
7380
1F00
ENDCHAR
STARTCHAR 04EB
ENCODING 1259
SWIDTH 617 0
DWIDTH 9 0
BBX 8 11 1 0
BITMAP
2C
00
00
3C
C6
83
FF
83
82
46
3C
ENDCHAR
STARTCHAR 04EC
ENCODING 1260
SWIDTH 685 0
DWIDTH 10 0
BBX 9 13 1 1
BITMAP
2C00
0000
7C00
CE00
0300
0100
0100
3F80
0100
0100
0300
C600
7C00
ENDCHAR
STARTCHAR 04ED
ENCODING 1261
SWIDTH 548 0
DWIDTH 8 0
BBX 7 11 1 0
BITMAP
58
40
00
F8
8C
06
3E
06
04
8C
F8
ENDCHAR
STARTCHAR 04EE
ENCODING 1262
SWIDTH 685 0
DWIDTH 10 0
BBX 10 13 0 0
BITMAP
1E00
0000
C0C0
6080
6180
2100
3300
1200
1E00
0C00
0C00
1800
7000
ENDCHAR
STARTCHAR 04EF
ENCODING 1263
SWIDTH 548 0
DWIDTH 8 0
BBX 8 14 0 -3
BITMAP
3C
00
00
C1
43
62
26
24
34
18
18
18
90
E0
ENDCHAR
STARTCHAR 04F0
ENCODING 1264
SWIDTH 685 0
DWIDTH 10 0
BBX 10 13 0 1
BITMAP
1200
0000
C0C0
6080
6180
2100
3300
1200
1E00
0C00
0C00
1800
7000
ENDCHAR
STARTCHAR 04F1
ENCODING 1265
SWIDTH 548 0
DWIDTH 8 0
BBX 8 14 0 -3
BITMAP
24
00
00
C1
43
62
26
24
34
18
18
18
90
E0
ENDCHAR
STARTCHAR 04F2
ENCODING 1266
SWIDTH 685 0
DWIDTH 10 0
BBX 10 14 0 0
BITMAP
0D00
1A00
0000
C0C0
6080
6180
2100
3300
1200
1E00
0C00
0C00
1800
7000
ENDCHAR
STARTCHAR 04F3
ENCODING 1267
SWIDTH 548 0
DWIDTH 8 0
BBX 8 14 0 -3
BITMAP
12
34
00
C1
43
62
26
24
34
18
18
18
90
E0
ENDCHAR
STARTCHAR 04F4
ENCODING 1268
SWIDTH 754 0
DWIDTH 11 0
BBX 8 13 1 1
BITMAP
24
00
81
81
81
81
81
C3
7F
01
01
01
01
ENDCHAR
STARTCHAR 04F5
ENCODING 1269
SWIDTH 617 0
DWIDTH 9 0
BBX 7 11 1 0
BITMAP
48
00
00
86
86
86
86
FE
06
06
06
ENDCHAR
STARTCHAR 04F6
ENCODING 1270
SWIDTH 548 0
DWIDTH 8 0
BBX 6 13 2 -2
BITMAP
FC
80
80
80
80
80
80
80
80
80
E0
60
60
ENDCHAR
STARTCHAR 04F7
ENCODING 1271
SWIDTH 480 0
DWIDTH 7 0
BBX 6 10 1 -2
BITMAP
FC
C0
C0
C0
C0
C0
C0
E0
20
20
ENDCHAR
STARTCHAR 04F8
ENCODING 1272
SWIDTH 960 0
DWIDTH 14 0
BBX 11 13 2 1
BITMAP
1A00
0000
8060
8060
8060
8060
FE60
8260
8360
8360
8360
8660
FC60
ENDCHAR
STARTCHAR 04F9
ENCODING 1273
SWIDTH 822 0
DWIDTH 12 0
BBX 9 11 1 0
BITMAP
1200
0000
0000
C080
C080
C080
FC80
C680
C680
C680
FC80
ENDCHAR
STARTCHAR 04FA
ENCODING 1274
SWIDTH 617 0
DWIDTH 9 0
BBX 9 14 0 -3
BITMAP
3F80
2000
2000
2000
2000
FF00
2000
2000
2000
2000
3800
1800
1800
7000
ENDCHAR
STARTCHAR 04FB
ENCODING 1275
SWIDTH 480 0
DWIDTH 7 0
BBX 7 11 0 -3
BITMAP
3E
20
20
20
FC
20
20
30
10
10
E0
ENDCHAR
STARTCHAR 04FC
ENCODING 1276
SWIDTH 685 0
DWIDTH 10 0
BBX 8 14 1 -3
BITMAP
83
C2
66
2C
38
18
3C
24
66
C3
81
01
03
0F
ENDCHAR
STARTCHAR 04FD
ENCODING 1277
SWIDTH 548 0
DWIDTH 8 0
BBX 7 11 1 -3
BITMAP
84
CC
78
30
30
78
CC
84
06
06
1C
ENDCHAR
STARTCHAR 04FE
ENCODING 1278
SWIDTH 685 0
DWIDTH 10 0
BBX 8 11 1 0
BITMAP
C3
42
66
3C
38
FF
3C
24
66
C3
81
ENDCHAR
STARTCHAR 04FF
ENCODING 1279
SWIDTH 548 0
DWIDTH 8 0
BBX 7 8 1 0
BITMAP
84
4C
38
FC
38
48
CC
86
ENDCHAR
STARTCHAR 0510
ENCODING 1296
SWIDTH 617 0
DWIDTH 9 0
BBX 8 11 1 0
BITMAP
3E
62
C0
C0
40
7C
C0
80
80
E3
3E
ENDCHAR
STARTCHAR 0511
ENCODING 1297
SWIDTH 548 0
DWIDTH 8 0
BBX 6 8 1 0
BITMAP
7C
C4
C0
70
C0
80
C4
7C
ENDCHAR
STARTCHAR 0512
ENCODING 1298
SWIDTH 822 0
DWIDTH 12 0
BBX 10 14 0 -3
BITMAP
1FC0
10C0
10C0
10C0
10C0
10C0
30C0
30C0
20C0
60C0
C0C0
00C0
00C0
0380
ENDCHAR
STARTCHAR 0513
ENCODING 1299
SWIDTH 617 0
DWIDTH 9 0
BBX 8 11 0 -3
BITMAP
3F
21
21
21
21
21
61
C1
01
03
0E
ENDCHAR
STARTCHAR 051A
ENCODING 1306
SWIDTH 822 0
DWIDTH 12 0
BBX 11 13 1 -2
BITMAP
1F00
7380
40C0
C040
8060
8060
8060
C040
40C0
7380
1F00
0620
03E0
ENDCHAR
STARTCHAR 051B
ENCODING 1307
SWIDTH 685 0
DWIDTH 10 0
BBX 8 11 1 -3
BITMAP
3B
E7
83
83
83
83
C7
3B
03
03
03
ENDCHAR
STARTCHAR 051C
ENCODING 1308
SWIDTH 1097 0
DWIDTH 16 0
BBX 15 11 0 0
BITMAP
C182
4182
6186
63C4
2244
224C
366C
1428
1438
1C38
0830
ENDCHAR
STARTCHAR 051D
ENCODING 1309
SWIDTH 960 0
DWIDTH 14 0
BBX 13 8 0 0
BITMAP
C308
4308
4718
6590
2490
38E0
1860
1860
ENDCHAR
STARTCHAR 0524
ENCODING 1316
SWIDTH 822 0
DWIDTH 12 0
BBX 10 13 2 -2
BITMAP
FF00
8100
8100
8100
8100
8100
8100
8100
8100
8100
81C0
0040
0040
ENDCHAR
STARTCHAR 0525
ENCODING 1317
SWIDTH 685 0
DWIDTH 10 0
BBX 9 10 1 -2
BITMAP
FF00
C300
C300
C300
C300
C300
C300
C380
0180
0180
ENDCHAR
STARTCHAR 0526
ENCODING 1318
SWIDTH 822 0
DWIDTH 12 0
BBX 9 13 2 -2
BITMAP
8000
8000
8000
8000
FE00
8300
8300
8300
8300
8300
8380
0080
0080
ENDCHAR
STARTCHAR 0527
ENCODING 1319
SWIDTH 685 0
DWIDTH 10 0
BBX 9 13 1 -2
BITMAP
C000
C000
C000
DC00
E600
C300
C300
C300
C300
C300
C380
0080
0080
ENDCHAR
STARTCHAR 0528
ENCODING 1320
SWIDTH 822 0
DWIDTH 12 0
BBX 11 14 -1 -3
BITMAP
1020
1020
1020
1020
1020
1FE0
1020
1020
1020
1020
1020
1000
3000
E000
ENDCHAR
STARTCHAR 0529
ENCODING 1321
SWIDTH 685 0
DWIDTH 10 0
BBX 10 11 -1 -3
BITMAP
30C0
30C0
30C0
30C0
3FC0
30C0
30C0
30C0
3000
3000
E000
ENDCHAR
STARTCHAR 052E
ENCODING 1326
SWIDTH 822 0
DWIDTH 12 0
BBX 11 13 0 -2
BITMAP
1FC0
10C0
10C0
10C0
10C0
10C0
30C0
30C0
20C0
60C0
C0E0
0020
0020
ENDCHAR
STARTCHAR 052F
ENCODING 1327
SWIDTH 685 0
DWIDTH 10 0
BBX 9 10 0 -2
BITMAP
3F00
2100
2100
2100
2100
2100
6100
C180
0080
0080
ENDCHAR
STARTCHAR 1E08
ENCODING 7688
SWIDTH 754 0
DWIDTH 11 0
BBX 9 17 1 -3
BITMAP
0600
0C00
0000
1E00
7380
C000
C000
8000
8000
8000
C000
C000
7380
1E00
0800
0C00
1C00
ENDCHAR
STARTCHAR 1E09
ENCODING 7689
SWIDTH 548 0
DWIDTH 8 0
BBX 7 14 1 -3
BITMAP
0C
10
00
3C
C6
80
80
80
80
C6
3C
10
18
38
ENDCHAR
STARTCHAR 1E0C
ENCODING 7692
SWIDTH 822 0
DWIDTH 12 0
BBX 9 14 2 -3
BITMAP
FC00
8700
8180
8180
8080
8080
8080
8180
8180
8700
FC00
0000
0000
1000
ENDCHAR
STARTCHAR 1E0D
ENCODING 7693
SWIDTH 685 0
DWIDTH 10 0
BBX 8 14 1 -3
BITMAP
03
03
03
7B
C7
83
83
83
83
C7
3B
00
00
18
ENDCHAR
STARTCHAR 1E0E
ENCODING 7694
SWIDTH 822 0
DWIDTH 12 0
BBX 9 14 2 -3
BITMAP
FC00
8700
8180
8180
8080
8080
8080
8180
8180
8700
FC00
0000
0000
7C00
ENDCHAR
STARTCHAR 1E0F
ENCODING 7695
SWIDTH 685 0
DWIDTH 10 0
BBX 8 14 1 -3
BITMAP
03
03
03
7B
C7
83
83
83
83
C7
3B
00
00
3C
ENDCHAR
STARTCHAR 1E14
ENCODING 7700
SWIDTH 685 0
DWIDTH 10 0
BBX 7 16 2 0
BITMAP
60
30
00
7C
00
FE
80
80
80
80
FC
80
80
80
80
FE
ENDCHAR
STARTCHAR 1E15
ENCODING 7701
SWIDTH 617 0
DWIDTH 9 0
BBX 7 13 1 0
BITMAP
60
10
00
7C
00
7C
C6
82
FE
80
80
66
3C
ENDCHAR
STARTCHAR 1E16
ENCODING 7702
SWIDTH 685 0
DWIDTH 10 0
BBX 7 16 2 0
BITMAP
08
10
00
7C
00
FE
80
80
80
80
FC
80
80
80
80
FE
ENDCHAR
STARTCHAR 1E17
ENCODING 7703
SWIDTH 617 0
DWIDTH 9 0
BBX 7 13 1 0
BITMAP
0C
10
00
7C
00
7C
C6
82
FE
80
80
66
3C
ENDCHAR
STARTCHAR 1E1C
ENCODING 7708
SWIDTH 685 0
DWIDTH 10 0
BBX 7 17 2 -3
BITMAP
48
38
00
FE
80
80
80
80
FC
80
80
80
80
FE
10
18
30
ENDCHAR
STARTCHAR 1E1D
ENCODING 7709
SWIDTH 617 0
DWIDTH 9 0
BBX 7 14 1 -3
BITMAP
44
38
00
7C
C6
82
FE
80
80
66
3C
10
18
38
ENDCHAR
STARTCHAR 1E20
ENCODING 7712
SWIDTH 754 0
DWIDTH 11 0
BBX 9 13 1 0
BITMAP
1E00
0000
1E00
7180
C000
C000
8000
8080
8080
C080
C080
7180
1F00
ENDCHAR
STARTCHAR 1E21
ENCODING 7713
SWIDTH 685 0
DWIDTH 10 0
BBX 8 14 1 -3
BITMAP
7C
00
00
3B
C7
83
83
83
83
C7
3B
03
C6
7C
ENDCHAR
STARTCHAR 1E24
ENCODING 7716
SWIDTH 822 0
DWIDTH 12 0
BBX 8 14 2 -3
BITMAP
81
81
81
81
81
FF
81
81
81
81
81
00
00
18
ENDCHAR
STARTCHAR 1E25
ENCODING 7717
SWIDTH 685 0
DWIDTH 10 0
BBX 8 14 1 -3
BITMAP
C0
C0
C0
FC
E6
C3
C3
C3
C3
C3
C3
00
00
18
ENDCHAR
STARTCHAR 1E2A
ENCODING 7722
SWIDTH 822 0
DWIDTH 12 0
BBX 8 14 2 -3
BITMAP
81
81
81
81
81
FF
81
81
81
81
81
00
24
3C
ENDCHAR
STARTCHAR 1E2B
ENCODING 7723
SWIDTH 685 0
DWIDTH 10 0
BBX 8 14 1 -3
BITMAP
C0
C0
C0
FC
E6
C3
C3
C3
C3
C3
C3
00
24
3C
ENDCHAR
STARTCHAR 1E2E
ENCODING 7726
SWIDTH 342 0
DWIDTH 5 0
BBX 4 16 0 0
BITMAP
10
20
00
D0
00
20
20
20
20
20
20
20
20
20
20
20
ENDCHAR
STARTCHAR 1E2F
ENCODING 7727
SWIDTH 274 0
DWIDTH 4 0
BBX 4 13 0 0
BITMAP
30
40
00
90
00
60
60
60
60
60
60
60
60
ENDCHAR
STARTCHAR 1E36
ENCODING 7734
SWIDTH 617 0
DWIDTH 9 0
BBX 7 14 2 -3
BITMAP
80
80
80
80
80
80
80
80
80
80
FE
00
00
30
ENDCHAR
STARTCHAR 1E37
ENCODING 7735
SWIDTH 274 0
DWIDTH 4 0
BBX 2 14 1 -3
BITMAP
C0
C0
C0
C0
C0
C0
C0
C0
C0
C0
C0
00
00
C0
ENDCHAR
STARTCHAR 1E3A
ENCODING 7738
SWIDTH 617 0
DWIDTH 9 0
BBX 7 14 2 -3
BITMAP
80
80
80
80
80
80
80
80
80
80
FE
00
00
7C
ENDCHAR
STARTCHAR 1E3B
ENCODING 7739
SWIDTH 274 0
DWIDTH 4 0
BBX 4 14 0 -3
BITMAP
60
60
60
60
60
60
60
60
60
60
60
00
00
F0
ENDCHAR
STARTCHAR 1E42
ENCODING 7746
SWIDTH 960 0
DWIDTH 14 0
BBX 10 14 2 -3
BITMAP
8040
C0C0
C0C0
E1C0
A140
B340
9240
9C40
8C40
8040
8040
0000
0000
0C00
ENDCHAR
STARTCHAR 1E43
ENCODING 7747
SWIDTH 1028 0
DWIDTH 15 0
BBX 13 11 1 -3
BITMAP
FCF0
E798
C308
C208
C208
C208
C208
C208
0000
0000
0200
ENDCHAR
STARTCHAR 1E44
ENCODING 7748
SWIDTH 822 0
DWIDTH 12 0
BBX 8 14 2 0
BITMAP
10
18
00
81
C1
E1
A1
B1
99
8D
8D
87
83
81
ENDCHAR
STARTCHAR 1E45
ENCODING 7749
SWIDTH 685 0
DWIDTH 10 0
BBX 8 11 1 0
BITMAP
18
18
00
FC
E6
C3
C3
C3
C3
C3
C3
ENDCHAR
STARTCHAR 1E46
ENCODING 7750
SWIDTH 822 0
DWIDTH 12 0
BBX 8 14 2 -3
BITMAP
81
C1
E1
A1
B1
99
8D
8D
87
83
81
00
00
18
ENDCHAR
STARTCHAR 1E47
ENCODING 7751
SWIDTH 685 0
DWIDTH 10 0
BBX 8 11 1 -3
BITMAP
FC
E6
C3
C3
C3
C3
C3
C3
00
00
18
ENDCHAR
STARTCHAR 1E48
ENCODING 7752
SWIDTH 822 0
DWIDTH 12 0
BBX 8 14 2 -3
BITMAP
81
C1
E1
A1
B1
99
8D
8D
87
83
81
00
00
3C
ENDCHAR
STARTCHAR 1E49
ENCODING 7753
SWIDTH 685 0
DWIDTH 10 0
BBX 8 11 1 -3
BITMAP
FC
E6
C3
C3
C3
C3
C3
C3
00
00
3C
ENDCHAR
STARTCHAR 1E4C
ENCODING 7756
SWIDTH 822 0
DWIDTH 12 0
BBX 11 16 1 0
BITMAP
0200
0400
0800
1E00
0000
1E00
7380
C0C0
C040
8040
8060
8040
C040
C0C0
7380
1E00
ENDCHAR
STARTCHAR 1E4D
ENCODING 7757
SWIDTH 617 0
DWIDTH 9 0
BBX 8 14 1 0
BITMAP
0C
10
00
34
48
00
3C
C6
82
83
83
82
C6
3C
ENDCHAR
STARTCHAR 1E4E
ENCODING 7758
SWIDTH 822 0
DWIDTH 12 0
BBX 11 15 1 0
BITMAP
1200
0000
1E00
0000
1E00
7380
C0C0
C040
8040
8060
8040
C040
C0C0
7380
1E00
ENDCHAR
STARTCHAR 1E4F
ENCODING 7759
SWIDTH 617 0
DWIDTH 9 0
BBX 8 13 1 0
BITMAP
2C
00
34
48
00
3C
C6
82
83
83
82
C6
3C
ENDCHAR
STARTCHAR 1E50
ENCODING 7760
SWIDTH 822 0
DWIDTH 12 0
BBX 11 16 1 0
BITMAP
1800
0C00
0000
1F00
0000
1E00
7380
C0C0
C040
8040
8060
8040
C040
C0C0
7380
1E00
ENDCHAR
STARTCHAR 1E51
ENCODING 7761
SWIDTH 617 0
DWIDTH 9 0
BBX 8 13 1 0
BITMAP
20
10
00
7C
00
3C
C6
82
83
83
82
C6
3C
ENDCHAR
STARTCHAR 1E52
ENCODING 7762
SWIDTH 822 0
DWIDTH 12 0
BBX 11 16 1 0
BITMAP
0200
0400
0000
1F00
0000
1E00
7380
C0C0
C040
8040
8060
8040
C040
C0C0
7380
1E00
ENDCHAR
STARTCHAR 1E53
ENCODING 7763
SWIDTH 617 0
DWIDTH 9 0
BBX 8 13 1 0
BITMAP
0C
10
00
7C
00
3C
C6
82
83
83
82
C6
3C
ENDCHAR
STARTCHAR 1E5A
ENCODING 7770
SWIDTH 754 0
DWIDTH 11 0
BBX 8 14 2 -3
BITMAP
FC
86
83
83
83
86
FC
8C
84
86
83
00
00
10
ENDCHAR
STARTCHAR 1E5B
ENCODING 7771
SWIDTH 411 0
DWIDTH 6 0
BBX 4 11 1 -3
BITMAP
F0
E0
C0
C0
C0
C0
C0
C0
00
00
C0
ENDCHAR
STARTCHAR 1E5E
ENCODING 7774
SWIDTH 754 0
DWIDTH 11 0
BBX 8 14 2 -3
BITMAP
FC
86
83
83
83
86
FC
8C
84
86
83
00
00
7C
ENDCHAR
STARTCHAR 1E5F
ENCODING 7775
SWIDTH 411 0
DWIDTH 6 0
BBX 5 11 0 -3
BITMAP
78
70
60
60
60
60
60
60
00
00
F0
ENDCHAR
STARTCHAR 1E60
ENCODING 7776
SWIDTH 617 0
DWIDTH 9 0
BBX 7 14 1 0
BITMAP
10
10
00
7C
C6
80
80
C0
7C
0E
02
02
C6
7C
ENDCHAR
STARTCHAR 1E61
ENCODING 7777
SWIDTH 480 0
DWIDTH 7 0
BBX 6 11 1 0
BITMAP
20
20
00
78
C8
80
C0
78
0C
8C
F8
ENDCHAR
STARTCHAR 1E62
ENCODING 7778
SWIDTH 617 0
DWIDTH 9 0
BBX 7 14 1 -3
BITMAP
7C
C6
80
80
C0
7C
0E
02
02
C6
7C
00
00
10
ENDCHAR
STARTCHAR 1E63
ENCODING 7779
SWIDTH 480 0
DWIDTH 7 0
BBX 6 11 1 -3
BITMAP
78
C8
80
C0
78
0C
8C
F8
00
00
20
ENDCHAR
STARTCHAR 1E64
ENCODING 7780
SWIDTH 617 0
DWIDTH 9 0
BBX 7 15 1 1
BITMAP
10
00
08
10
7C
C6
80
80
C0
7C
0E
02
02
C6
7C
ENDCHAR
STARTCHAR 1E65
ENCODING 7781
SWIDTH 480 0
DWIDTH 7 0
BBX 6 13 1 0
BITMAP
20
00
18
20
00
78
C8
80
C0
78
0C
8C
F8
ENDCHAR
STARTCHAR 1E66
ENCODING 7782
SWIDTH 617 0
DWIDTH 9 0
BBX 7 15 1 1
BITMAP
10
00
2C
10
7C
C6
80
80
C0
7C
0E
02
02
C6
7C
ENDCHAR
STARTCHAR 1E67
ENCODING 7783
SWIDTH 480 0
DWIDTH 7 0
BBX 6 13 1 1
BITMAP
20
00
58
20
00
78
C8
80
C0
78
0C
8C
F8
ENDCHAR
STARTCHAR 1E68
ENCODING 7784
SWIDTH 617 0
DWIDTH 9 0
BBX 7 17 1 -3
BITMAP
10
10
00
7C
C6
80
80
C0
7C
0E
02
02
C6
7C
00
00
10
ENDCHAR
STARTCHAR 1E69
ENCODING 7785
SWIDTH 480 0
DWIDTH 7 0
BBX 6 14 1 -3
BITMAP
20
20
00
78
C8
80
C0
78
0C
8C
F8
00
00
20
ENDCHAR
STARTCHAR 1E6C
ENCODING 7788
SWIDTH 617 0
DWIDTH 9 0
BBX 8 14 0 -3
BITMAP
FF
08
08
08
08
08
08
08
08
08
08
00
00
08
ENDCHAR
STARTCHAR 1E6D
ENCODING 7789
SWIDTH 411 0
DWIDTH 6 0
BBX 6 13 0 -3
BITMAP
20
20
F8
20
20
20
20
20
20
3C
00
00
10
ENDCHAR
STARTCHAR 1E6E
ENCODING 7790
SWIDTH 617 0
DWIDTH 9 0
BBX 8 14 0 -3
BITMAP
FF
08
08
08
08
08
08
08
08
08
08
00
00
3E
ENDCHAR
STARTCHAR 1E6F
ENCODING 7791
SWIDTH 411 0
DWIDTH 6 0
BBX 6 13 0 -3
BITMAP
20
20
F8
20
20
20
20
20
20
3C
00
00
7C
ENDCHAR
STARTCHAR 1E78
ENCODING 7800
SWIDTH 822 0
DWIDTH 12 0
BBX 9 16 1 0
BITMAP
0600
0C00
0000
1E00
0000
C080
C080
C080
C080
C080
C080
C080
4080
4180
7300
3E00
ENDCHAR
STARTCHAR 1E79
ENCODING 7801
SWIDTH 685 0
DWIDTH 10 0
BBX 8 14 1 0
BITMAP
0C
18
00
34
4C
00
C3
C3
C3
C3
C3
C3
67
3B
ENDCHAR
STARTCHAR 1E7A
ENCODING 7802
SWIDTH 822 0
DWIDTH 12 0
BBX 9 15 1 0
BITMAP
1600
0000
3E00
0000
C080
C080
C080
C080
C080
C080
C080
4080
4180
7300
3E00
ENDCHAR
STARTCHAR 1E7B
ENCODING 7803
SWIDTH 685 0
DWIDTH 10 0
BBX 8 13 1 0
BITMAP
24
00
00
3C
00
C3
C3
C3
C3
C3
C3
67
3B
ENDCHAR
STARTCHAR 1E80
ENCODING 7808
SWIDTH 1097 0
DWIDTH 16 0
BBX 15 14 1 0
BITMAP
0600
0300
0000
8306
8304
C384
468C
448C
64C8
6448
2C58
3870
3830
1830
ENDCHAR
STARTCHAR 1E81
ENCODING 7809
SWIDTH 891 0
DWIDTH 13 0
BBX 13 11 0 0
BITMAP
0C00
0200
0000
C208
4710
4510
6510
2DA0
28A0
38E0
1040
ENDCHAR
STARTCHAR 1E82
ENCODING 7810
SWIDTH 1097 0
DWIDTH 16 0
BBX 15 14 1 0
BITMAP
0080
0100
0000
8306
8304
C384
468C
448C
64C8
6448
2C58
3870
3830
1830
ENDCHAR
STARTCHAR 1E83
ENCODING 7811
SWIDTH 891 0
DWIDTH 13 0
BBX 13 11 0 0
BITMAP
0180
0200
0000
C208
4710
4510
6510
2DA0
28A0
38E0
1040
ENDCHAR
STARTCHAR 1E84
ENCODING 7812
SWIDTH 1097 0
DWIDTH 16 0
BBX 15 13 1 1
BITMAP
0680
0000
8306
8304
C384
468C
448C
64C8
6448
2C58
3870
3830
1830
ENDCHAR
STARTCHAR 1E85
ENCODING 7813
SWIDTH 891 0
DWIDTH 13 0
BBX 13 11 0 0
BITMAP
0D80
0000
0000
C208
4710
4510
6510
2DA0
28A0
38E0
1040
ENDCHAR
STARTCHAR 1E8E
ENCODING 7822
SWIDTH 617 0
DWIDTH 9 0
BBX 9 14 0 0
BITMAP
0800
0C00
0000
C080
4180
6100
2300
3600
1C00
0C00
0800
0800
0800
0800
ENDCHAR
STARTCHAR 1E8F
ENCODING 7823
SWIDTH 548 0
DWIDTH 8 0
BBX 8 14 0 -3
BITMAP
18
10
00
C1
43
42
66
24
3C
18
18
18
90
E0
ENDCHAR
STARTCHAR 1E92
ENCODING 7826
SWIDTH 685 0
DWIDTH 10 0
BBX 8 14 1 -3
BITMAP
FF
03
06
0C
08
18
30
60
40
C0
FF
00
00
18
ENDCHAR
STARTCHAR 1E93
ENCODING 7827
SWIDTH 548 0
DWIDTH 8 0
BBX 6 11 1 -3
BITMAP
FC
08
18
30
20
40
C0
FC
00
00
30
ENDCHAR
STARTCHAR 1E97
ENCODING 7831
SWIDTH 411 0
DWIDTH 6 0
BBX 6 12 0 1
BITMAP
D0
00
20
20
F8
20
20
20
20
20
20
3C
ENDCHAR
STARTCHAR 1E9E
ENCODING 7838
SWIDTH 754 0
DWIDTH 11 0
BBX 9 11 1 0
BITMAP
1F00
7100
4100
4200
C600
CF00
C180
C080
C080
C180
CF00
ENDCHAR
STARTCHAR 1EA0
ENCODING 7840
SWIDTH 754 0
DWIDTH 11 0
BBX 10 14 0 -3
BITMAP
0C00
0E00
0A00
1B00
1100
3100
2180
7F80
40C0
4040
C040
0000
0000
0400
ENDCHAR
STARTCHAR 1EA1
ENCODING 7841
SWIDTH 617 0
DWIDTH 9 0
BBX 6 11 1 -3
BITMAP
78
8C
04
7C
84
84
CC
74
00
00
30
ENDCHAR
STARTCHAR 1EA2
ENCODING 7842
SWIDTH 754 0
DWIDTH 11 0
BBX 10 15 0 0
BITMAP
0C00
0200
0600
0000
0C00
0E00
0A00
1B00
1100
3100
2180
7F80
40C0
4040
C040
ENDCHAR
STARTCHAR 1EA3
ENCODING 7843
SWIDTH 617 0
DWIDTH 9 0
BBX 6 12 1 0
BITMAP
30
08
10
00
78
8C
04
7C
84
84
CC
74
ENDCHAR
STARTCHAR 1EA4
ENCODING 7844
SWIDTH 754 0
DWIDTH 11 0
BBX 10 15 0 0
BITMAP
00C0
0180
1E00
0000
0C00
0E00
0A00
1B00
1100
3100
2180
7F80
40C0
4040
C040
ENDCHAR
STARTCHAR 1EA5
ENCODING 7845
SWIDTH 617 0
DWIDTH 9 0
BBX 8 13 1 0
BITMAP
03
06
38
40
00
78
8C
04
7C
84
84
CC
74
ENDCHAR
STARTCHAR 1EA6
ENCODING 7846
SWIDTH 754 0
DWIDTH 11 0
BBX 10 15 0 0
BITMAP
0200
0100
1E00
0000
0C00
0E00
0A00
1B00
1100
3100
2180
7F80
40C0
4040
C040
ENDCHAR
STARTCHAR 1EA7
ENCODING 7847
SWIDTH 617 0
DWIDTH 9 0
BBX 6 13 1 0
BITMAP
08
04
38
40
00
78
8C
04
7C
84
84
CC
74
ENDCHAR
STARTCHAR 1EA8
ENCODING 7848
SWIDTH 754 0
DWIDTH 11 0
BBX 10 15 0 0
BITMAP
0300
0100
1E00
0000
0C00
0E00
0A00
1B00
1100
3100
2180
7F80
40C0
4040
C040
ENDCHAR
STARTCHAR 1EA9
ENCODING 7849
SWIDTH 617 0
DWIDTH 9 0
BBX 6 13 1 0
BITMAP
0C
04
38
40
00
78
8C
04
7C
84
84
CC
74
ENDCHAR
STARTCHAR 1EAA
ENCODING 7850
SWIDTH 754 0
DWIDTH 11 0
BBX 10 16 0 0
BITMAP
0800
1E00
0000
1E00
0000
0C00
0E00
0A00
1B00
1100
3100
2180
7F80
40C0
4040
C040
ENDCHAR
STARTCHAR 1EAB
ENCODING 7851
SWIDTH 617 0
DWIDTH 9 0
BBX 6 14 1 0
BITMAP
20
78
00
38
40
00
78
8C
04
7C
84
84
CC
74
ENDCHAR
STARTCHAR 1EAC
ENCODING 7852
SWIDTH 754 0
DWIDTH 11 0
BBX 10 17 0 -3
BITMAP
0C00
1A00
0000
0C00
0E00
0A00
1B00
1100
3100
2180
7F80
40C0
4040
C040
0000
0000
0400
ENDCHAR
STARTCHAR 1EAD
ENCODING 7853
SWIDTH 617 0
DWIDTH 9 0
BBX 6 14 1 -3
BITMAP
30
48
00
78
8C
04
7C
84
84
CC
74
00
00
30
ENDCHAR
STARTCHAR 1EAE
ENCODING 7854
SWIDTH 754 0
DWIDTH 11 0
BBX 10 15 0 0
BITMAP
0200
0C00
1E00
0000
0C00
0E00
0A00
1B00
1100
3100
2180
7F80
40C0
4040
C040
ENDCHAR
STARTCHAR 1EAF
ENCODING 7855
SWIDTH 617 0
DWIDTH 9 0
BBX 6 13 1 0
BITMAP
18
30
48
30
00
78
8C
04
7C
84
84
CC
74
ENDCHAR
STARTCHAR 1EB0
ENCODING 7856
SWIDTH 754 0
DWIDTH 11 0
BBX 10 15 0 0
BITMAP
0800
0400
1E00
0000
0C00
0E00
0A00
1B00
1100
3100
2180
7F80
40C0
4040
C040
ENDCHAR
STARTCHAR 1EB1
ENCODING 7857
SWIDTH 617 0
DWIDTH 9 0
BBX 6 13 1 0
BITMAP
20
10
48
30
00
78
8C
04
7C
84
84
CC
74
ENDCHAR
STARTCHAR 1EB2
ENCODING 7858
SWIDTH 754 0
DWIDTH 11 0
BBX 10 16 0 0
BITMAP
0400
0400
1100
0E00
0000
0C00
0E00
0A00
1B00
1100
3100
2180
7F80
40C0
4040
C040
ENDCHAR
STARTCHAR 1EB3
ENCODING 7859
SWIDTH 617 0
DWIDTH 9 0
BBX 6 13 1 0
BITMAP
30
10
48
30
00
78
8C
04
7C
84
84
CC
74
ENDCHAR
STARTCHAR 1EB4
ENCODING 7860
SWIDTH 754 0
DWIDTH 11 0
BBX 10 16 0 0
BITMAP
0800
1E00
1100
0E00
0000
0C00
0E00
0A00
1B00
1100
3100
2180
7F80
40C0
4040
C040
ENDCHAR
STARTCHAR 1EB5
ENCODING 7861
SWIDTH 617 0
DWIDTH 9 0
BBX 6 14 1 0
BITMAP
20
78
40
48
30
00
78
8C
04
7C
84
84
CC
74
ENDCHAR
STARTCHAR 1EB6
ENCODING 7862
SWIDTH 754 0
DWIDTH 11 0
BBX 10 17 0 -3
BITMAP
1100
0E00
0000
0C00
0E00
0A00
1B00
1100
3100
2180
7F80
40C0
4040
C040
0000
0000
0400
ENDCHAR
STARTCHAR 1EB7
ENCODING 7863
SWIDTH 617 0
DWIDTH 9 0
BBX 6 14 1 -3
BITMAP
44
38
00
78
8C
04
7C
84
84
CC
74
00
00
30
ENDCHAR
STARTCHAR 1EB8
ENCODING 7864
SWIDTH 685 0
DWIDTH 10 0
BBX 7 14 2 -3
BITMAP
FE
80
80
80
80
FC
80
80
80
80
FE
00
00
10
ENDCHAR
STARTCHAR 1EB9
ENCODING 7865
SWIDTH 617 0
DWIDTH 9 0
BBX 7 11 1 -3
BITMAP
7C
C6
82
FE
80
80
66
3C
00
00
10
ENDCHAR
STARTCHAR 1EBA
ENCODING 7866
SWIDTH 685 0
DWIDTH 10 0
BBX 7 15 2 0
BITMAP
30
08
10
00
FE
80
80
80
80
FC
80
80
80
80
FE
ENDCHAR
STARTCHAR 1EBB
ENCODING 7867
SWIDTH 617 0
DWIDTH 9 0
BBX 7 12 1 0
BITMAP
38
08
18
00
7C
C6
82
FE
80
80
66
3C
ENDCHAR
STARTCHAR 1EBC
ENCODING 7868
SWIDTH 685 0
DWIDTH 10 0
BBX 7 14 2 0
BITMAP
64
58
00
FE
80
80
80
80
FC
80
80
80
80
FE
ENDCHAR
STARTCHAR 1EBD
ENCODING 7869
SWIDTH 617 0
DWIDTH 9 0
BBX 7 11 1 0
BITMAP
64
5C
00
7C
C6
82
FE
80
80
66
3C
ENDCHAR
STARTCHAR 1EBE
ENCODING 7870
SWIDTH 685 0
DWIDTH 10 0
BBX 8 15 2 0
BITMAP
03
04
78
00
FE
80
80
80
80
FC
80
80
80
80
FE
ENDCHAR
STARTCHAR 1EBF
ENCODING 7871
SWIDTH 617 0
DWIDTH 9 0
BBX 8 13 1 0
BITMAP
03
02
3C
00
00
7C
C6
82
FE
80
80
66
3C
ENDCHAR
STARTCHAR 1EC0
ENCODING 7872
SWIDTH 685 0
DWIDTH 10 0
BBX 7 15 2 0
BITMAP
18
04
78
00
FE
80
80
80
80
FC
80
80
80
80
FE
ENDCHAR
STARTCHAR 1EC1
ENCODING 7873
SWIDTH 617 0
DWIDTH 9 0
BBX 7 13 1 0
BITMAP
08
04
38
00
00
7C
C6
82
FE
80
80
66
3C
ENDCHAR
STARTCHAR 1EC2
ENCODING 7874
SWIDTH 685 0
DWIDTH 10 0
BBX 7 15 2 0
BITMAP
0C
04
78
00
FE
80
80
80
80
FC
80
80
80
80
FE
ENDCHAR
STARTCHAR 1EC3
ENCODING 7875
SWIDTH 617 0
DWIDTH 9 0
BBX 7 13 1 0
BITMAP
04
04
38
00
00
7C
C6
82
FE
80
80
66
3C
ENDCHAR
STARTCHAR 1EC4
ENCODING 7876
SWIDTH 685 0
DWIDTH 10 0
BBX 7 16 2 0
BITMAP
20
78
00
78
00
FE
80
80
80
80
FC
80
80
80
80
FE
ENDCHAR
STARTCHAR 1EC5
ENCODING 7877
SWIDTH 617 0
DWIDTH 9 0
BBX 7 14 1 0
BITMAP
20
7C
08
38
00
00
7C
C6
82
FE
80
80
66
3C
ENDCHAR
STARTCHAR 1EC6
ENCODING 7878
SWIDTH 685 0
DWIDTH 10 0
BBX 7 17 2 -3
BITMAP
30
48
00
FE
80
80
80
80
FC
80
80
80
80
FE
00
00
10
ENDCHAR
STARTCHAR 1EC7
ENCODING 7879
SWIDTH 617 0
DWIDTH 9 0
BBX 7 14 1 -3
BITMAP
38
6C
00
7C
C6
82
FE
80
80
66
3C
00
00
10
ENDCHAR
STARTCHAR 1EC8
ENCODING 7880
SWIDTH 342 0
DWIDTH 5 0
BBX 3 15 1 0
BITMAP
C0
20
40
00
40
40
40
40
40
40
40
40
40
40
40
ENDCHAR
STARTCHAR 1EC9
ENCODING 7881
SWIDTH 274 0
DWIDTH 4 0
BBX 2 12 1 0
BITMAP
C0
40
40
00
C0
C0
C0
C0
C0
C0
C0
C0
ENDCHAR
STARTCHAR 1ECA
ENCODING 7882
SWIDTH 342 0
DWIDTH 5 0
BBX 1 14 2 -3
BITMAP
80
80
80
80
80
80
80
80
80
80
80
00
00
80
ENDCHAR
STARTCHAR 1ECB
ENCODING 7883
SWIDTH 274 0
DWIDTH 4 0
BBX 2 14 1 -3
BITMAP
C0
C0
00
C0
C0
C0
C0
C0
C0
C0
C0
00
00
C0
ENDCHAR
STARTCHAR 1ECC
ENCODING 7884
SWIDTH 822 0
DWIDTH 12 0
BBX 11 14 1 -3
BITMAP
1E00
7380
C0C0
C040
8040
8060
8040
C040
C0C0
7380
1E00
0000
0000
0C00
ENDCHAR
STARTCHAR 1ECD
ENCODING 7885
SWIDTH 617 0
DWIDTH 9 0
BBX 8 11 1 -3
BITMAP
3C
C6
82
83
83
82
C6
3C
00
00
10
ENDCHAR
STARTCHAR 1ECE
ENCODING 7886
SWIDTH 822 0
DWIDTH 12 0
BBX 11 15 1 0
BITMAP
0C00
0200
0400
0000
1E00
7380
C0C0
C040
8040
8060
8040
C040
C0C0
7380
1E00
ENDCHAR
STARTCHAR 1ECF
ENCODING 7887
SWIDTH 617 0
DWIDTH 9 0
BBX 8 12 1 0
BITMAP
38
08
18
00
3C
C6
82
83
83
82
C6
3C
ENDCHAR
STARTCHAR 1ED0
ENCODING 7888
SWIDTH 822 0
DWIDTH 12 0
BBX 11 15 1 0
BITMAP
00C0
0100
0C00
1200
1E00
7380
C0C0
C040
8040
8060
8040
C040
C0C0
7380
1E00
ENDCHAR
STARTCHAR 1ED1
ENCODING 7889
SWIDTH 617 0
DWIDTH 9 0
BBX 8 13 1 0
BITMAP
01
02
38
04
00
3C
C6
82
83
83
82
C6
3C
ENDCHAR
STARTCHAR 1ED2
ENCODING 7890
SWIDTH 822 0
DWIDTH 12 0
BBX 11 15 1 0
BITMAP
0600
0100
0C00
1200
1E00
7380
C0C0
C040
8040
8060
8040
C040
C0C0
7380
1E00
ENDCHAR
STARTCHAR 1ED3
ENCODING 7891
SWIDTH 617 0
DWIDTH 9 0
BBX 8 13 1 0
BITMAP
0C
06
38
04
00
3C
C6
82
83
83
82
C6
3C
ENDCHAR
STARTCHAR 1ED4
ENCODING 7892
SWIDTH 822 0
DWIDTH 12 0
BBX 11 15 1 0
BITMAP
0300
0100
0C00
1200
1E00
7380
C0C0
C040
8040
8060
8040
C040
C0C0
7380
1E00
ENDCHAR
STARTCHAR 1ED5
ENCODING 7893
SWIDTH 617 0
DWIDTH 9 0
BBX 8 13 1 0
BITMAP
04
02
38
04
00
3C
C6
82
83
83
82
C6
3C
ENDCHAR
STARTCHAR 1ED6
ENCODING 7894
SWIDTH 822 0
DWIDTH 12 0
BBX 11 16 1 0
BITMAP
0800
1E00
0000
0C00
1200
1E00
7380
C0C0
C040
8040
8060
8040
C040
C0C0
7380
1E00
ENDCHAR
STARTCHAR 1ED7
ENCODING 7895
SWIDTH 617 0
DWIDTH 9 0
BBX 8 13 1 1
BITMAP
7C
08
38
04
00
3C
C6
82
83
83
82
C6
3C
ENDCHAR
STARTCHAR 1ED8
ENCODING 7896
SWIDTH 822 0
DWIDTH 12 0
BBX 11 17 1 -3
BITMAP
0C00
1200
0000
1E00
7380
C0C0
C040
8040
8060
8040
C040
C0C0
7380
1E00
0000
0000
0C00
ENDCHAR
STARTCHAR 1ED9
ENCODING 7897
SWIDTH 617 0
DWIDTH 9 0
BBX 8 14 1 -3
BITMAP
18
2C
00
3C
C6
82
83
83
82
C6
3C
00
00
10
ENDCHAR
STARTCHAR 1EDA
ENCODING 7898
SWIDTH 822 0
DWIDTH 12 0
BBX 11 14 1 0
BITMAP
0200
0440
0040
1FC0
7380
C0C0
C040
8040
8060
8040
C040
C0C0
7380
1E00
ENDCHAR
STARTCHAR 1EDB
ENCODING 7899
SWIDTH 617 0
DWIDTH 9 0
BBX 8 11 1 0
BITMAP
0C
12
02
3E
C6
82
83
83
82
C6
3C
ENDCHAR
STARTCHAR 1EDC
ENCODING 7900
SWIDTH 822 0
DWIDTH 12 0
BBX 11 14 1 0
BITMAP
1800
0C40
0040
1FC0
7380
C0C0
C040
8040
8060
8040
C040
C0C0
7380
1E00
ENDCHAR
STARTCHAR 1EDD
ENCODING 7901
SWIDTH 617 0
DWIDTH 9 0
BBX 8 11 1 0
BITMAP
60
12
02
3E
C6
82
83
83
82
C6
3C
ENDCHAR
STARTCHAR 1EDE
ENCODING 7902
SWIDTH 822 0
DWIDTH 12 0
BBX 11 15 1 0
BITMAP
0C00
0200
0440
0040
1FC0
7380
C0C0
C040
8040
8060
8040
C040
C0C0
7380
1E00
ENDCHAR
STARTCHAR 1EDF
ENCODING 7903
SWIDTH 617 0
DWIDTH 9 0
BBX 8 12 1 0
BITMAP
38
08
1A
02
3E
C6
82
83
83
82
C6
3C
ENDCHAR
STARTCHAR 1EE0
ENCODING 7904
SWIDTH 822 0
DWIDTH 12 0
BBX 11 14 1 0
BITMAP
1800
1640
0040
1FC0
7380
C0C0
C040
8040
8060
8040
C040
C0C0
7380
1E00
ENDCHAR
STARTCHAR 1EE1
ENCODING 7905
SWIDTH 617 0
DWIDTH 9 0
BBX 8 11 1 0
BITMAP
34
4E
02
3E
C6
82
83
83
82
C6
3C
ENDCHAR
STARTCHAR 1EE2
ENCODING 7906
SWIDTH 822 0
DWIDTH 12 0
BBX 11 16 1 -3
BITMAP
0040
0040
1FC0
7380
C0C0
C040
8040
8060
8040
C040
C0C0
7380
1E00
0000
0000
0C00
ENDCHAR
STARTCHAR 1EE3
ENCODING 7907
SWIDTH 617 0
DWIDTH 9 0
BBX 8 13 1 -3
BITMAP
02
02
3E
C6
82
83
83
82
C6
3C
00
00
10
ENDCHAR
STARTCHAR 1EE4
ENCODING 7908
SWIDTH 822 0
DWIDTH 12 0
BBX 9 14 1 -3
BITMAP
C080
C080
C080
C080
C080
C080
C080
4080
4180
7300
3E00
0000
0000
0800
ENDCHAR
STARTCHAR 1EE5
ENCODING 7909
SWIDTH 685 0
DWIDTH 10 0
BBX 8 11 1 -3
BITMAP
C3
C3
C3
C3
C3
C3
67
3B
00
00
18
ENDCHAR
STARTCHAR 1EE6
ENCODING 7910
SWIDTH 822 0
DWIDTH 12 0
BBX 9 15 1 0
BITMAP
0C00
0400
0400
0000
C080
C080
C080
C080
C080
C080
C080
4080
4180
7300
3E00
ENDCHAR
STARTCHAR 1EE7
ENCODING 7911
SWIDTH 685 0
DWIDTH 10 0
BBX 8 12 1 0
BITMAP
18
08
08
00
C3
C3
C3
C3
C3
C3
67
3B
ENDCHAR
STARTCHAR 1EE8
ENCODING 7912
SWIDTH 822 0
DWIDTH 12 0
BBX 11 14 1 0
BITMAP
0600
0C60
0060
C0C0
C080
C080
C080
C080
C080
C080
4080
4180
7300
3E00
ENDCHAR
STARTCHAR 1EE9
ENCODING 7913
SWIDTH 685 0
DWIDTH 10 0
BBX 9 11 1 0
BITMAP
0C00
1880
0080
C300
C300
C300
C300
C300
C300
6700
3B00
ENDCHAR
STARTCHAR 1EEA
ENCODING 7914
SWIDTH 822 0
DWIDTH 12 0
BBX 11 14 1 0
BITMAP
1000
0860
0060
C0C0
C080
C080
C080
C080
C080
C080
4080
4180
7300
3E00
ENDCHAR
STARTCHAR 1EEB
ENCODING 7915
SWIDTH 685 0
DWIDTH 10 0
BBX 9 11 1 0
BITMAP
3000
1880
0080
C300
C300
C300
C300
C300
C300
6700
3B00
ENDCHAR
STARTCHAR 1EEC
ENCODING 7916
SWIDTH 822 0
DWIDTH 12 0
BBX 11 15 1 0
BITMAP
0C00
0400
0440
0060
C0C0
C080
C080
C080
C080
C080
C080
4080
4180
7300
3E00
ENDCHAR
STARTCHAR 1EED
ENCODING 7917
SWIDTH 685 0
DWIDTH 10 0
BBX 9 12 1 0
BITMAP
1800
0800
0880
0080
C300
C300
C300
C300
C300
C300
6700
3B00
ENDCHAR
STARTCHAR 1EEE
ENCODING 7918
SWIDTH 822 0
DWIDTH 12 0
BBX 11 14 1 0
BITMAP
1200
2E40
0060
C0C0
C080
C080
C080
C080
C080
C080
4080
4180
7300
3E00
ENDCHAR
STARTCHAR 1EEF
ENCODING 7919
SWIDTH 685 0
DWIDTH 10 0
BBX 9 11 1 1
BITMAP
3400
4C80
0080
C300
C300
C300
C300
C300
C300
6700
3B00
ENDCHAR
STARTCHAR 1EF0
ENCODING 7920
SWIDTH 822 0
DWIDTH 12 0
BBX 11 16 1 -3
BITMAP
0040
0060
C0C0
C080
C080
C080
C080
C080
C080
4080
4180
7300
3E00
0000
0000
0800
ENDCHAR
STARTCHAR 1EF1
ENCODING 7921
SWIDTH 685 0
DWIDTH 10 0
BBX 9 13 1 -3
BITMAP
0080
0080
C300
C300
C300
C300
C300
C300
6700
3B00
0000
0000
1800
ENDCHAR
STARTCHAR 1EF2
ENCODING 7922
SWIDTH 617 0
DWIDTH 9 0
BBX 9 14 0 0
BITMAP
1000
0800
0000
C080
4180
6100
2300
3600
1C00
0C00
0800
0800
0800
0800
ENDCHAR
STARTCHAR 1EF3
ENCODING 7923
SWIDTH 548 0
DWIDTH 8 0
BBX 8 14 0 -3
BITMAP
30
18
00
C1
43
42
66
24
3C
18
18
18
90
E0
ENDCHAR
STARTCHAR 1EF4
ENCODING 7924
SWIDTH 617 0
DWIDTH 9 0
BBX 9 14 0 -3
BITMAP
C080
4180
6100
2300
3600
1C00
0C00
0800
0800
0800
0800
0000
0000
0800
ENDCHAR
STARTCHAR 1EF5
ENCODING 7925
SWIDTH 548 0
DWIDTH 8 0
BBX 8 11 0 -3
BITMAP
C1
43
42
66
24
3C
18
18
18
90
E6
ENDCHAR
STARTCHAR 1EF6
ENCODING 7926
SWIDTH 617 0
DWIDTH 9 0
BBX 9 15 0 0
BITMAP
0C00
0400
0400
0000
C080
4180
6100
2300
3600
1C00
0C00
0800
0800
0800
0800
ENDCHAR
STARTCHAR 1EF7
ENCODING 7927
SWIDTH 548 0
DWIDTH 8 0
BBX 8 15 0 -3
BITMAP
18
08
08
00
C1
43
42
66
24
3C
18
18
18
90
E0
ENDCHAR
STARTCHAR 1EF8
ENCODING 7928
SWIDTH 617 0
DWIDTH 9 0
BBX 9 14 0 0
BITMAP
1200
2E00
0000
C080
4180
6100
2300
3600
1C00
0C00
0800
0800
0800
0800
ENDCHAR
STARTCHAR 1EF9
ENCODING 7929
SWIDTH 548 0
DWIDTH 8 0
BBX 8 14 0 -2
BITMAP
34
4C
00
C1
43
42
66
24
3C
18
18
18
90
E0
ENDCHAR
STARTCHAR 2007
ENCODING 8199
SWIDTH 685 0
DWIDTH 10 0
BBX 0 0 0 0
BITMAP
ENDCHAR
STARTCHAR 2008
ENCODING 8200
SWIDTH 205 0
DWIDTH 3 0
BBX 0 0 0 0
BITMAP
ENDCHAR
STARTCHAR 2009
ENCODING 8201
SWIDTH 137 0
DWIDTH 2 0
BBX 0 0 0 0
BITMAP
ENDCHAR
STARTCHAR 200A
ENCODING 8202
SWIDTH 68 0
DWIDTH 1 0
BBX 0 0 0 0
BITMAP
ENDCHAR
STARTCHAR 200B
ENCODING 8203
SWIDTH 0 0
DWIDTH 0 0
BBX 0 0 0 0
BITMAP
ENDCHAR
STARTCHAR 2010
ENCODING 8208
SWIDTH 411 0
DWIDTH 6 0
BBX 4 1 1 4
BITMAP
F0
ENDCHAR
STARTCHAR 2012
ENCODING 8210
SWIDTH 685 0
DWIDTH 10 0
BBX 9 1 1 5
BITMAP
FF80
ENDCHAR
STARTCHAR 2013
ENCODING 8211
SWIDTH 480 0
DWIDTH 7 0
BBX 7 1 0 4
BITMAP
FE
ENDCHAR
STARTCHAR 2014
ENCODING 8212
SWIDTH 1028 0
DWIDTH 15 0
BBX 15 1 0 4
BITMAP
FFFE
ENDCHAR
STARTCHAR 2015
ENCODING 8213
SWIDTH 1028 0
DWIDTH 15 0
BBX 15 1 0 4
BITMAP
FFFE
ENDCHAR
STARTCHAR 2018
ENCODING 8216
SWIDTH 205 0
DWIDTH 3 0
BBX 2 4 1 7
BITMAP
80
80
80
C0
ENDCHAR
STARTCHAR 2019
ENCODING 8217
SWIDTH 205 0
DWIDTH 3 0
BBX 2 4 1 7
BITMAP
80
C0
80
80
ENDCHAR
STARTCHAR 201A
ENCODING 8218
SWIDTH 205 0
DWIDTH 3 0
BBX 2 4 1 -2
BITMAP
80
C0
80
80
ENDCHAR
STARTCHAR 201C
ENCODING 8220
SWIDTH 411 0
DWIDTH 6 0
BBX 4 4 1 7
BITMAP
90
90
90
D0
ENDCHAR
STARTCHAR 201D
ENCODING 8221
SWIDTH 411 0
DWIDTH 6 0
BBX 4 4 1 7
BITMAP
90
D0
90
90
ENDCHAR
STARTCHAR 201E
ENCODING 8222
SWIDTH 411 0
DWIDTH 6 0
BBX 4 4 1 -2
BITMAP
90
D0
90
90
ENDCHAR
STARTCHAR 2020
ENCODING 8224
SWIDTH 548 0
DWIDTH 8 0
BBX 8 14 0 -3
BITMAP
18
18
18
18
FF
18
18
18
18
18
18
18
18
18
ENDCHAR
STARTCHAR 2021
ENCODING 8225
SWIDTH 548 0
DWIDTH 8 0
BBX 8 14 0 -3
BITMAP
18
18
18
18
FF
18
18
18
18
FF
18
18
18
18
ENDCHAR
STARTCHAR 2022
ENCODING 8226
SWIDTH 342 0
DWIDTH 5 0
BBX 3 3 1 3
BITMAP
40
E0
C0
ENDCHAR
STARTCHAR 2026
ENCODING 8230
SWIDTH 685 0
DWIDTH 10 0
BBX 8 2 1 0
BITMAP
99
99
ENDCHAR
STARTCHAR 2030
ENCODING 8240
SWIDTH 1234 0
DWIDTH 18 0
BBX 16 11 1 0
BITMAP
E080
9100
9300
9200
9400
65C6
0A49
1231
1231
2249
61CE
ENDCHAR
STARTCHAR 2032
ENCODING 8242
SWIDTH 205 0
DWIDTH 3 0
BBX 1 4 1 7
BITMAP
80
80
80
80
ENDCHAR
STARTCHAR 2033
ENCODING 8243
SWIDTH 411 0
DWIDTH 6 0
BBX 4 4 1 7
BITMAP
90
90
90
90
ENDCHAR
STARTCHAR 2039
ENCODING 8249
SWIDTH 342 0
DWIDTH 5 0
BBX 3 6 1 1
BITMAP
20
40
C0
80
40
60
ENDCHAR
STARTCHAR 203A
ENCODING 8250
SWIDTH 342 0
DWIDTH 5 0
BBX 3 6 1 1
BITMAP
80
C0
40
60
40
80
ENDCHAR
STARTCHAR 2044
ENCODING 8260
SWIDTH 205 0
DWIDTH 3 0
BBX 7 11 -2 0
BITMAP
02
04
04
08
10
10
20
60
40
80
80
ENDCHAR
STARTCHAR 2052
ENCODING 8274
SWIDTH 548 0
DWIDTH 8 0
BBX 6 11 1 0
BITMAP
C8
C8
10
10
10
20
20
20
40
48
4C
ENDCHAR
STARTCHAR 2070
ENCODING 8304
SWIDTH 411 0
DWIDTH 6 0
BBX 6 6 0 5
BITMAP
38
4C
84
84
4C
78
ENDCHAR
STARTCHAR 2074
ENCODING 8308
SWIDTH 411 0
DWIDTH 6 0
BBX 6 6 0 5
BITMAP
10
20
60
48
FC
08
ENDCHAR
STARTCHAR 2075
ENCODING 8309
SWIDTH 411 0
DWIDTH 6 0
BBX 5 6 1 5
BITMAP
F0
80
F0
18
10
F0
ENDCHAR
STARTCHAR 2076
ENCODING 8310
SWIDTH 411 0
DWIDTH 6 0
BBX 5 6 1 5
BITMAP
70
80
F0
88
88
70
ENDCHAR
STARTCHAR 2077
ENCODING 8311
SWIDTH 411 0
DWIDTH 6 0
BBX 5 6 1 5
BITMAP
F8
10
10
20
20
40
ENDCHAR
STARTCHAR 2078
ENCODING 8312
SWIDTH 411 0
DWIDTH 6 0
BBX 6 6 0 5
BITMAP
78
44
78
44
C4
78
ENDCHAR
STARTCHAR 2079
ENCODING 8313
SWIDTH 411 0
DWIDTH 6 0
BBX 5 6 1 5
BITMAP
F0
90
98
E8
10
E0
ENDCHAR
STARTCHAR 2080
ENCODING 8320
SWIDTH 411 0
DWIDTH 6 0
BBX 6 7 0 -2
BITMAP
30
48
44
84
C4
48
38
ENDCHAR
STARTCHAR 2081
ENCODING 8321
SWIDTH 411 0
DWIDTH 6 0
BBX 4 7 1 -2
BITMAP
E0
20
20
20
20
20
F0
ENDCHAR
STARTCHAR 2082
ENCODING 8322
SWIDTH 411 0
DWIDTH 6 0
BBX 5 7 1 -2
BITMAP
E0
10
10
30
60
40
F8
ENDCHAR
STARTCHAR 2083
ENCODING 8323
SWIDTH 411 0
DWIDTH 6 0
BBX 5 7 1 -2
BITMAP
F0
10
20
70
18
10
F0
ENDCHAR
STARTCHAR 2084
ENCODING 8324
SWIDTH 411 0
DWIDTH 6 0
BBX 6 7 0 -2
BITMAP
10
30
20
48
FC
08
08
ENDCHAR
STARTCHAR 2085
ENCODING 8325
SWIDTH 411 0
DWIDTH 6 0
BBX 5 7 1 -2
BITMAP
F0
80
80
F0
18
18
F0
ENDCHAR
STARTCHAR 2086
ENCODING 8326
SWIDTH 411 0
DWIDTH 6 0
BBX 5 7 1 -2
BITMAP
70
80
80
F0
88
88
70
ENDCHAR
STARTCHAR 2087
ENCODING 8327
SWIDTH 411 0
DWIDTH 6 0
BBX 5 7 1 -2
BITMAP
F8
90
10
30
20
20
40
ENDCHAR
STARTCHAR 2088
ENCODING 8328
SWIDTH 411 0
DWIDTH 6 0
BBX 6 7 0 -2
BITMAP
38
4C
4C
78
C4
C4
78
ENDCHAR
STARTCHAR 2089
ENCODING 8329
SWIDTH 411 0
DWIDTH 6 0
BBX 6 7 0 -2
BITMAP
30
48
CC
74
04
08
70
ENDCHAR
STARTCHAR 20A1
ENCODING 8353
SWIDTH 754 0
DWIDTH 11 0
BBX 9 15 1 -2
BITMAP
0500
0500
3F00
7B80
CA00
CA00
9200
9400
9400
D400
6400
7B80
3E00
2800
0800
ENDCHAR
STARTCHAR 20A3
ENCODING 8355
SWIDTH 685 0
DWIDTH 10 0
BBX 9 11 0 0
BITMAP
3F80
2000
2000
2000
2000
3F80
2000
2000
FE00
2000
2000
ENDCHAR
STARTCHAR 20A4
ENCODING 8356
SWIDTH 617 0
DWIDTH 9 0
BBX 9 11 0 0
BITMAP
0F80
1880
3000
2000
FE00
2000
FE00
2000
2000
2000
FF80
ENDCHAR
STARTCHAR 20A6
ENCODING 8358
SWIDTH 891 0
DWIDTH 13 0
BBX 12 11 0 0
BITMAP
3060
3060
3860
2C60
FFF0
2660
FFF0
21E0
20E0
20E0
2060
ENDCHAR
STARTCHAR 20A7
ENCODING 8359
SWIDTH 1645 0
DWIDTH 24 0
BBX 21 11 2 0
BITMAP
FC0000
863000
833000
837CF8
833188
833180
8630F0
FC3018
803008
803188
801CF0
ENDCHAR
STARTCHAR 20A9
ENCODING 8361
SWIDTH 1165 0
DWIDTH 17 0
BBX 17 11 0 0
BITMAP
40C180
60C100
61C300
216300
FFFF80
332600
FFFF80
1A3400
1E1400
0C1C00
0C1800
ENDCHAR
STARTCHAR 20AB
ENCODING 8363
SWIDTH 685 0
DWIDTH 10 0
BBX 9 13 1 -2
BITMAP
0300
1F80
0300
7B00
C700
8300
8300
8300
8300
C700
3B00
0000
FF00
ENDCHAR
STARTCHAR 20AC
ENCODING 8364
SWIDTH 822 0
DWIDTH 12 0
BBX 11 11 0 0
BITMAP
07C0
1C60
1800
3000
FF00
2000
FF00
3000
1800
1C60
07C0
ENDCHAR
STARTCHAR 20AD
ENCODING 8365
SWIDTH 685 0
DWIDTH 10 0
BBX 9 11 0 0
BITMAP
2180
2100
2300
2600
2C00
FF80
2C00
2600
2300
2100
2180
ENDCHAR
STARTCHAR 20AE
ENCODING 8366
SWIDTH 685 0
DWIDTH 10 0
BBX 8 11 1 0
BITMAP
FF
18
18
1A
1C
3A
5C
18
78
18
18
ENDCHAR
STARTCHAR 20B1
ENCODING 8369
SWIDTH 822 0
DWIDTH 12 0
BBX 12 11 0 0
BITMAP
3F00
21C0
FFF0
2040
FFF0
20C0
3F80
2000
2000
2000
2000
ENDCHAR
STARTCHAR 20B2
ENCODING 8370
SWIDTH 754 0
DWIDTH 11 0
BBX 9 15 1 -2
BITMAP
0800
0800
1E00
7B80
6880
C800
8800
8800
8880
C880
C880
7980
1F00
0800
0800
ENDCHAR
STARTCHAR 20B4
ENCODING 8372
SWIDTH 822 0
DWIDTH 12 0
BBX 10 11 1 0
BITMAP
3E00
2300
0180
0180
FFC0
0000
FFC0
6000
6000
3180
1F00
ENDCHAR
STARTCHAR 20B5
ENCODING 8373
SWIDTH 754 0
DWIDTH 11 0
BBX 9 15 1 -2
BITMAP
0800
0800
1E00
7B80
C800
C800
8800
8800
8800
C800
C800
7B80
1E00
0800
0800
ENDCHAR
STARTCHAR 20B8
ENCODING 8376
SWIDTH 754 0
DWIDTH 11 0
BBX 9 11 1 0
BITMAP
FF80
0000
FF80
0800
0800
0800
0800
0800
0800
0800
0800
ENDCHAR
STARTCHAR 20B9
ENCODING 8377
SWIDTH 754 0
DWIDTH 11 0
BBX 10 11 0 0
BITMAP
FFC0
0300
FFC0
0100
0100
0300
3E00
0400
0600
0300
0100
ENDCHAR
STARTCHAR 20BA
ENCODING 8378
SWIDTH 685 0
DWIDTH 10 0
BBX 10 11 0 0
BITMAP
2000
2200
2C00
3200
6400
B800
60C0
A080
2180
2300
3E00
ENDCHAR
STARTCHAR 20BC
ENCODING 8380
SWIDTH 891 0
DWIDTH 13 0
BBX 10 13 2 0
BITMAP
0800
0800
3E00
6B00
C980
8880
88C0
88C0
88C0
88C0
88C0
80C0
80C0
ENDCHAR
STARTCHAR 20BD
ENCODING 8381
SWIDTH 754 0
DWIDTH 11 0
BBX 10 11 0 0
BITMAP
3F00
21C0
20C0
2040
2040
20C0
3F80
2000
FE00
2000
2000
ENDCHAR
STARTCHAR 2113
ENCODING 8467
SWIDTH 480 0
DWIDTH 7 0
BBX 5 11 1 0
BITMAP
38
28
48
48
50
50
60
C0
80
48
70
ENDCHAR
STARTCHAR 2116
ENCODING 8470
SWIDTH 1234 0
DWIDTH 18 0
BBX 15 11 2 0
BITMAP
811C
C122
E122
E122
B11C
9900
8D3E
8D00
8700
8300
8100
ENDCHAR
STARTCHAR 2122
ENCODING 8482
SWIDTH 1028 0
DWIDTH 15 0
BBX 13 6 0 5
BITMAP
FF08
2308
2298
22E8
2268
2208
ENDCHAR
STARTCHAR 2126
ENCODING 8486
SWIDTH 891 0
DWIDTH 13 0
BBX 13 11 0 0
BITMAP
0F80
18C0
3060
6030
6030
6030
6030
6030
3060
18C0
F8F8
ENDCHAR
STARTCHAR 212A
ENCODING 8490
SWIDTH 685 0
DWIDTH 10 0
BBX 8 11 2 0
BITMAP
83
86
8C
98
B0
B0
F8
CC
86
82
83
ENDCHAR
STARTCHAR 212B
ENCODING 8491
SWIDTH 754 0
DWIDTH 11 0
BBX 10 15 0 0
BITMAP
0E00
1200
0E00
0000
0C00
0E00
0A00
1B00
1100
3100
2180
7F80
40C0
4040
C040
ENDCHAR
STARTCHAR 212E
ENCODING 8494
SWIDTH 891 0
DWIDTH 13 0
BBX 11 11 1 0
BITMAP
1F00
6080
4040
C060
C060
FF80
C000
C000
4000
4080
3F00
ENDCHAR
STARTCHAR 2153
ENCODING 8531
SWIDTH 1028 0
DWIDTH 15 0
BBX 13 11 1 0
BITMAP
E040
2040
2080
2100
21F8
2218
5410
0430
0808
1808
1078
ENDCHAR
STARTCHAR 2154
ENCODING 8532
SWIDTH 1028 0
DWIDTH 15 0
BBX 13 11 1 0
BITMAP
F040
1040
1080
3100
61F8
C218
FC10
0430
0808
1808
1078
ENDCHAR
STARTCHAR 215B
ENCODING 8539
SWIDTH 1028 0
DWIDTH 15 0
BBX 14 11 1 0
BITMAP
E040
2040
2080
2100
2178
F288
0448
0478
088C
1884
1078
ENDCHAR
STARTCHAR 215C
ENCODING 8540
SWIDTH 1028 0
DWIDTH 15 0
BBX 14 11 1 0
BITMAP
F040
2040
7080
1100
0970
92C8
6488
0478
088C
1884
1078
ENDCHAR
STARTCHAR 215D
ENCODING 8541
SWIDTH 1028 0
DWIDTH 15 0
BBX 14 11 1 0
BITMAP
F040
8040
8080
F100
1900
1278
E488
0478
088C
1884
1078
ENDCHAR
STARTCHAR 215E
ENCODING 8542
SWIDTH 1028 0
DWIDTH 15 0
BBX 14 11 1 0
BITMAP
F840
1040
1080
2100
2170
42C8
0488
0478
088C
1884
1078
ENDCHAR
STARTCHAR 2190
ENCODING 8592
SWIDTH 617 0
DWIDTH 9 0
BBX 7 6 1 1
BITMAP
30
20
40
FE
40
20
ENDCHAR
STARTCHAR 2191
ENCODING 8593
SWIDTH 617 0
DWIDTH 9 0
BBX 6 6 1 1
BITMAP
38
5C
90
10
10
10
ENDCHAR
STARTCHAR 2192
ENCODING 8594
SWIDTH 617 0
DWIDTH 9 0
BBX 6 6 1 1
BITMAP
10
08
0C
FC
0C
08
ENDCHAR
STARTCHAR 2193
ENCODING 8595
SWIDTH 617 0
DWIDTH 9 0
BBX 5 6 2 1
BITMAP
20
20
20
20
F8
70
ENDCHAR
STARTCHAR 2194
ENCODING 8596
SWIDTH 754 0
DWIDTH 11 0
BBX 9 6 1 1
BITMAP
2200
4300
C100
FF80
C100
6300
ENDCHAR
STARTCHAR 2195
ENCODING 8597
SWIDTH 617 0
DWIDTH 9 0
BBX 6 9 1 1
BITMAP
10
78
D4
10
10
10
D4
7C
10
ENDCHAR
STARTCHAR 2196
ENCODING 8598
SWIDTH 617 0
DWIDTH 9 0
BBX 5 6 2 1
BITMAP
70
C0
E0
B0
98
08
ENDCHAR
STARTCHAR 2197
ENCODING 8599
SWIDTH 617 0
DWIDTH 9 0
BBX 5 6 2 1
BITMAP
70
18
38
68
C8
80
ENDCHAR
STARTCHAR 2198
ENCODING 8600
SWIDTH 617 0
DWIDTH 9 0
BBX 5 6 2 1
BITMAP
80
C8
68
38
18
70
ENDCHAR
STARTCHAR 2199
ENCODING 8601
SWIDTH 617 0
DWIDTH 9 0
BBX 5 6 2 1
BITMAP
08
98
B0
E0
E0
10
ENDCHAR
STARTCHAR 2202
ENCODING 8706
SWIDTH 685 0
DWIDTH 10 0
BBX 8 11 1 0
BITMAP
78
0E
02
03
01
7D
C3
83
C3
46
3C
ENDCHAR
STARTCHAR 2205
ENCODING 8709
SWIDTH 548 0
DWIDTH 8 0
BBX 7 7 1 2
BITMAP
02
3C
44
9C
A4
44
B8
ENDCHAR
STARTCHAR 2206
ENCODING 8710
SWIDTH 754 0
DWIDTH 11 0
BBX 10 11 0 0
BITMAP
0C00
0E00
0A00
1B00
1100
3100
2180
6080
60C0
40C0
FFC0
ENDCHAR
STARTCHAR 220F
ENCODING 8719
SWIDTH 822 0
DWIDTH 12 0
BBX 8 14 2 -3
BITMAP
FF
81
81
81
81
81
81
81
81
81
81
81
81
81
ENDCHAR
STARTCHAR 2211
ENCODING 8721
SWIDTH 685 0
DWIDTH 10 0
BBX 8 14 1 -3
BITMAP
FF
C0
60
20
30
18
0C
0C
18
30
20
60
C0
FF
ENDCHAR
STARTCHAR 2212
ENCODING 8722
SWIDTH 548 0
DWIDTH 8 0
BBX 7 1 1 5
BITMAP
FE
ENDCHAR
STARTCHAR 2215
ENCODING 8725
SWIDTH 342 0
DWIDTH 5 0
BBX 6 14 0 -2
BITMAP
0C
08
08
18
10
10
20
20
20
40
40
C0
80
80
ENDCHAR
STARTCHAR 2219
ENCODING 8729
SWIDTH 274 0
DWIDTH 4 0
BBX 2 2 1 4
BITMAP
C0
C0
ENDCHAR
STARTCHAR 221A
ENCODING 8730
SWIDTH 822 0
DWIDTH 12 0
BBX 11 14 1 -3
BITMAP
0060
0040
0040
00C0
0080
E080
2180
3100
1100
1300
1A00
0E00
0E00
0C00
ENDCHAR
STARTCHAR 221E
ENCODING 8734
SWIDTH 891 0
DWIDTH 13 0
BBX 12 6 1 2
BITMAP
71E0
8B20
8610
8610
8B20
71E0
ENDCHAR
STARTCHAR 222B
ENCODING 8747
SWIDTH 411 0
DWIDTH 6 0
BBX 7 14 -1 -3
BITMAP
0E
18
18
18
18
18
18
18
18
18
18
18
10
F0
ENDCHAR
STARTCHAR 2248
ENCODING 8776
SWIDTH 548 0
DWIDTH 8 0
BBX 7 6 1 2
BITMAP
F2
9C
00
62
B4
9C
ENDCHAR
STARTCHAR 2260
ENCODING 8800
SWIDTH 548 0
DWIDTH 8 0
BBX 7 8 1 1
BITMAP
04
08
FE
10
30
FE
40
40
ENDCHAR
STARTCHAR 2264
ENCODING 8804
SWIDTH 548 0
DWIDTH 8 0
BBX 7 9 1 0
BITMAP
06
1C
E0
C0
38
0E
00
00
FE
ENDCHAR
STARTCHAR 2265
ENCODING 8805
SWIDTH 548 0
DWIDTH 8 0
BBX 7 9 1 0
BITMAP
80
70
1C
0E
38
C0
00
00
FE
ENDCHAR
STARTCHAR 25A0
ENCODING 9632
SWIDTH 617 0
DWIDTH 9 0
BBX 5 6 2 1
BITMAP
F8
F8
F8
F8
F8
F8
ENDCHAR
STARTCHAR 25A1
ENCODING 9633
SWIDTH 617 0
DWIDTH 9 0
BBX 5 6 2 1
BITMAP
F8
88
88
88
88
F8
ENDCHAR
STARTCHAR 25B2
ENCODING 9650
SWIDTH 617 0
DWIDTH 9 0
BBX 5 6 2 1
BITMAP
20
20
70
70
F8
F8
ENDCHAR
STARTCHAR 25B3
ENCODING 9651
SWIDTH 617 0
DWIDTH 9 0
BBX 5 6 2 1
BITMAP
20
20
50
90
88
F8
ENDCHAR
STARTCHAR 25B6
ENCODING 9654
SWIDTH 617 0
DWIDTH 9 0
BBX 5 6 2 1
BITMAP
80
E0
F8
F8
E0
80
ENDCHAR
STARTCHAR 25B7
ENCODING 9655
SWIDTH 617 0
DWIDTH 9 0
BBX 5 6 2 1
BITMAP
80
E0
98
88
B0
C0
ENDCHAR
STARTCHAR 25BC
ENCODING 9660
SWIDTH 617 0
DWIDTH 9 0
BBX 5 6 2 1
BITMAP
F8
F8
70
70
20
20
ENDCHAR
STARTCHAR 25BD
ENCODING 9661
SWIDTH 617 0
DWIDTH 9 0
BBX 5 6 2 1
BITMAP
F8
88
90
50
20
20
ENDCHAR
STARTCHAR 25C0
ENCODING 9664
SWIDTH 617 0
DWIDTH 9 0
BBX 6 6 1 1
BITMAP
04
1C
7C
FC
1C
04
ENDCHAR
STARTCHAR 25C1
ENCODING 9665
SWIDTH 617 0
DWIDTH 9 0
BBX 6 6 1 1
BITMAP
04
1C
64
C4
34
0C
ENDCHAR
STARTCHAR 25C6
ENCODING 9670
SWIDTH 617 0
DWIDTH 9 0
BBX 7 8 1 0
BITMAP
10
38
7C
FE
FE
7C
38
10
ENDCHAR
STARTCHAR 25C7
ENCODING 9671
SWIDTH 617 0
DWIDTH 9 0
BBX 7 8 1 0
BITMAP
10
28
44
82
82
44
28
10
ENDCHAR
STARTCHAR 25CA
ENCODING 9674
SWIDTH 480 0
DWIDTH 7 0
BBX 6 9 1 0
BITMAP
20
30
50
88
84
88
50
30
20
ENDCHAR
STARTCHAR 27E8
ENCODING 10216
SWIDTH 342 0
DWIDTH 5 0
BBX 3 14 1 -3
BITMAP
20
60
40
40
C0
80
80
80
80
C0
40
40
60
20
ENDCHAR
STARTCHAR 27E9
ENCODING 10217
SWIDTH 342 0
DWIDTH 5 0
BBX 3 14 1 -3
BITMAP
80
80
C0
40
40
60
20
20
60
40
40
C0
80
80
ENDCHAR
STARTCHAR A78B
ENCODING 42891
SWIDTH 274 0
DWIDTH 4 0
BBX 2 6 1 5
BITMAP
C0
C0
C0
80
80
80
ENDCHAR
STARTCHAR A78C
ENCODING 42892
SWIDTH 274 0
DWIDTH 4 0
BBX 2 5 1 4
BITMAP
C0
80
80
80
80
ENDCHAR
STARTCHAR FB01
ENCODING 64257
SWIDTH 685 0
DWIDTH 10 0
BBX 9 11 0 0
BITMAP
3D80
2080
2000
F880
2080
2080
2080
2080
2080
2080
2080
ENDCHAR
STARTCHAR FB02
ENCODING 64258
SWIDTH 617 0
DWIDTH 9 0
BBX 8 11 0 0
BITMAP
3F
23
23
FB
23
23
23
23
23
23
23
ENDCHAR
ENDFONT
